<mxfile host="65bd71144e">
    <diagram id="fQfZ_TlcvG361OowYFrH" name="Page-1">
        <mxGraphModel dx="1645" dy="691" grid="0" gridSize="10" guides="1" tooltips="1" connect="1" arrows="1" fold="1" page="1" pageScale="1" pageWidth="827" pageHeight="1169" background="#ffffff" math="0" shadow="1">
            <root>
                <mxCell id="0"/>
                <mxCell id="1" parent="0"/>
                <mxCell id="wynJoZTQOHE1wt2AJN_e-24" value="" style="rounded=1;whiteSpace=wrap;html=1;fillColor=none;" parent="1" vertex="1">
                    <mxGeometry x="215" y="430" width="190.15709999999999" height="90" as="geometry"/>
                </mxCell>
                <mxCell id="wynJoZTQOHE1wt2AJN_e-16" value="" style="fontColor=#0066CC;verticalAlign=top;verticalLabelPosition=bottom;labelPosition=center;align=center;html=1;outlineConnect=0;fillColor=#CCCCCC;strokeColor=#6881B3;gradientColor=none;gradientDirection=north;strokeWidth=2;shape=mxgraph.networks.desktop_pc;" parent="1" vertex="1">
                    <mxGeometry x="235" y="445" width="30" height="60" as="geometry"/>
                </mxCell>
                <mxCell id="wynJoZTQOHE1wt2AJN_e-17" value="" style="fontColor=#0066CC;verticalAlign=top;verticalLabelPosition=bottom;labelPosition=center;align=center;html=1;outlineConnect=0;fillColor=#CCCCCC;strokeColor=#6881B3;gradientColor=none;gradientDirection=north;strokeWidth=2;shape=mxgraph.networks.desktop_pc;" parent="1" vertex="1">
                    <mxGeometry x="315" y="445" width="30" height="60" as="geometry"/>
                </mxCell>
                <mxCell id="wynJoZTQOHE1wt2AJN_e-18" value="" style="fontColor=#0066CC;verticalAlign=top;verticalLabelPosition=bottom;labelPosition=center;align=center;html=1;outlineConnect=0;fillColor=#CCCCCC;strokeColor=#6881B3;gradientColor=none;gradientDirection=north;strokeWidth=2;shape=mxgraph.networks.desktop_pc;" parent="1" vertex="1">
                    <mxGeometry x="275" y="445" width="30" height="60" as="geometry"/>
                </mxCell>
                <mxCell id="wynJoZTQOHE1wt2AJN_e-32" value="" style="shadow=0;dashed=0;html=1;strokeColor=none;fillColor=#4495D1;labelPosition=center;verticalLabelPosition=bottom;verticalAlign=top;align=center;outlineConnect=0;shape=mxgraph.veeam.2d.virtual_machine;flipH=0;aspect=fixed;" parent="1" vertex="1">
                    <mxGeometry x="278.86" y="348.66999999999996" width="26.7716" height="25.67" as="geometry"/>
                </mxCell>
                <mxCell id="wynJoZTQOHE1wt2AJN_e-33" value="" style="shadow=0;dashed=0;html=1;strokeColor=none;fillColor=#4495D1;labelPosition=center;verticalLabelPosition=bottom;verticalAlign=top;align=center;outlineConnect=0;shape=mxgraph.veeam.2d.virtual_machine;flipH=0;aspect=fixed;" parent="1" vertex="1">
                    <mxGeometry x="244.85999999999999" y="348.66999999999996" width="26.7716" height="25.67" as="geometry"/>
                </mxCell>
                <mxCell id="wynJoZTQOHE1wt2AJN_e-49" value="" style="shadow=0;dashed=0;html=1;strokeColor=none;fillColor=#4495D1;labelPosition=center;verticalLabelPosition=bottom;verticalAlign=top;align=center;outlineConnect=0;shape=mxgraph.veeam.2d.virtual_machine;flipH=0;aspect=fixed;" parent="1" vertex="1">
                    <mxGeometry x="278.86" y="315.66999999999996" width="26.7716" height="25.67" as="geometry"/>
                </mxCell>
                <mxCell id="wynJoZTQOHE1wt2AJN_e-50" value="" style="shadow=0;dashed=0;html=1;strokeColor=none;fillColor=#4495D1;labelPosition=center;verticalLabelPosition=bottom;verticalAlign=top;align=center;outlineConnect=0;shape=mxgraph.veeam.2d.virtual_machine;flipH=0;aspect=fixed;" parent="1" vertex="1">
                    <mxGeometry x="244.85999999999999" y="315.66999999999996" width="26.7716" height="25.67" as="geometry"/>
                </mxCell>
                <mxCell id="wynJoZTQOHE1wt2AJN_e-67" value="" style="fontColor=#0066CC;verticalAlign=top;verticalLabelPosition=bottom;labelPosition=center;align=center;html=1;outlineConnect=0;fillColor=#CCCCCC;strokeColor=#6881B3;gradientColor=none;gradientDirection=north;strokeWidth=2;shape=mxgraph.networks.desktop_pc;" parent="1" vertex="1">
                    <mxGeometry x="355" y="445" width="30" height="60" as="geometry"/>
                </mxCell>
                <mxCell id="wynJoZTQOHE1wt2AJN_e-69" value="" style="rounded=1;whiteSpace=wrap;html=1;fillColor=none;" parent="1" vertex="1">
                    <mxGeometry x="215" y="300" width="190" height="90" as="geometry"/>
                </mxCell>
                <mxCell id="wynJoZTQOHE1wt2AJN_e-70" value="" style="shadow=0;dashed=0;html=1;strokeColor=none;fillColor=#4495D1;labelPosition=center;verticalLabelPosition=bottom;verticalAlign=top;align=center;outlineConnect=0;shape=mxgraph.veeam.2d.virtual_machine;flipH=0;aspect=fixed;" parent="1" vertex="1">
                    <mxGeometry x="348.36" y="348.66999999999996" width="26.7716" height="25.67" as="geometry"/>
                </mxCell>
                <mxCell id="wynJoZTQOHE1wt2AJN_e-71" value="" style="shadow=0;dashed=0;html=1;strokeColor=none;fillColor=#4495D1;labelPosition=center;verticalLabelPosition=bottom;verticalAlign=top;align=center;outlineConnect=0;shape=mxgraph.veeam.2d.virtual_machine;flipH=0;aspect=fixed;" parent="1" vertex="1">
                    <mxGeometry x="314.36" y="348.66999999999996" width="26.7716" height="25.67" as="geometry"/>
                </mxCell>
                <mxCell id="wynJoZTQOHE1wt2AJN_e-76" value="" style="shape=image;html=1;verticalLabelPosition=bottom;verticalAlign=top;imageAspect=0;image=data:image/png,iVBORw0KGgoAAAANSUhEUgAAB9AAAAfQCAMAAACt5jRLAAAABGdBTUEAALGPC/xhBQAAAAFzUkdCAK7OHOkAAAKXUExURUxpcYVexoZexYZfxYVeyIZexYVgxYZfxYZfxYdcxqpVqodexf8A/4ZfxYhfxIZfxIVgxYVfxYZfxYZfxoZfxIdgxodex4dfxoZfxYVfxoZfxYRgw4ZfxYCA/4hexIBmzIZfxYZfxYZfxYdiw4dfw4ZfxYZfxY5VxotduYZfxYZfxYBV1ZlmzIZfxYdaw4ZfxYBgv4ZfxYBjxodgx4ZfxYhexIRhwYhmzIZfxYZfxoBgv4RjxYZfxYNdwYBAv4ZfxYZfxYZfxIZfxZJttoVfxYpgyoZfxYVfxYdexYZeyYVkyIxZv4BVv4ZfxYZfxYdfxYZfxYZfx4ZfxYVgxYlbyIhiw4ZfxYRhxoZexYZhwoZfxYZfxYZfxYVcwoRexoZfxYtdxYVdxYZfxYZfxoZfxYVgxYZfxIhgxodfxoldx4ZexYVexIdfxYZfxYZexYZfxYVfxIZfxYVfxIdfxYdexIZfxYVdxoZgxoVgxYdgxoZfxYZgxYdfxYNixIBbyIlixIRgxIZgxIZfxYZexYZgxodexoZexoZfxYZgxIZfxoZhwoZgxoVhx4VfxYdexIZfxYNgyIZfxYVfxINfxYVgxYdfxodgxIhfxYVfxYZgxYZfxIZfxYdfxYZfxYZfxoZew4ZfxYZfxYZexolixIVfxYZexYVgxoZfxIVfxYZdw4ZfxoVgxIZfxYVexIZfxYZdxoVfxodfxIZfxYZfxYVgxIZfxYZfxYZfxIZfxYZfxYVgxodgxYZexIZgxYdfxYRdxIZfxoZfxIVfxoZfxYRexodfxIZfxYVfxYZexYZexoZexIVfxoZgxIdexYdfxYdfxodgxYVgxYdexYZfxYZgxIZfxIdexYdexodhxYdfxYdfxIdgxoZfxb8xjQ8AAADcdFJOUwBvopEu0ID81yQDdwH+K8SImbPMu1VEZqpe/U37AjwK+N3yIjP3+QkL8e4GBfoR5hDzEiDlHh0P8NUIH+khBNnc59sH6xjk1tgTFxQM9ura7DvoMBwv7zq9Fc2+yxkbsRYsyr/tWPQtsilUSaPjOa+uyVZGV85HKLBI0mVTJw4aOErh4MgxreI93iqgMktkpCW8cSOVWWg+wcBj1MfTdCaD32cNhJJij3M3k0W6gsY/hqH1lnVhptHPdlqQpYWfNIGUl542W8KsckyHQ5hqtI41bX+nUk7FUUKMeX1kEXz5AAAgAElEQVR42uzaOU5dWRSGUWMQIC6G++ibwC4sOgmBi07I9AQ2CCRkOgsHVlEJcuKshlAJYzyDqfsYQwV3b601hHO29CX/mzcApPP39IpHAIDoBspe58UzAED0oJcyNzF55CUAIHjQG9v9j94CAKIHvZSlmSmvAQDRg974x0AOAOIHvZTVzognAYDoQW+MGsgBQPygl7Jd//QuABA96AZyAJAi6I3BniuPAwDRg94dyD15HgCIHnQDOQDIEfRSNuo7bwQA0YP+OpAb9kwAEDzoBnIAkCPopSx0nj0VAEQP+utAbs1rAUD0oJdyWu96LwCIHvRSBsYM5AAgfNAb59W6RwOA6EHvDuT6PBsARA96Y3zWQA4Awge9O5Db8XYAED3oBnIAkCLojWMDOQCIH/RS/uzce0IAiB50AzkAyBH0Um7qfe8IANGDXsrcxLyBHABED3rjutr0mAAQPeilLL699ZwAED3o3YHc9LIXBYDoQe8O5La8KQBED7qBHACkCHrjrLrwsAAQPejdgdy/nhYAogfdQA4AcgS9lAMDOQCIH/TuQG5yyBMDQPCgG8gBQI6gl/Jh5rtnBoDoQX8dyL330gAQPeilPPQeemsAiB50AzkASBH0xkl16cEBIHrQuwO5b54cAKIH3UAOAHIEvZS93o/eHQCiB91ADgBSBL3xpf/R4wNA9KB3B3JTnh8Aogf9dSC34gcAIHrQS9nrvPgDAIge9NeB3JFvAIDgQTeQA4AcQS9lyUAOAOIHvfHDQA4A4ge9O5Ab8R8AED3opbwzkAOA+EFvbNc/fQoARA+6gRwApAh642uPgRwAhA96KaudJ38DANGD3hg1kAOA+EEvZaO+80EAED3orwO5YX8EAMGD3hjsufJLABA96N2B3LN/AoDoQX8dyK35KgCIHvTuQG7XZwFA9KCXMjBmIAcA4YPeOK/W/RgARA96KQsGcgAQP+iN8VkDOQAIH/RSTusdHwcA0YNuIAcAKYLeODaQA4D4Qe8O5Pr8HwBED7qBHADkCHopN/W+TwSA6EEvZW5i3kAOAEFP4Lra9JMACHp8i2/v/SUAgp7A+PRn3wmAoMdnIAeAoKdgIAeAoOdwXV34VQAEPcNA7ta/AiDoKQZyy74WAEGP76De8rkACHqGgdzkkP8FQNDjOzOQA0DQM/gw890fAyDoBnIAIOjt8NB76KMBEHQDOQAQ9HY4qS79NgCCnmEg981/AyDoKQZy7305AIKeYSD30acDIOgGcgAg6O3wpd9ADgBBTzGQm/L3AAi6gRwACHo77HV+OQAABD3FQO7IDQAg6BkGco+uAABBj2/JQA4AQU/hx/SKUwBA0DMM5F4cAwCCHt87AzkABD2F7fqniwBA0A3kAEDQ2+Frj4EcAIKewGpnxGEAIOgJjBrIASDoGWzUd64DAEFPMZAbdiAACHp8gz1XTgQAQc8wkHtyJAAIeoqB3Jo7AUDQMwzkdl0KAIIe38CYgRwAgp7BefXJuQAg6PEtdJ4dDACCnsD4rIEcAIKewGm942oAEHQDOQAQ9HY4rtadDgCCnmEg1+d4ABB0AzkAEPR2uDGQA0DQM5gzkANA0FO4rjadEQCCHt/i23uHBICgZxjITX92SwAIeoaB3L5rAkDQEwzkJuYN5AAQdAM5ABD0tgzkbh0VAIKeYiC37K4AEPT4DuotlwWAoBvIAYCgt8NZdeG8ABD0+D7M/HZgAAi6gRwACHo7PPQeujIABD3DQG5yyKEBIOjxnVSXTg0AQc8wkPvm2AAQ9BQDuffuDQBBzzCQ++jiABB0AzkAEPR2+MNADgBBzzGQm3J4AAi6gRwACHo77HV+uT4ABD3FQO7IAQIg6PF96X90ggAIuoEcAAh6O/yYXnGHAAh6hoHci0sEQNDje2cgB4Cgp7Dd/5dzBEDQ41sykANA0FP42mMgB4CgJ7DaGXGVAAh6AqMGcgAIegYb9Z3TBEDQDeQAEHTaYbDnyn0CIOgZBnJPLhQAQU8xkFtzpAAIeoaB3K4zBUDQUwzkhl0qAIIe33n1ya0CIOjxLXSeXSsAgp7A+KyBHACCnsBpveNkARD0+AbGDOQAEPQMjqt1dwuAoGcYyPW5XAAE3UAOAEHHQA4AQed/M2cgB4CgJxnIbbphAAQ9vsW3964YAEHPMJCb/uyQAQSd+G7qfacMIOgkGMhNzBvIAQg6CVwbyAEIOjkGcrcuGkDQSTGQW3bUAIJOfAf1lrMGEHQM5AAQdNrhrLpw2wCCToKB3Mxv1w0g6BjIASDotMND76ETBxB0MgzkJodcOYCgE99Jdfkfe/fZW2UZwHE4bUlrego9o2f0FO3QLi0to60oUCgigiBQpqBBUByoOIO4MJhooriIMfrCgRpXjDNGo6984dfwwwgRExAo7ekZz7iuj3Df9/P/JSdN6p0DCDrh11XY46UDCDqR+AO5To8dQNCJwh/IXeu5Awg6/kAOAEEnGLr9gRyAoBONP5DLefUAgk4EePUAgo6gAyDoCDoAgo6gAyDoCDqAoCPoAAg6gg6AoCPoAAg6gg4g6Ag6AIKOoAMg6Ag6AIKOoAMIOoIOgKAj6AAIOoIOgKAj6ACCjqADIOgIOgCCjqADIOgIOoCgI+gACDqCDoCgI+gACDqCDiDoCDoAgo6gAyDoCDoAgo6gAwg6gg6AoCPoAAg6gg6AoCPoAAi6oAMg6Ag6AIKOoAMg6Ag6AIIu6AAIOoIOgKAj6AAIOoIOgKALOgCCjqADIOgIOgCCjqADIOgIOoCgI+gACDqCDoCgI+gACDqCDiDoCDoAgo6gAyDoCDoAgo6gAwg6gg6AoCPoAAg6gg6AoCPoAIKOoAMg6Ag6AIKOoAMg6Ag6gKAj6AAIOoIOgKAj6AAIOoIOIOgIOgCCjqADIOgIOgCCjqADCDqCDoCgI+gACDqCDoCgI+gAgo6gAyDoCDoAgo6gAyDoCDoAgi7oAAg6gg6AoCPoAAg6gg6AoAs6EAFjB5wBgi7oQNidOtJXmHIMCLqgA6F2ev3ZTzqT73cUCLqgA6F1fPTcR709Oe40EHRBB0Le8zOa0jkHIuj6JuhACB0bufDLPprvdCiCjqADIXN48qJve3fDCuci6Ag6ECa7tlzq6y6mcy3ORtARdCAsdqy73Ae+oW7A8Qg6gg6Eo+fbpvnEB1PHnJCgI+hA8L26bfqPvNjW4Zd3QUfQgYB789CVv/OtiWEHJegIOhBg1x2a0Zfek1rgrAQdQQeC6s/rZ/yxt2abnZegI+hAEO0ZnM3n3p1Y6sgEHUEHAmeqZ5YffG/9PKcm6Ag6ECzX9JTwzbdmJ5ycoCPoQHC8tqS0r360cZPDE3QEHQiID5aU/N13FU44P0FH0IEg+PGBOX36mfYhZyjoCDpQa0/fMdePfzK50zEKOoIO1NQzvWX4/PsKOScp6Ag6UDvP9ZZpATL5fqcp6Ag6UBuP9JZvA1YmxxyooCPoQA283FXWFWhK++Vd0BF0oOre6ir7EPye73Sugo6gA9X04qJKTMHyhmWOVtARdKBqHl5UoTEotnW0OF5BR9CBqsgurOAerK7b7IQFHUEHKu+phZVdhMHUYYcs6Ag6UGH3L6z4JvjlXdARdCD8PT9rbWLYWQs6gg5Uyq/Fag1DT+qg4xZ0BB2oiK+K1dyG1uyEIxd0BB0ou7eLVV6H7sRGpy7oCDpQXi8Uq78PvfXzHLygI+hAGeWLtZmITLtf3gUdQQfK5fP5NRuJkca9zl/QEXSgHN6fX8uZ6Co85goEHUEH5uzdmi9Fpn3INQg6gg7MyTdB2IrJ5E43IegIOlC6TwKyFn2FnMsQdAQdKNEfARqMffl+FyLoCDpQgkSwJmNlcsydCDqCDoS852cU0zn/jk3QEXRgVhoDuRtX1Q24GkFH0IEZ+z6oy7G8YZXbEXQEHZiZTwO8HcW2Dr+8CzqCDszAFwGfj9V1m12SoCPowBX8FPwBGUyddE+CjqAD02j5OhQTUmzLNrssQUfQgcv1vCE0K7ImsdR9CTqCDlyy51+GaUeWpA66MkFH0IGLe/5t2KakNTvh2gQdQQcu7Pl7IRyT9Y0b3ZygI+jAeT3/JZxz0lW/y+UJOoIOnHP1X+FdlEz7kAsUdAQdOKP5jVBvykjjXnco6Ag60Pxz2Felr7DHNQo6gg5x73l9FIYlk7/ZVQo6gg5x7vmjEZmW7clxtynoCDrEtufvRGdc+go5FyroCDrEs+e/RWtf9uU7XaqgI+gQO0NPRG5hdjescK+CjqBDvNzweBQ3ppjOtbhbQUfQIUY9fzaqM7OhbsD1CjqCDnHp+T0RHprlDavcsKAj6BCLnj8U7akptnX45V3QEXSIvFvS0V+brYnFLlrQEXSItP7vYrE3PamT7lrQEXSIrs62uCzO/LZss/sWdAQdItrzO+M0OmsSS125oCPooOfh11v/oFsXdAQdombgrhguT2t2ws0LOoIOker5ffHcntHGTS5f0BF0iIyXfojt+nTV73D/go6gQzTc+FGsByjTPuQNCDqCDhHo+Stxn6DJ5H7PQNARdAi5xU/aoL/7ClNegqAj6BDqnt9rgv795T3f7zUIOoIOYTV8twX6z/bkuAch6Ag6hLPnGQN0nqZ0zpsQdAQdwmfv8/bnf47mO70LQUfQIVwO6Pkl7G5Y4WkIOoIOYer5x9bnkorpXIvnIegIOoTE7R8an8vaUDfghQg6gg5hcOtNtmc6g6ljHomgI+gQ/J7fZnqu9Mt7W4df3gUdQYdgG19reWZga2LYWxF0BB0C3PM1hmdmelILPBdBR9AhoMb0fBZas82ejKAj6BDEnnebnVnpTiz1agQdQYegWfG61Zmt3vp5Ho6gI+gQKMs+Mzql/fI+4fEIOoIOgXHqiM0p0WjjJu9H0BF0CIbT601O6boKJzwhQUfQIQCOj1qcucm0D3lGgo6gg56H32Ryv5ck6Ag61NKxEXtTDn2FKY9J0BF0qJnDk+ambL+85/s9KEFH0KEmdm2xNmW0MjnmTQk6gg7Vt2OdsSmvpn/Ys7dnrQY4jOOz22aj3S7tSto6KzqLEgmdS6kUmoqIylBJOeV8rlFTipgyk0OM89kYhqsuzLhzZdz5Y8y7XRhjpsnufd+1nrU/3//gXa3f85nW7rzQawV0AV1qtuerbU39+2noKK8W0AV0qYnt43ljuqZ1hrcL6AK61KwObbU0japr8MX9vGFAF9ClZjSO5w1tbssKLxnQBXSp4Z2aZGca3MSB27xnQBfQpca2bqKZ8eUd6AK6lN6asVamOS1on+Z1AzrQJTWokTxvXmMH3uONAzrQJTWi/VfYmKY2YEhfbx3QgS6p3h3nedMb077Miwd0oEuqa9/wvIjG9znHuwd0oEuqX4+sNDAFNWjYDd4/oANdUn3aM96+FNflbRuALqBLqkNP8rzYRl/0INAFdEln2w6el+HL+xSgC+iSzqY/LjUupfjyfhToArqknvfqaNtSjs4DuoAuqcc9M9W0AB3oArqU3naeAx3oAroU35DhhgXoQBfQpfQe5jnQgS6gS/Hdy3OgA11Al3guoANdQJcK74cuowJ0oAvoUnof8xzoQBfQpfgO8xzoQBfQpfie5jnQgS6gS/EN5TnQgS6gS/F90GFPgA50AV1K7xjPgQ50AV2K76gxATrQBXQpvk9tCdCBLqBL8b1rSoAOdAFdiu9nSwJ0oAvoUnzthgToQBfQJZ4L6EAX0KXCazMjQAe6gC7F95UVATrQBXQpvpNGBOhAF9Cl+D60IUAHuoAuxfetCQE60AV0Kb1+n1gQoANdQJfiPW81IEAHuoAuxXv+kf0AOtAFdCne88/NB9CBLqBL8Z6/aT2ADnQBXYr3/HvjAXSgC+hSeiN+sR1AB7qALqXX96DpADrQBXQp3vPvLAfQgS6gS/Ge9zEcQAe6gC7Fe/6A3QA60AV0Kd7zI2YD6EAX0KV4z3+0GkAHuoAupTdlt9EAOtAFdCm9ybtsBtCBLqBL8Z4/YTKADnQBXYr3fJPFADrQBXQp3vP7DQbQgS6gS+kt7LQXQAe6gC6ld9mX5gLoQBfQpfRGDbYWQAe6gC7Fe77eWAAd6AK6xHMBHegCulR0E+4wFUAHuoAuxXu+xVIAHegCupTec18bCqADXUCX0rv6bTsBdKAL6FK853vNBNCBLqBL6U1/yEoAHegCuhTv+WYjAXSgC+hSetM22gigA11Al+I9H2QigA50AV1Kb8NTFgLoQBfQpfTu5jnQgS6gS/mev2MfgA50AV1Kb/kJ8wB0oAvoUnqLZ1sHoANdQJfiPV9qHIAOdAFdSm/WAtsAdKAL6FK85/NMA9CBLqBL6V3Fc6ADXUCX8j0fYxiADnQBXUpvzgG7AHSgC+hSejPeNwtAB7qALqX32k6rAHSgC+hSeu8tMQpAB7qALqX37EybAHSgC+gSzwV0oAvoUtE9frlFADrQBXQpvW3zDQLQgS6gS+mtXWUPgA50AV1K79ZF5gDoQBfQpXjPV1sDoANdQJfS28dzoANdQJfiO7TVFgAd6AK6lN44ngMd6AK6FN+pSZYA6EAX0KX01k00BEAHuoAupbdmrB0AOtAFdCm9kTwHOtAFdCm+/VdYAaADXUCX0jvOc6ADXUCX4vuG50AHuoAuxffIShMAdKAL6FJ6e8ZbAKADXUCX0nuS50AHuoAuxbeD50AHuoAuxffiaOcPdKAL6FJ6r/Ic6EAX0KX4npnq+IEOdAFdSm87z4EOdAFdim/IcKcPdKAL6FJ6D/Mc6EAX0KX4HuU50IEuoEvx3ctzoANdQJfi+6HL2QMd6AK6lN7HPAc60AV0Kb7DPAc60AV0Kb6neQ50oAvoUnxDeQ50oAvoUnwfdLh4oANdQJfSO8ZzoANdQJfiO+rcgQ50AV2K71PXDnSgC+hSfO86dqADXUCX4vvZrQMd6AK6FF+7Uwc60AV0iecCOtAFdKnw2hw60IEuoEvxfeXOgQ50AV2K76QzBzrQBXQpvg9dOdCBLqBL8X3ryIEOdAFdSq/fJ24c6EAX0KV4z1udONCBLqBL8Z5/5MKBDnQBXYr3/HMHDnSgC+hSvOdvum8BXUCX4j3/3nkL6AK6lN6IX1y3gC6gS+n1Pei4BXQBXYr3/Du3LaAL6FK8532ctoAuoFf676rrroVdL+iG3122gO5fH+gV1nxk68w/Hzsfd9X///kRhy2gAx3olda81thHgVd1z3901wI60IFe0fpfsOSfnzxwIfOq3JTdzlpABzrQq6l525h//+bb36BedZu8y1UL6EAHeiU1n/ffHz1xCPcq6/kTjlpABzrQe4fmf392n4y+anq+yU0L6EAHeuU0X3Ca373xEvhV0fP7nbSADnSg9yLNa12zHX+Va2GnixbQgQ70Sml+8xn88o5Wn90r1mVfOmgBHehAr5Dmc8/0t2++noFVatRg9yygAx3ovU/zWqtfpGCFPF/vnAV0oAO9Iprf+H9/fUfrFBDyXEAHuoAerXl3v96Fwko04Q7HLKADHegV0Py8Hj+ARTtgWAXPt7hlAR3oQO/FmvvsXpGe+9opC+hAB3q45kvP/hm89TwRs7v6bZcsoAMd6L1d81qr9jAx2vO9DllAB7qCNZ9dv6fQcUFfLMY2/SF3LKADXaGgX9IyoM7PYcudYEz1fLMzFtCBrkjQr6+75rWu+wKNkU3b6IoFdKArEPTGaF7r3LYRdAz0fJAjFtCBrjjQZzRM8+7WL+ZjWhuecsMCOtAVBnqDNa91y4WEzOpungvoQFcW6HNaBnQ04Wn47B7m+TsuWEAHuoJAb5Lm3b2+HJMxLT/hgAV0oCsG9KuaqHmtnWtAGdLi2e5XQAe6QkBvtua1hvvsHuL5UucroANdEaDPKkDz7jqvpGX5m7XA9QroQFcA6IVpXuuVdbwsvefzHK+ADnSVHvRCNe/+7N7eD5nl/mMMzwV0oKvsoN9WtObdbZoGzTJ7PsbpCuhAV6lBL4fmtV56AZulbc4BlyugA10lBv2ulgFd5XkyU312L2sz3ne4AjrQVVrQbxo2uKtkz2aXz+6l7LWd7lZAB7pKCvpNwzqHl/DhvPwZPcvXe0ucrYAOdJUS9JJqXmt0Cz/L1rMzXa2ADnSVEPRl5dW8u93TEcpzAR3oAvrpu/a3LaV/5+auhWiJ6n+LmxXQga7ygX5+whMa77N7edo238kK6EAX0HvakRUkLUdrV7lYAR3oAnrPu/EclpahWxc5WAEd6AK6z+7xnq92rwI60AX0s6zPBKAW3D6eC+hAF9DrsAv3IbXQDm11rQI60AX0OrTyMFQLbBzPBXSgC+j1+uw+iqtFdWqSWxXQgS6g16ul/f9i786arKrOAAwvugkUTbcFKFplAWIrsdtukUFFSgwODSglLUgolcEBpEQGZRJFMIg4lgM44zyUM3EqY2K8yYVJblKVXOYmPyYkKROjAnve+6zzvD9hf/Wth16csw9Z6+n6fqsqoANdQC+umd+wtY6W9dpUAR3oArpr91ZvCs8FdKAL6EX39SHAVtxjM+2pgA50Ab3wetcjttJe4rmADnQBvZxr93MoW12f8VxAB7qAXlIrx3C2qnYssaQCOtAF9LLq307aato1zY4K6EAX0Ets/ABsK2g3zwV0oAvo5XbyWbgtvU08F9CBLqCXfu2+Ebglt3+qBRXQgS6gl15Pp2v3UnuK5wI60AX0Slp9KXXLa+951lNAB7qAXk0X7+VuWW3kuYAOdAG9wmv3QfSW0sRJllNAB7qAXmHbZsO3hLbzXEAHuoBebUOb8Ft4O3kuoANdQHft3vKt57mADnQBvYYO72NwkX11usUU0IEuoNdy7b6bwsX1Ps8FdKAL6HVdu4/rAnFBvcJzAR3oAnp9vbwGxYW0h+cCOtAF9Dob3gHjAjqN5wI60AV01+4t3zs9dlJAB7qAXnerFhA5Xy/yXEAHuoDegOadyuQ8PWshBXSgC+iNaPSoyVjO3If2UUAHuoDelG5YDOaMvWEdBXSgC+jNacsUNGfq97ZRQAe6gN6kJrl2z9JYyyigA11Ab1h/vZrPPBfQgS6gt34PPkDodH1iFQV0oAvort15rn/16IueAdCBDnSgF92GWZhO3FsWsYgmzBrpIQAd6EAHevHX7neCOmHv2sOCboWADnSgAx3oZRywY7tZnaTPrWEBbVl29FECHehABzrQS+ne6bQ+Yd0f2MICeubfLzQCOtCBDnSgl9MBn3Y/oeedljB/371yGOhABzrQgV5SU0cg+/iev2cH83fddz8KBHSgAx3oQC+trTOofRzPP7aC+fvfz/YCHehABzrQy+va5dw+pufP28DCrtuBDnSgAx3ort3r8vxLC5i7eUe+90SBDnSgAx3opfbIHHj/RJO/tX+5W7cmAB3oQBfQK2v+Cnz/qK4nrF/eesZ1BaADHegCeoVNc+3+I8+/sH15G971g4cKdKADHehAL73N1zD8/zzvsHx5O7wvAB3oQBfQK++q2yn+Pc8327281+2dgwHoQAe6gF5DS/Zw/L+eH7R6ORva9BPPFehABzrQgV5JHX0o/4/nv7V5Ods2OwAd6EAX0Os7XG6F+dEGt1q84q/bgQ50oAMd6FVeu7+C8zBwl73L19L9x3i0QAc60IEO9Oqu3c9oe8/vtXb5WntpADrQgS6g197ck9rc85ttXc7r9oEAdKADXUBvQL0vtLXnGyxdri7eeJynC3SgAx3oQHftXk1XTrBzuVp9VgA60IEuoDemu8e06RFzzq+tXK7GDwSgAx3oAnqTrt13tuUJc8YpNi5P/dtP8ICBDnSgAx3o1f+pdWUben6DhcvTyucC0IEOdAG9BU9nnivlvwGBDnSgAx3oddyfTmyv46VvlXXLUe/6BM8Y6EAHOtCBXs+fXAPt5Pk625ajZJ+jBDrQgQ50oNfT8b+DFFW/+tSy5SjhNx2BDnSgAx3oNXXct4TE1JzX7FqO6/ak7yICOtCBDnSg19Xx3uMZk+cPGXX2FiV+WzDQgQ50oAO9vo79SxvxNGObOZd+3Q50oAMd6ECvuWP+FmY8nq815cwteTrFkwY60IEOdKDXe+0+GPW5Mn21GWf36NYAdKADXUBvmf58U8yen2zA2a/b+wLQgQ50Ab2FGtoU7aly433Gm7Vpp6V82EAHOtCBDnTX7iV1C88zd9XIAHSgA11Ab7le3hel56+bbNY2XxOADnSgC+gt2PCu+I6Uxa+aa9br9hEZnjfQgQ50oAO9Edfu47oiO1EWzDXVjM1fEYAOdKAL6C3bujVxeb7ISDP2yJwAdKADXUBv4eYdieg8uegKA83W1BEZHznQgQ50oAO9KY0eNTkazy8zzmwd+GMAOtCBLqC3fDcsiOM0uZDnGbtrRgA60IEuoEfQdX+JwvMzTbLa63agAx3oQAd605oUwbX7JY+bY6YefCAAHehAF9Cj6ZnFLX6UzH7bEDN18/QAdKADXUCPqC3LWvokObTFCDPdzYztDkAHOtAFdNfuTenNhQaYpUfvzPvkgQ50oAMd6M1rwqxWPUfuv8D0srQh/8SBDnSgAx3oTfx77Xqeu5MBOtCBLqBHcMTn/R/VWrrnfJPLUDGfmgA60IEOdKA3s5yfea6jOy43tgydUsz3GoAOdKADHegNLd+3kmtoxbCh1XTdDnSgAx3oQG9y57XWtfvyISNL38IpRT1/oAMd6EAHenPL8Wbv6j1fal7pK/Dt/UAHOtCBDvQGd+CjVjlAHuZ5+gr9fT2gAx3oQAd6k8v1cx0V9uRtZpW6eUeKHAHQgQ50oAO92W1thWv3s3mevlVrAtCBDnQBvY2av6Lxp8cfzjWmtPWM6wpABzrQBfS2alrTr92v7zektA3vKnoKQAc60IEO9OZ38Jomnx3Lek0obS/vC0AHOtAF9DbsqpHNPTqm8DxtPZ2/CEAHOtAF9Lasudfuj800nZQN7S5jEEAHOtCBDvTWqKOvkQfHS0ll+ucAACAASURBVDxP2+GbAtCBDnQBvZ1Pp9sbeG58xvOU9XQOBqADHegCelu35OnGHRs7lhhLupbuL2sWQAc60IEO9Nap44xmnRq7pplJutbODkAHOtAFdP1j0UlNOjR28zxdPZ0DAehAB7qArqPN/KY5Z8Ymnqfr4r1ljgPoQAc60IHeWjXm2n3/VMNI1epLA9CBDnQBvYDOjeQDXF8fasSJ8fef26A09fxtMAAd6EAX0IvoZ7F8Zbp3fQMOjL3nWaA09U8seyJABzrQgd4+oIfHYnlJacc5dZ8XG3meqpXPBaADHegCemGgx/Pa8ZVj6j0uJk6yPmkaf2UAOtCBLqAXCHo8PwzWv73O4W3neZp6d1YxFKADHehAbyvQI/rp7vEDtc1uJ8/TdHc11ylABzrQgd5eoIezz41lfCefVdPo1vM8TVV94AHoQAc60NsM9HD2bbHMr39jLZP76nSrk7zeF6qaC9CBDnSgtxvo4cmlsQyw1DeJHqv3eZ6iudW9qxfoQAc60NsO9PBwNKKX/fKxn+gVnqeoytf6AR3oQAd6+4Eelg9FM8NyXw/+4/bwPHkz/1TlaIAOdKADvQ1BDyviEb2nc7DCqZ3G8+QtujUAHehAF9DLBT3ccXk8Y9w2u7KhvdNjaxLX0ReADnSgC+hlgx7uOT+eOQ5tqmhmL/I8cUv2VL1RQAc60IHenqBHJXpF1+7PWpnklNwegA50oAvolYAe7r8golEe3lf+xD60MYnb3BeADnSgC+gVgR7eXBjRLId3lz2wNyxM0qaNqGOjgA50oAO9bUEPh2ISvWdcV6nz+o19Sdr8kQHoQAe6gF4l6GH22zGNc92aEsc11rok7ZE5AehAB7qAXi3o4ZLHY5rn8A6e11491+1ABzrQgd7uoEcmemnX7qMsS8KuXR6ADnSgC+g1gB4uPDOqka5aUMasPrErCds6IwAd6EAX0GsBPVx4WVQznXdq8aN6y6oka+qIOjcK6EAHOtDbHPRw0RVRDXX0qMkFT+pdm5KsAx8FoAMd6AJ6faCHX14b11ifWVzooD63KMm6d3oAOtCBLqDXCXpYMDeuuW6ZUtyYuj+wJ4maNLY7AB3oQBfQ6wU9LH41MlwKu3bv7rQmiXrwztqPcKADHehAB/pR0V+PbLQTri7G8/dsSaI2zApABzrQBfQGgB5uuS+y2T66rAjPP7Yk1d6IAB3oQBfQc4IeboxN9AKQ6X7ejlT2jyegAx3oAnoxoIcbf+ca+Aeef2lFklTQf28AHehAF9CLAT1MXx3bfPN9UGvytzakmpsQoAMd6AJ6oaCHGWujwybHV6m6nrAgCSryK4JABzrQBfRiQA8ztkU34swvO+n6wn4kqOCX+AAd6EAX0AsBPcx5KLoZZ3wdaVeH9Thxoxtz3Q50oAMd6ED/geivRTfkTD8Y0rXZdpy4Mn4IB+hAB7qAXgjoYc6n8Y05/U96dh20HCeunJ+qBTrQgS6gFwJ66Psne/fiW/VZx3H8S0tYKC3h6pIF1lrWUGyHsKmAbpmRawhlkLmAXIbAGAhlDMZwDBQGG6Db0I2xDbybOadzonFq1DkvWYwx/gn8MU63GC7t6enpOe3veX6v939w8vv8nlf69EB35vec739gmJ7/zrsxZG1TWgLoQAe6gF5c0KN7c34PumtY1+69j3k1hmzt44U7woEOdKADHejX174xw0d9ZlHVD6bngDdjyC5tDaADHegCesFBz1P0+8ZX6/mTXoyhKt51O9CBDnSgA31A0Wdk+LCrvHbv2ea9GKq1Rwt5hAMd6EAHOtBvau4vcnzc/d1VeL7HazFUr50IoAMd6AJ6GqDH0mlZHm+7y/m561pbc28AHehAF9BTAT3Tn1T7jpXxZqKuLdtX2CMc6EAHOtCBXqLfJTd1l+27A/Xt4N0BdKADXUBPCvRcv+29cnu5vt1f14p73Q50oAMd6ECvIHqe/x677zLPa2zx8UIf4UAHOtCBDvRB6j2T52Nvah/o0+b4P+TVty33BtCBDnQBPUXQo+XdPJ/7kskDeL7T+1CxtuaeADrQgS6gpwl6tn91rPPijZ/067/0OlRs3t7CH+FABzrQgQ70CqL3Z/rom+Ze9zkz/Dvw9W36nAA60IEuoCcMerQ0Zfrsn5h4refPeBkqNrUngA50oAvoSYMeLc9l+vA7D///My446F2o1LzDSRzhQAc60IEO9IrNfi/bHzuXfuT5Dq9CpTZNDKADHegCevqgR+vfs5Xqwn8/3/wt3oRK3fB1A6ADHegCeqqgR+vL2d4lz/zA8+lehAp17krmCAc60IEOdKAPKfrfsp3A1Iee8h5UaMk3A+hAB7qAng3oGd+6X+3wGlTo358NoAMd6AJ6RqBHa7O1lK+Ff0zqCAc60IEOdKBXI/qfzKVsrZwcQAc60AX03ECP+Je9lKuKfzoe6EAHuoCeLOjxZ4MpUX3nkzvCgQ50oAMd6FX2usWUR4LdAXSgA11AzxX0eNtkSlJy1+1ABzrQgQ70YfVXmylDXeOSPMKBDnSgAx3o1TfBaPJv1fgAOtCBLqBnDnpMsprc+9aaADrQgS6gZw96/MFsXLcDHehAF9DTBz3esZuMu/+BADrQgS6glwP0eNNwsu2xBQF0oANdQC8L6PFPy8mzjnFJH+FABzrQgQ704fZSm+1k2OmfBdCBDnQBvVSgxytEz68n5wfQgQ50Ab1koMetRM+sWZNaA+hAB7qAXjrQ49ht5pNTp06mf4QDHehABzrQa+k80TNq2/wAOtCBLqCXE/S4THTX7UAHOtAF9PRBjzeInkdnN+RxhAMd6EAHOtBr7OIsE8qgaXcF0IEOdAG91KDHLqKnf90+YXYAHehAF9BLDnocJnri7V+fzxEOdKADHehAr71DRE+6F1cH0IEOdAEd6B+0904zSrZb8rluBzrQgQ50oI+040RPtXs+ltcRDnSgAx3oQB9RL3QYUpJtXh5ABzrQBXSgE911O9CBDnQBPSvQY1+XKSV33f5Wfkc40IEOdKADfaQdJXpi7dwaQAc60AV0oN/UEaKnVNuUlgA60IEuoAN9gB7vs6ZkWnskzyMc6EAHOtCBXoeuPGJOifTaiQA60IEuoAN9sF5daE9JXLc39wbQgQ50AR3og3eO6Am0bF++RzjQgQ50oAO9Pt3eaVFF7+DdAXSgA11AB/oQrSe663agAx3oAnr6oMeGeTZV4Na9kPcRDnSgAx3oQK9bf/mEURW2HfcG0IEOdAEd6NV1x8NWVdTr9p4AOtCBLqADvdqeJ3ohW7w3/yMc6EAHOtCBXs+eXWdXxWv6nAA60IEuoAN9WD1A9MI1tSeADnSgC+hAH67oyyyrUM07VI4jHOhABzrQgV7nHlxrWgVq04UAOtCBLqADvZa+8knbKkxNcwPoQAe6gA702voq0QtS567yHOFABzrQgQ70+ve1T1lXEXpiYgAd6EAX0IFO9NSv29sD6EAHuoAO9BH1gxX2NcYtvFiuIxzoQAc60IHekL6938DGtJWTA+hAB7qADvSRd/ePLMx1O9CBDnQBPXnQ43PfMLGxqu98+Y5woAMd6EAHeqP69MdtbIwO8u0BdAFdQAd6/UT/vJGNyXV7dwBdQBfQgV7HPvMFKxv1usaV8wgHOtCBDnSgN7AvEn20WzU+gC6gC+hAr3fLl9jZqNa/JoAuoHv6QAd6/VtNdNftQAc60AX09EGP1d+xtNHqvgcD6AI60IEO9Ab15e+Z2uh0ZlEAXUAHOtCB3jjRn7K1UahjXATQBXSgAx3oDexLvze2hnf6/QC6gA50oAO9sc3fYm0N7sCCALqADnSgA73hou8wN9ftQAc60AX05EGPBQftrXGdOslzoAMd6EAH+iiJ/ozBNapt83EOdKADHehAH60WEb0xzZrUSnOgAx3oQAf6KIr+XZNrQGcfZTnQgQ50oAN9VOu+ZHN1b89dKAc60IEuoI+26DuNrs7X7RNmkxzoQAe6gD76om+2unq2fz3HgQ50oAvoY1H7RrOrXzNWYxzoQAe6gD5Gor9od67bgQ50oAvoyYMe7TMMry6tOMdwoAMd6AL6GLZ0muXVoY3LEQ50oANdQB9b0feY3ki7xXU70IEOdAF9zOvZZnsj6563+A10oANdQC+A6E8a30jauRXfQAc60AX0Qoh+wPpqrm1KC72BDnSgC+jFqPcx86uxtUfYDXSgA11AL47oZ+yvpi6dQDfQgQ50Ab1AtbxrgDVctzf3khvoQAe6gF4s0fstcLgtO8ptoAMd6AJ6wUCPliYTHF7/eAjbQAc60AX0woEeLb+2QdftQAc60AX05EGPlueMsOrWPc1soAMd6AJ6MUGP2e9ZYZXtuBfZQAc60AX0ooIerb8xw+qu23uIDXSgA11ALy7o0fqyHQ7d4uO8BjrQgS6gFxr0aP25IQ7Vljm4BjrQgS6gFxz0aP2JJVZuqut2oAMd6AJ68UGP1mZTrNC8mawGOtCBLqCnAHq0/tQWB23TBVQDHehAF9DTAD3iV8Y42HX7UlIDHehAF9CTAT1et8aB6jzMaaADHegCekqgxw/N8eaemIhpoAMd6AJ6WqDH2/Z4Y01zKQ10oANdQE8N9JhgkNdft19kNNCBDnQBPUHQY5JFXtOSyYgGOtCBLqAnCTrRr71ubyc00IEOdAE9UdDjHZv8sL7LfAY60IEuoKcLenzfKP93Dm/HM9CBDnQBPWXQ402rvHq1qZvOQAc60AX0tEGPl1y3H2Mz0IEOdAE9edDjlbZyj3LVbjQDHehAF9AzAD1+XGrR+9eQGehAB7qAngXoz3eWeJILr4AZ6EAHuoCeBejPriv1Jm+ZMBvNQAc60AX09EF//uGyr3LjcjYDHehAF9BTB/2Oh81yxe1wBjrQgS6gpw36o/Os8urVWa7dgQ50oAvoSYO+gecfNmM1n4EOdKAL6MmCvr7TJj9q/3pAAx3oQBfQEwX9dp67dgc60IEuoCcP+rmFFnlte+5iNNCBDnQBPT3QX+X5DZ19FNJABzrQBfTUQL/yiD3edO0+qRXTQAc60AX0pEB/vM8cB2jbfE4DHehAF9ATAv1IlzUO2KmToAY60IEuoCcD+lGeD1bHOFIDHehAF9ATAX0fzyt0YAGrgQ50oAvoKYD+dIcpVur0+7AGOtCBLqAXH/QXeO7aHehAB7qAnjzox+80xCE7s4jXQAc60AX0QoO+l+fVdN+DwAY60IEuoBcY9JmzzLCquly7Ax3oQBfQiwv6IZ5XXf8aZgMd6EAX0IsJ+mGeD6NVu6ENdKADXUAvIui7eD68a/dbqQ10oANdQC8e6L+9zQSHWVM3t4EOdKAL6AUD/Q2e13BCbwc30IEOdAG9UC/cZZ7XUt95cgMd6EAX0AvUMZ7Xeu3ezm6gAx3oAnpRupXn/2Hvzn+sKs8AjmcGAuHOHcImJgYYBJEhg+MAKhIgqDBAJoBQSkCWsklF9kUWt4KAUIrsuFA3NFgFTPtDbdoIGDBd0van/kdtVFqrcO+5wznnnvOez/c/GJ/nPZ/h9c493W5SX3gDHehAF9Cz0cfNtq/7jXiT3kAHOtAF9Cz0Fs9duwMd6EAX0HMP+hmrd7ft6gNwoAMd6AJ6nfvM5sVw7f4CwYEOdKAL6HXtA4sXS/2nMxzoQAe6gF6/vrB3MbX0LMSBDnSgC+j1qsnaxdaYeygOdKADXUDneQjX7m0cBzrQgS6g16Feli7elo8EOdCBDnQBPfVu2Lm4e3wDyYEOdKAL6Cl3wcrFX3MP1+5ABzrQBfRUu2jjEmnNVJgDHehABzrQ0+u6hUuo+a/RHOhABzrQgZ5S5U/tW4LX7mN5DnSgAx3oQE/F86vWLcn++jOgAx3oQAc60FPw/BPblmwzNgLdFgAd6EAHeuKeX7Zsrt2BDnSgC+h5B718066l0Pl9QBfQgQ50oCfp+TmrlkrzdgNdQAc60IGenOdf27S0rt37lYAuoAMd6EBPpqFfWbT0WrsC6AI60IEO9CQqHbNnaTblCtAFdKADHegJeN5ozdKtd6+hQBfQTR/oQI/b8022LPWWdAJdQBfQgR6v5yctWR36yT+BLqAL6ECP0/NrdqwuDSnktTvQgQ50oAM9ocYetmL16nQX0AV0AR3o8dS2zYbVr80LgC6gC+hAj8XzrRbMtTvQgQ50AT3voLettF91bsB4oAMd6AI60O/W8/XWq+4dWQx0oANdQAf6XTV9gO3KwrV7UxnoQAe6gA707jf6c8uVjVa2Ax3oQBfQgd7dWgbZrax0YD/QgQ50AR3o3fT8tNXKTg81AR3oQBfQgd4tz5fYrEy1tQPoQAe6gA70mmtdZrEy1sFLQAc60AV0oNfq+Vp7lbmGNwAd6EAX0IFem+fnrVUWO9wBdKADXUAHevQmvmerstm0RUAHOtAFdKBH9vyQpcpqoxqADnSgC+hAj1YHz7PcpjlABzrQBXSgR/F8u5XKdLN7Ah3oQBfQgV619jU2yrU70IEOdAE976C3L7dQ2a+xFehAB7qADvRKPfNH+5SLR/xqoAMd6AI60O/cqpesUz6aewLoQAe6gA70O3r+vm3Kz7V7C9CBDnQBHei3retdy5SjZvUFOtCBLqADnef5b9yXQAc60AV0oP+ozklWybU70IEOdAE976D/9CmblL929QE60IEuoAP9+z3G81w2Yh3QgQ50AR3o/+vRJ+xRXq/dRwMd6EAX0IF+y/P7rVFuW3oW6EAHuoAO9G+afNQW5bgxO4AOdKAL6EDneQD1bwM60IEuoAN9wkd2KO8NHAl0oANdQC866KdmWqEArt03AB3oQBfQiw36hzwPouYebUAHOtAF9AKD/uojFiiQ1kwFOtCBLqAXFvQ9PA+n+ceBDnSgC+gFBX3Pw9YnqGv3sUAHOtAF9CKC/vyTtiestk8AOtCBLqAXD/RFMyxPaM3YCHSgA11ALxroC3nu2h3oQAe6gJ570BfOtzpB9s4+oAMd6AJ6gUB/neehNm830IEOdAG9MKC/8azFCffavV8J6EAHuoBeDNAf4HnQrV0BdKADXUAvAuhbxlibsJtyBehAB7qAHj7oi3kefL17DQU60IEuoAcO+oIRlqYALesEOtCBLqAHDfownhfk2n0w0IEOdAE9YNB/Oc7KuHYHOtCBLqDnHfS3eV6gTncBHehAF9DDBP13P7cwRWrzAqADHegCeoig75xrX4rVkLxduwMd6EAHOtAjtHuUdSlcA8YDHehAF9ADA/1FnhexI4uBDnSgC+hBgf734aGuwLR/+VWlQg+eKQMd6EAX0MMB/bVgPd/W4cMBlVvZDnSgA11ADwX046F6PrzBx/erdmA/0IEOdAE9DNBfeSjQ8R+89O0P6A/sKzakqQx0oANdQA8A9A2her73v5fJvgKvclvbgQ50oAvouQf9niEF+HenL6mPdpcBdKADXUDPLeg7AvX8B/9n2GvkKvftpw2ADnSgC+i5Bf2FQD1f+cOvTPGi9ypt6wA60IEuoOcX9HVhen67j3ltIXrlnl4IdKADXUDPK+h/uC/Isd/++88eeNaBqNioBqADHegCej5B/02Ynt/pG8rfIHqVTs4BOtCBLqDnEPRfB+l5hXeIvT7fkajc7J5ABzrQBfTcgf5ykJ5XfMv3QqJXKdPX7kAHOtCBDvTbdW+Qnp/uqvhDL5zhUFSpsRXoQAe6gJ4n0D9uDnDeve983f5di4he1YjngA50oAvo+QH9rRA9nzK4+g/+/JOORZXmngA60IEuoOcF9DMhTntZZ5Qffc/DzkW1GluADnSgC+i5AP2zAGdd/br9u159xMGo1qy+QAc60AX0HID+QYCjnrIz8mCIXr1xXwId6EAX0DMP+hcBTnrtihom8+FMR6NqGbx2BzrQgQ50oP9fTeHNublfqabRnNrsbFTtT6eADnSgC+hZBj1Az+ftrnU2Ez5yOKo2Yh3QgQ50AT27oPcKb8rv7Kt9OJOPOh3VaxwNdKADXUDPKOg3gptxc4+x3ZnO5Psdj+ot7QN0oANdQM8k6BeCG/GMjd0cz6NPOB/VG7MD6EAHuoCeQdAvBjfh7RO6PZ/HiB6l/m1ABzrQBfSsgX49tPl287r9luhPOSERGjgS6EAHuoCeKdDLn4Y23vnH725CnbMckQiN2QB0oANdQM8Q6OWroU13zdS7HVHnJGck0kVIG9CBDnQBPSuglz+hzI/retchidLyqUAHOtAF9GyAXr4c2Ggfj+ceeNX7Tkmk/9yvAB3oQBfQswB6+WZgk43tk1qrXnJMol2IjAU60IEuoNcd9PK5wAYb499SPUP0aN3FXwgCHehAF9DjAb38+7DGGu+3nbQPdFAi1e3v8AE60IEuoMcD+tCvwprq0rPxDqp9uZMSqXpfuwMd6EAHesFBLx0La6jxvzGkY42jEq3uvAcH6EAHuoAeD+ilxqBGmsg7PTu2OyvRmvci0IEOdAG9PqCXNgU10V3JvP5r4iGHJVrN/UpABzrQBfQ6gF46GdRAG1sSGtbE95yWiK1dAXSgA11ATx300rWQxjnuzeSm9YvfOi4Rm7cT6EAHuoCeMuhjD4c0zVl9kxxX61rnJWL31enaHehABzrQCwt627aQhpnYdfst0Zc5MFFb1gl0oANdQE8P9LatAY1y7onEB9ayxImJ2pTBQAc60AX0tEBvWxnSg2t1ChNrOe3IRK13r6FABzrQBfRUQA/K88bWVEbWMsiZidzpLqADHegCegqgTx8QzhhH3ZvWzEZ/7tBEbvMwoAMd6AJ64qCHJNPsnukNLaTfgxJvSMrX7kAHOtCBXkDQQ7o73jQnzam1rXdsojdgPNCBDnQBPUnQA/p016iGlMcW1GcPEu/IYqADHegCenKgB/T3V9MWpT63tr0OTvTSvHYHOtCBDvSigR7QN6QcnliHwQX19/vJt3480IEOdAE9EdDD+Q7T4Q31mVxY35ibeAe2AB3oQBfQEwC99Xwo0zv453qNrnTN2amhIU1loAMd6AJ63KCH8x7QrR31m11gb51NvL3tQAc60AX0eEGfeCiQ0dXruv2W6JucnppuUy4BHehAF9DjBL0jFM8P7K/z46LU6Phk7RcwoAMd6EAvDugd2wMZ3Mr2uj8vSsecn5ra1gF0oANdQI+po7vCGNuDDeUMPDCIXmNPLwI60IEuoOt7HdmSjSdG+WuzqKmkv9UP6EAHOtCBnqvWj8/KI6N8zjRq628TgQ50oAvo+qa03+BVWfSbBlJb03oCHehAF9D1nzYvyNRDo3zZSGoryWt3oAMd6EAHem4a1JWxp0a5h6HUWGMr0IEOdAG94GXquv2W6FfNpVZkngM60IEuoBe6mcMy+eD4h8nU2NyXgQ50oAvoBW5JZ0afHNfNptaSuXYHOtCBDnSg56DeGbxuv9VF46m1WauBDnSgC+iFbMqVLD87LhhQrY37C9CBDnQBvYAtW5Hth8cNI6q5xhagAx3oAnrBau5XyvrTo5cp1dykXwEd6EAX0AvVvJ05eHw0mVPNjVgHdKADXUAvUOf/zd69/2ZZ3nEcbykp41AEBJMRoNBBaFNEoEIhgCCnMmY5hBFATgISEFBORUBwiCjgJszJUMSp00wXp/EnM7MtS7ZlTv1hy7Kftv9mDZmJZhza576f+76u63m9/wP68Lle8rXQs1G8H7/zSfW/AVOBDnSgC+g1UlPDQ5E8IJ/6sPrf8cFABzrQBfSaaNmpeF6Qt31c/a+tB+hAB7qAXgNd3x7TE/KlD6yCRrYDHehAF9CTP7dPi+sNebXJh9b/7r0KdKADXUBPurXnontEXiN6JWf3MUAHOtAF9ITb1RHhK/Ie0Ss6xbQDHehAF9Cd24Pq9FifXQVtXQh0oANdQE+yuWdifUeuEL2sDxzoQAc60IGe5h/YSuoG0Us6yQAd6EAHOtCDe9vbY35JPiB6RWX+pgmgAx3oQAd6WOX1Tc+ldc1bUlHLzgEd6EAX0BMqt7+WXF57xvkYSzi7Ax3oQAc60ENqZHsCj0kP0Svr+lmgAx3oAnoa5/aeNF6To0Sv8Ox+CuhAB7qAnkC5/vCtUhtzv0+zsrP7iCFABzrQBfTYy/fHY5fbfqJX2BtngQ50oAvoUddyLakH5auJPtLKWn0M6EAHuoAecfN+nNiLcpnoxZ7dgQ50oAMd6EGc25uTe1IOTPGxVtiWbUAHOtAF9Cib+XmKbwrRK27BfUAHOtAF9Ajr2pnmo3KK6JU2qHE80IEOdAE9unN7a6qvyrFun26lbVoOdKADXUCPqu7TCT8rHxG94lZMADrQgS6gx/Tm7E36XXl9po+40sb17+wOdKADHehAd26vYpeIXnn/+D7QgQ50AT2KptSn/7JMaPE5V9zFdUAHOtAF9AhaNLAWnpZ1RC/k7A50oAMd6EAvqy86a+Nt2djms668fbOADnSgC+jO7USPv+efAjrQgS6gB9ya9TX0ukx+3NoynN2HDgM60IEuoIfa4Rk19by8TPQsnZwOdKADXUAPson1tfa+vLjW3jJ0/jmgAx3oAnqIz/OHtffAEL3a/wkIdKADHehAD/KAmlzrl1lclu76P2mADnSgAx3oxdbHb3FKrw1Ez9Tdvo0S6EAHOtCBXmh9/UtICfbEwzZXxbM70IEOdKADvch2zKrdN6buxANGl6kLnUAHOtAF9DDO7Y3D6mq5Ew9aXabu9I8FAx3oQAc60Avr4sa6Gu9ZomfrDv++INCBDnSgA72oRs2qq/neWWF32Tr4CNCBDnQBveRz+3ie19W9QvSMrdwLdKADXUAvsScnwPxmHe9aXra6TwMd6EAX0EvrZ6tQ/r/mv2R6GRvQCnSgA11AL6VBzu3fFH2S7WWsayfQgQ50Ab2EFtxH8W82e7HxZT273wA60IEuoBfeluUM/3ZziJ797N4MdKADXUAv+Nw+hOD/J/oS88vavOFABzrQBfQiz+3H8H2LlnfZX9ZargEd6EAX0Atr9zZ431r0scYdIwAAIABJREFUeQaY/ew+FehAB7qAXkhNI5zbb9eqNy0wc8cHAx3oQBfQC2j109y+fY+9ZYLZz+49QAc60AX0qnf9LLXvKPozNpi9kUuBDnSgC+jVPbc3TGP2ndtM9Bx69CrQgQ50Ab2KLTsA7LuL/pkVZq9tDNCBDnSgA71qHenAdR+avtUM8zi7twMd6EAHOtCd20ttxi47zKGtC4EOdKADHehVaO1lUvdZ9COGmENzzwAd6EAHOtBzb9dCTve9zhcsMZej0GRfBKADHehAz/dl/Y9ze//+jE70XPIDb4AOdKADPdfa9iO6n/3oE1sU0IEuoAfWvd8DdL9r3W2MAjrQBfSguvn3h9Rv0bdYo4AOdAE9oHP7UTZXVvMmcxTQgS6gh9LX/waniC6gA11Aj7dv/XBq9Vf00QYpoANdQA+glj1QztTUjy1SQAe6gF56xwcjOWNLR5mkgA50Ab3sc3szkDPXvs8mBXSgC+hlNvP3NM5F9B1GKaADXUAvr67hLM5J9JNWKaADXUB3bk9A9ENmKaADXUAvpe4rGM6xaRfsUkAHuoBexpOxE8K5NuS3himgA11AL/7c3orgvEX/qWUK6EAX0IttSj1/qyD6QdMU0IEuoBfZyoH0rYroA2xTQAe6gF5cBx9hb5VE/4lxCuhAF9Cd2+NvPNEFdKAL6MW0aAN2q9iwv5ingA50Ab2ALnRCt7qi/9w+BXSgC+jVbqJze/VF/7OBCuhAF9Cr2/m/8rYA0X9joQI60AX0anZoBm0LEf19ExXQgS6gO7cnIPofbFRAB7qAXqWefw60xYn+ayMV0IEuoFelHdMxW2R/tFIBHegCev6NGzqMscX2KzMV0IEuoOfdxacAW3i/tFMBHegCer7tm4XXEvqToQroQBfQ8zy3N46Hayk1WqqADnQBPbeeXEfWshpqqgI60AX0nBq9iqtEF9CBLqBHDrpze8l9aqwCOtAF9OytuITUknvbWgV0oAvoWdu0HKil96W5CuhAF9AzNci5PYhetVcBHegCeoYWfMTSMHqtyWIFdKAL6JW2ZRtJQ+k9ogvoQFeIoG/+29jwz+3/cm4PqL8TXUAHugIEva7uB98dFfbvutVPQzSorow1WgEd6AoQ9N62198T7hv9xlmEBtYNogvoQFeYoPf2w/p7grykNjU8BNDg+oDoAjrQFSrogZq+7BQ9Q+yah0pAB7rCBb23OYGZfn07O8NszzjDFdCBroBBD8v0poZp5Ay1HqIL6EBX2KCHY/rac9gMuKNEF9CBrtBB7212+abv6oBm0I2533YFdKAreNBLN72poR2Zgbef6AI60BUD6L3NL830uWd4GX5fTbReAR3oigL00kzfupCWMXSZ6AI60BUL6L111N9T8FdkpHN7JJ2bYr8COtAVDehFm942BpTRdIDoAjrQFRPovS0syvRHr2Iyok4RXUAHuuICvSjTRy6FZFQd6zZhAR3oigz0Akxv6yEk0QV0oAvoRTS8cV7VvhTHB/Mxvl6facQCOtAVIehVNH3AVDrG2CWiC+hAV5yg3zS9K++vQ8s1NEbahBYzFtCBrkhBv2n6d/L8MswbDkaiC+hAF9BjN31AMxYjbl2bIQvoQFfcv2OHN67M4Wsw83Mmxt1GogvoQFf0v2mzm961k4ixN/lxUxbQgQ70ugRMX5Tl3N7Kw/h7megCOtCBXlfTpnefhmEaoq81ZgEd6EBPxfQ1Fax9LwoT6UWiC+hAB3pCpi9xbq/Z1i8zZwEd6ECvTdOn1FMwpTYQXUAHOtATM31xn37piwYyMK2eeNigBXSgA732TP+ik4CpdeIBixbQgQ709Eyf5Nxee6I/aNICOtCBnqDpI1bc7pe9Zj38kuxZogvoQAd6io2f0HDLB/7wDPQl2jsrjFpABzrQa8X0ic7tCfcK0QV0oAO9Rkw//yH1Uq7jXbMW0IEO9JRN//oboE9OZ17azX/JrgV0oAM9edPHDR1GvORFn2TYAjrQgZ50Q/79/j9x5+ouoANdQJeiaPZi0xbQBXQp/uYssW0BXUCX4m95l3EL6AK6lIDo86xbQBfQpfhb9aZ5C+gCupSA6G/Zt4AuoEvx99gzBg50oAvoUvxtJjrQgS6gSymI/pmJAx3oAroUf9O32jjQgS6gS/E3Y5eRAx3oArqUgOhHrBzoQBfQpfjrfMHMgQ50AV1KQPRf2DnQgS6gSwmI/omhAx3oAroUf627LR3oQBfQpQRE32LqQAe6gC7FXzPRgQ50AV1KQfRNxg50oAvoUgKij7Z2oANdQJfib+rH5g50oAvoUvwtHWXvQAe6gC4lIPo+gwc60AV0Kf7ad1g80IEuoEsJiH7S5IEOdAFdSkD0QzYPdKAL6FL8TTv8X3bs/bXqOo7jOG6yYmfm2eXsnM1qc+jcdDrNS6ZmahalRV5maoXajbSke9kVCioykyzK6GYX0iQolKSiIqKf+xP6Y4KCilDb3Ll8P+/v4/EnnM/7vJ7w9acXdEFH0CF9rd/61wu6oCPoEKDob/jbC7qgI+gQoOj7/e8FXdARdAhQ9CZ/fEEXdAQdAhT9tH++oAs6gg4Bin7IX1/QBR1Bh/S1/eq/L+iCjqBDgKK/7c8v6IKOoIOiI+iCjqBDJor+pb+/oAs6gg4Bin7c/1/QBR1BhwBF/9EACLqgI+gQoOhfWABBF3QEHQI4ZQIEXdARdAjgcxsg6IKOoEMAnxgBQRd0BB0C+MUKCLqgI+gQQIsZEHRBR9AhgIIdEHRBR9BB0RF0QUfQIRPOWAJBF3QEHQI4ZgoEXdARdAjgpC0QdEFH0CGAt4yBoAs6gg4BHJ1mDgRd0BF0SN9nii7ogo6gQwDP9hoEQRd0BB0UHUEXdAQdsuB9RRd0QUfQIYATii7ogo6gQwDvWEFBF3QEHQK491KrIOiCjqBD+h5XdEEXdAQdAnhU0QVd0BF0CKA03zAIuqAj6JC++xVd0AUdQYcAnlN0QRd0BB0CONxvGwRd0BF0SN+Ls42DoAs6gg7pe0DRBV3QEXQI4GlFF3RBR9AhgCdvtg+CLugIOqTvMUUXdEFH0CGAdxdZCEEXdAQd0veqogu6oCPoEKHoAzZC0AUdQYf0Xa7ogi7oCDoEsHnYSgi6oCPokL7tii7ogo6gQwCz5toJQRd0BB0CFP0eQyHogo6gQ/pe32QpBF3QEXRI38uKLuiCjqBDAFvX2wpBF3QEHdK3TdEFXdARdAhg31prIeiCjqBD+g6MmgtBF3QEHQIUfYm9EHRBR9Ahfc8ruqALOoIOAXx8vcUQdEFH0CF9RxRd0AUdQYcAFn9qMwRd0BF0SN/Kg0ZD0AUdQQdFR9AFHUGHLFg602wIuqAj6BCg6GvshqALOoIO6Vu2znAIuqAj6JC+MUUXdEFH0CGA664yHYIu6Ag6pG/DB7ZD0AUdQYcARf/IeAi6oCPokL49ii7ogo6gQ4SiP2M+BF3QEXRI387v7IegCzqCDulbcIcBEXRBR9AhfQvvsiCCLugIOgQo+iMmRNAFHUGHAEV/yYYIuqAj6JC+Kz80IoIu6Ag6BCj611ZE0AUdQYf0Db1nRgRd0BF0CFD0u+2IoAs6gg4Bin67IRF0QUfQIX19OyyJoAs6gg4Bit5lSgRd0BF0SN8cRRd0QUfQIYBrO4yJoAs6gg4Bir7Xmgi6oCPokL55u82JoAs6gg4Biv6UPRF0QUfQIUDRHzIogi7oCDqkb+RhiyLogo6gQ/pavzUpgi7oCDoEKPobNkXQBR1BhwBF329UBF3QEXQIUPQmqyLogo6gQ4CinzYrgi7oCDoEKPohuyLogo6gQ/ou+9mwCLqgI+iQvrZvLIugCzqCDgGK/rZpEXRBR9AhQNF/sy3ZsFfQEXRgMkU/blwab7DSneMbFHRBB6pS9Gbr0mBbimO5PkFBF3SgOkX/wrw0Umd5Rc4vUNAFHaiSU/alUforD7o/QRd0oFo+NzANMdqy0/EJuqADVfSJhWnAt/ae1S5P0AUdqK6vTEydv7U3TXV1gi7oQPW12Jg6mlm40ckJuqADNVEwMvUyveRbu6ALOqDoaRtov9OtCbqgA7V0xszU3LrCAocm6Lh6qLFjdqamertKra5M0BF0qL2ThqZ2htv3uTBBR9ChPt6yNDVyzZSbnJegI+hQN0en2ZpafGuf0ea2BB1Bh3r6TNGrbXnzYncl6Ag61Fu519pU0/flPkcl6Ag6NMCzil41F3V0OyhBR9ChQd5X9OpYVVzqmgQdQYfGOaHoVdBZnuOUBB1Bh4b6wcRO0mDFt3ZBR9Ch8e691ORMwtrimBsSdAQdsuBxRb/wb+09Iw5I0BF0yIhHFf2C9FdecDyCjqBDhpQUfeJGWza6HEFH0CFb7p9vdiZmemm1sxF0BB0y5zlFn4DZTVOdjKAj6JBJh/sNzzjNLNzoXgQdQYeselHRx/mtvdWxCDqCDhn2wGzT838G2i9xKIKOoEPGPa3o57eusMCVCDqCDtn35M3G55x6u2a0ORFBR9AhCY8p+jkMt+9zHoKOoEMy3l1kfs7ihilDbkPQEXRQ9LS/tXd0+9Yu6Ag6pObVAQP0b8ubFzsKQUfQIUGXK/o/nij3uQhBR9AhTZsV/S8XdXS7BkFH0CFd24dt0O+/ryoucwqCjqBD0mbNzf0GdZbnuANBR9Ah+aLfk+sBGqxsdgOCjqBDBK9vyu/8rC3ucgCCjqBDEC/nteidPSNeX9ARdIhj6/ocLk9/5QUvL+gIOsSyLXdFX9Ky0bMLOoIO4exbm6vVmV5a7c0FHUGHiA6M5mZyZjfd570FHUEHRU/bmsIVHlvQEXQI7Pkl8ddmWlep1UsLOoIOsX18ffCtGWi/xCsLOoIO8R0JXfRbCgs9saAj6JALiz+NOjO9XTPavK+gI+iQm6IfDDkyw+0HvK2gI+iQJysDFv2GKUMeVtARdMiZpTODfWvv6PatXdARdMhj0dcEWpdbm1d6UUFH0CGflq2Lsi1PlPs8p6Aj6JBbYyGKPr/S7SkFHUGHXLvuquRnZUtxmXcUdAQd8m7DB2mPSmd5hUcUdAQdSLrog5XtHlDQEXTgT3s+SnRPRou7vJ6gI+jA30V/Jslv7T0jnk7QEXTgX3Z+l9qU9Ddt82yCjqAD/7HgjqSGZEnLRm8m6Ag6cJai35XOjEwvrfZggo6gA2e18JE0NmRR+30eS9ARdODcRX8pgQVZU7jCSwk6gg6cz5UfZnw+ertKrZ5J0BF0IOmiD7S/5okEHUEHxmHovcxOxy2Fhd5H0BF0YJxFvzuj39pntHkcQUfQgfEX/fbsrcby5qs9jKAj6MCE9O3I2GZcPGXIqwg6gg5MuOhvZulbe0e3b+2CjqADF1T0rqzMxariSs8h6Ag6cIGu7cjEWNxWnuMtBB1BByZR9L0NX4rBSrd3EHQEHZicebsbuxNbimMeQdARdGDyRX+qgSvRWV7hBQQdQQeqUvSHGjQR/ZUH/fqCjqAD1TLycCMGYrRlp59e0BF0oJpFf6X+39p7Rvzugo6gA9XV+lN9v7U3bfObCzqCDtSg6Pv/YO9eeqMqwwCOM1NTSaftTKfX6fRCaSm0SguUQinlHu4EEkLYSeJCEjYujK5M+ALujHHhwhiNl42JYkw0RhMXfgOX/TCezhEhSMu0nTNz3jm/344E2ulzeOefzIHzNO+dYapw3cAFHUEHkil6vknvC8XBs6Yt6Ag6kFjRf2zCm8LRvrdNWtARdCDRon+U9FvCxcKCMQs6gg4kbPyPJN8PRgcGu8xY0BF0IHndPyX2bjDX98h8BR1BB5pU9E+SeS84l7tluIKOoAPNK/qfSXzWXu02WUFH0IGmFv3rBr8NrHQsmaqgI+hA04ve0cg3gV+GJ41U0BF0oBVF/7Zhn7WXh4xT0BF0oFV+aMj5XystG6WgI+hAC/2++9PfP3zQHAUdQQda64vdHf3ZEZ+1CzqCDqTA97s4+BdK9wxQ0BF0IBU6d/xZe+VN0xN0BB1Ii8JOzvy+kXdNTtARdCDsoi923jQ2QUfQgZT5dXvnvTh41swEHUEH0ufz+g/7gfxr5iXoCDqQTt/VedSnCtcNS9ARdCC1Pq7vs/YukxJ0BB1Is097XnHK9/f1mpKgI+hA2n25ZdEvFhaMSNARdCAAw6ObHfDRgWq3+Qg6gg6E4cOXF32u75HZCDqCDoTjs5cU/VzukMEIOoIOBOWbUZ+1I+iCDoTv5+eLvtKxZCKCjqADIXpn7Omp/mB40jgQdEEHAvV+reivl4eMAkEXdCBg742tr5VOmAOCLuhA2P7+6w1DQNAFHQBBR9ABEHQEHQBBR9ABEHRBB0DQEXQABB1BB0DQEXQABB1BBxB0BB0AQUfQARB0BB0AQUfQAQQdQQdA0BF0AAQdQQdA0BF0AEFH0AEQdAQdAEFH0AEQdAQdQNARdAAEHUEHQNARdAAEHUEHEHQEHQBBR9ABEHQEHQBBR9ABBB1BB0DQEXQABB1BB0DQEXQAQUfQARB0BB0AQUfQARB0BB1A0BF0AAQdQQdA0BF0AAQdQQdA0AUdAEFH0AEQdAQdAEFH0AEQdEEHQNARdAAEHUEHQNARdAAEHX/rAQQdQQdA0BF0AAQdQQdA0BF0AEFH0AEQdAQdAEFH0AEQdAQdQNARdAAEHUEHQNARdAAEHUEHEHQEHQBBR9ABEHQEHQBBR9ABBB1BB0DQEXQABB1BB0DQEXQAQUfQARB0BB0AQUfQARB0BB1A0BF0AAQdQQdA0BF0AASdbQS92997AEEn/KDfqHb+Njw0resAgk7gH7kv54o99/tHSsMTjx0CAEEn4Hvop3PF2i/n+/OFwZmDzgKAoBPoP4pb+rfpkbGpgb5CdXrckQAQdAL8V+5nnjV9w+xUuTQ8NO1gAAg6of23td7Oqy/+lvn+kVJl5pbzASDohPT/0Hs7977sd84X+wqDM6uOCYCgE0TQa02/tsnvPzw10JcbcnsdQNAJIOi1pt/Z4o/tOzVSGh667MwACDrpDnqt6Rdf8afn+0c6B2cOOToAgk56g15r+vk6vkjt9npvlxMEIOikM+gbTS9dqe9LHZ4a6PAQWQBBJ51B37NnfKLjeP1fsXZ7feKk4wQg6KQr6HHTF7f3hePb65NOFYCgk56gx02/sP2vv1h7iKzb6wCCTkqCHuma6Li7o+8yG99ed8QABJ0UBD1u+tqOv9n92kNkv3LSAASdFgc9bvrtXX1PO1oBBJ3WB32j6UP5ld1+ZztaAQSdFgc9cqman2vEC4h3tL7l9AEIOq0IemS1mt/fqNdhRyuAoNOioMdNP9rIl2NHK4Cg04KgRw42uOnrdrQCCDrND3rc9IcJvDY7WgEEnWYGPTJZzT9J6CXa0Qog6DQr6JGTlfJsgq/UjlYAQacZQY8cSbbp63a0Agg6TQh6ZKFSPpz8yz5Q29H62JkFEHSSCXrkWFOaHt9e33iIrB2tAIIu6MmImj7WvB/CjlYAQRf0pFxvatPX7WgFEHRBT8jNysBo038iO1oBBF3QG+5BrtjTkh/MjlZA0BH0hjrRqqav29EKCDqC3kjLLWx6fHvdjlZA0BH0Rjjd4qbHH8Pb0QoIOoK+W0u5Yip+5vghsmcdeEDQEfQdOpOSpq//t6PVQ2QBQUfQd2K6cCpNA4h3tN5w+gFBR9C3q7dzb9rmYEcrIOgI+o6afi2N49h4iKwdrYCgI+jbavq5lA7FjlZA0BH07TX9TopnY0crIOgIev1NP5/yEdnRCgg6gl5f06cCmJQdrYCgI+ivMD7RcTyMecUPkbWjFRB0BH3Tpi+GMzY7WgFBR9C3aPqFsKZnRysg6Aj6Jk2/G9wMx+KHyNrRCgg6gv5M10THWpCj3GdHKyDoCPoLTb8d7ETtaAUEHUF/rul9K0EP1o5WQNAR9JpL1fxc6OO1oxUQdDIf9MhqGzS9dnvdjlZA0Mly0OOm72+XYdvRCgg6mQ165GA1f7SdZm5HKyDoZDLocdMfttnk7WgFBJ3sBT1u+pM2vAAr/Xa0AoJOloIemRwsz7bpdfAQWUDQyU7QI0cqbdv0p7fXqx4iCwg6bR/0yEKlfLi9L4odrYCgk4GgZ6Lp8cfwdrQCgk5bBz1yrFIey8Ylim+vr3p/AgSddgx65Hpmmr5uRysg6LRv0CM3K+Vs/a2Nd7Re9mYFCDptFfTIg1yxJ3OXLX6IrB2tgKDTPkGP3Mti02tdt6MVEHTaKOiRE1lt+rodrYCg00ZBjyxnuOm12+sbO1onTnofAwRd0IN3OlfM/BWNb69PejsDQUfQg7ak6TV2tIKgI+ihO5Prd2Fjs3a0gqAj6CHr7bzq2j5z345WEHQEPdym73V5X7y9bkcrCDqCHmTTz7nC/7PxEFk7WkHQEfTQmn7HRd7k9rodrSDoCHpYTb/oOm/xMbwdrSDoCHo4TT/vUm/d9Y2HyNrRCoKOoKe/6aUrrnY9t9ftaOUf9u5tJ67rDOC4Zo+ELFKYdpyDxxsGTBwwFxyNMeEQjKHFhBRLyPJdfMkD9LrKA+Q18gZ5hVz0DXrRp6mYoZXbYJjDntlrrf37PYL5Pv+lWdL+EHQEPWyz7fqaP3gv3GgFQUfQg2/6kb95H8/rE188feY/RhB0BF3TU3le9xFZEHQEPTiT7fq+v3yfVnxEFgQdQQ+y6Rf++IM8r7vRCoKOoAfX9BN//6Ge191oBUFH0INwnGc7RmAIa52PyHpeB0FH0ENo+rIpGI4brSDoCHoIdvNswSAMz41WEHQEPYCmb5iFop7X3WgFQUfQy7OUZ1fGoTButIKgI+iantLzuhutIOgIegnm8kfzhmIEP8Nf32j9wXyBoCPo47Peai6ai9F03Y1WEHQEXdNTseJGKwg6gj42q63miukYpc5HZN1oBUFH0EduU9PH87zuRisIOoI+Ymet5owZGdvzuhutIOgIuqYn8rzuI7Ig6Aj6qJx/1XhsUsb9vO5GKwg6gl68d7XGlGEp5XndjVYQdAS9UNuaXg43WkHQEfSCvdD00tzcaDWEIOgIeiH2NL1U7zsfkf3FIIKgI+hDe15rmJvSn9fdaAVBR9CHd6DpIXCjFQQdQR/a9MSp6Qnlef36RuuPZhIEXdAZtOkPDFBIP8O70QqCLugM3PQ3ZiiwrrvRCoIu6AzW9ENjFBw3WhF0/w8IOoM0/bVJClL3Ruv3RhRBR9DpuemvDFPIz+tutCLoCDo9N/2JeQra9Udk3WhF0BF07jXbrm8ZqQie191oRdARdO5v+pqpisE3nRutPxlZBB1B59NNPzJY8TyvX39E1o1WBB1B5zaT7fql2Yrted2NVgQdQefWpu8br8i40YqgI+jc3vQLExYhN1oRdASd/2/6l9mOIYv6ed2NVgQdQafjOM+WzVm83GhF0BF0/mM3zxaMWuzP6260IugIOpqezs/wbrQi6Ah61S3l2YaBS6Tr1zdap78z1Ag6gl7dpl+ZuWTc3Gj1EVkEHUGvork8+9XYJcWNVgQdQa+ol63moslL8XndjVYEHUGvmnVNT5UbrQg6gl4xq63mivlL+HndjVYEHUGvjE1NT5wbrQg6gl6hps+YwvSf191oRdAR9PSdaXqFntfdaEXQEfSUnbc+f2wWK6L7EVk3WhF0BD1RH2qNKeNYIW60IugIerK2Nb2qz+tutCLoCLqmk4CZ7kdk3WhF0BH0hOxpemXNu9GKoCPoSXlea5jMSv8M70Yrgo6gp+JA03XdjVYEHUFPwteffWs+caMVQUfQEzA9cWpE6Tyvdz4i+9JOIOgIerxNf2NK+eh53Y1WBB1Bj7fphwaVj7nRiqAj6NE2/a1Z5ffP6260IugIeoRNf2VcucXOQzdaEXQEPbamPzGxfIKPyCLogk5Mnta3DC136N5o9RFZBF3QCd5su75mbrmbG60IuqATSdOPjC69/AzvRqugI+gE3/RL00uPXb/+iOzTXWsj6Ag6QZps1/cNMD1zo1XQEXRCbvqFGaYv3Rutf7Y9go6gE1zTT4wx/f8M3/mIrButgo6gE5DjPFs2yQzWdTdaBR1BR9NJhRutgo6gE47dPFswzwzDjVZBR9AJpukbRpqhf4bvPK/PWShBR9Ap0VKeXZlqiuBGq6Aj6Gg6yVh0o1XQEXTKM/dFc95sU6D3brQKOoJOOdZbzUXjTcHcaBV0BJ0SrGo6I3H9EVk3WgUdQWfMTV8x5IyGG62CjqAzTput5ow5Z5Q/w7vRKugIOuNxpumMvututAo6gs4YnLea1pvRc6NV0BF0Ru5DrTFl4BkLN1oFHUFnpN5pOmP9Gb7zEdlnNk/QEXSKt63pjL3rDR+RFXQEnRF4oemUYMVHZAUdQadwe7WG2acUbrQKOoJOsZ5rOmX+DO9Gq6Aj6BTmoPbQBlCqtc5HZD2vCzqCzrCmJ04tAWVzo1XQEXQKafoDe0AI3GgVdASdoZt+aBUIhRutgo6gM1TT39oGAuJGq6Aj6Aze9NcWgsB0b7T+aD0FHUGnz6a/shME+TP89Y3WH6yooCPo9N70P/7FWhBq191oFXQEnd7NtutbNoNwrbjRKugIOr03fc1yELbOR2TdaBV0BJ37m35kP4jgZ3g3WgUdQecek+36pRUhkq670Srogg53N33flhANN1oFXdDhrqafWBSi4karoAs63N70L7Mdu0J8P8NX+karoAs63Oo4z5atC1Gq6I1WQRd0+JTdPFuwMcTq5karoCPo0G36hqUhZu87H5H9RdARdCpvSdNJQAVutAq6oEMvTb+yOiQg6Rutgi7o0Iu5/NG87SERad5oFXRBhx69bDUXLRBJ/Qyf1I1WQRd06N26ppNg1xO50Srogg59WW01V6wR6Yn/RqugCzr0a1PTSVb3Ruv3go6gUxFnreaMZSLhn+EjvNEq6IIOmg63u/6IbDQ3WgVd0GFg5181HlspkhfJjVZBF3QYxrtaY8pWUQnfdG60/iToCDqp2tZ0qqTAF+vYAAAN6ElEQVT7Edk5QUfQSdELTadqwrvRKuiCDoXY03QqKKQbrYIu6FCU57WGBaOSgrjRKuiCDgU60HQqrNwbrYIu6FCsnydOrRlVNlPSR2QFXdChcNMTD2waVTf2G62CLugwmqa/sWwwzhutgi7oMLKmH9o3uOn69Y3W6e8EHUEn1qa/tnLwXzc3Wv8g6Ag6MTb9la2D/zGaG62CLugw+qY/sXjw+5/hi73RKuiCDqM3265v2T24VVE3WgVd0GFcTV+zfvApw99oFXRBhzE2/cgGwl12Hg58o1XQBR3GaLJdv7SEcJ9BbrQKuqDD2Ju+bw+hF33daBV0QYcymn5hFaFH3Y/Ifi3oCDphNv1PO7YR+nDfjVZBF3QoyXGeLVtI6FP3eX1X0BF0QrKbZwt2Evp3y41WQRd00HSI1PxHN1oFXdChbM/+9o+/2kwY3Mk/f/vX3x/7dxB0KN9Snl1ZTgBBJ35zefar/QQQdOL3stVctKIAgk781jUdQNBJwmqruWJRAQSd+G1qOoCgk0rTZ6wrgKATvzNNBxB0knDe+tzXMgAEnQR8qDWm7C2AoBO/d5oOIOgkYVvTAQSdJLzQdABBJwl7tYYVBhB0EnCg6QCCThpN/+xbiwwgByRgeuLULgOCDkk0/Y11BgQdkmj6oY0GBB2SaPpbSw0IOiTR9Nf2GhB0SKLpT6w2IOiQgKf1LdsNCDrEb7ZdX7PggKBDEk0/suOAoEMSTb+05oCgQ/wm2/V9mw4IOiTR9AvLDgg6JNH0E/sOCDrE7zjPlq08IOig6QCCDmHYzbMFiw8IOiTR9A27Dwg6xG8pz66sPyDooOkAgg5hmMsfzftPABB0iN96q7no/wFA0Pk3u3ayE9eVx3G865ZVRpShBsbLZTCkDUEy8xDMEKbIgIhAwdhRsoiSDVE2eYve+HH8hC2nF+1OG9tADfec+/k8wzm/7+aPpgMIOuTDYtpcsAaAoEP4VjUdEHSIwlnaHLcJgKBD+M7T5mOzAAg6hO+XUq3PMgCCDuG71nRA0CEKm5oOCDpEYUPTAUGHKOyUakYCEHSIwJqmA4IOUdgrDZgKQNAhAv2VE2sBCDpE0fQegwEIOkTR9FObAQg6RNH0S7MBCDpE0fQjywEIOkTR9APjAQg6xND0+kv7AQg6hG9isrxuQgBBhyiavmRFAEGHKJp+aEgAQYfw9U6Wr2wJIOgQRdN3zQkg6BBF0y8sCiDoEEHTh5MtowIIOoTvOEvm7Qog6BC+7SyZMS2AoEMUTV+xLoCgQ/jmNB0QdIil6Tc2BhB0CN9UlrwzM4CgQ/i+SZuzlgYQdAjfsqYDgg5RWEybC/YGEHQI36qmA4IOUThLm+NWBxB00HSAj3g6+oN9hU47H6mNmR+gdQ6q56YVuuK6VOuzQUArjA0O9VpV6J5NTQce7k15z55Ct21oOvAgAyNTphRyYUfTgXt6OvqjEYUcWSvVDBNwVw7hIIf2NB24C4dwkFtvKy9sFPBFHMJBvvVXegwV8DkDI3P2EvLf9FNrBdzuWfIvSwmhNH3fZgEfdVQ9M5IQVNOPDBfwN2OD2RP7COE1/cB8Af+1W1+zjBBq06dtGPAXh3AQtInJ8rohg8J7lryyhxBB05fMGRTZZXXVFEIsTT+0aVBMDuEguqZfWTYonKv6jv2D2PROlnfNGxTJwMi26YNYm35h46AYVhqvjR5E3fTGlqWD6O07hIP4HWfJvLmDiI01hx3CQTFsZ8mM0YM4HdY3jBxoOhC2gfS5fYOimcuSFfMHEZlpPLJsUNim3xhBiMNpddGoQYFNZck7Swihe+wQDvjH1FBz1h5CwA7rm5YMeG851XQIlUM44EOLaXPBMkJoZhq/my9A0yFsp6XvLRfwMatpc9xIQhBmRx3CAZ9wpukQgCWHcMBnnaeDY/YScqw25BAO+CK/lGp9RhNyab7xm40Cvty1pkMO9TiEA+5sU9MhV2ZHhw0TcC8bmg55sVS/tknA/e2UapYUuq429K05Ah5oTdOhq+Yb/YYIaIm96gujCt1xUvraBgGt0185sazQaQ7hgLY0/dS+QgetV341PECbmr5vZKEj+gYdwgHtbfqlqYV222q8tTZA+5t+ZG+hjX4ecQgHdKrp00YX2uKpQzigo/5ZXje90GovKz9ZF6DDJibLS/YXWmfMIRzQvaYfWmFoia3GHzYF6GrTr0wxPNTAyJQ5Abqsd7K8a4/h/hzCATlq+oVVhnuZrp7bECBXTf/ONMMdjQ0O9ZoPIGeOs2TeQMOXe1P+ynAAmg5hcwgH5Np2lsyYavjsIdyP1gIIoOkrBhtud+AQDgjEXJbcWG1wCAdoOkR6CLdnHYDQTGWjTw04fHgIN2cYgCAtp81ZKw7vPRv90yQAmg5hO6qeWQMgdItpc8GgU+hDuOyJIQCisKrpFNZufc0EABE5S5vjth2HcACaDqEdwiWv/HsgTucjtT4zTzFcVld9eSBi1yVNxyEcQAw2NZ24XdV3/HOgGDY0nYgP4bZ9caBAdko100+Eh3CvfW6gcNY0nbjsO4QDimqvNKACRHII1xx2CAcUWX/lRAsI3mF9w2cGNL3SIwgEfQiXPvePAf7T9FNVIEwzjUd+MMCHTb/UBgI8hFv0eQH+r+lHAkFAHjuEA7i16QcyQSiHcJt+LMAnml5/qRU4hAMI38RkeV0wyPUh3O/+KcAXNn1JNsin0+qyLwpwl6Yfagd5MzvqEA7grnony1cKQo4sOYQDuHfTd2WEfKgNOYQDeFDTL7SEbptv/OYzAjy06cPJlqLQRT2l7/1DgFY4zpJ5WaFbh3B+IEDrbGfJjLjQ+UO4a58PoPVNX1EYOnoI961/B9AOc5pO5w7h+v04gLY2/UZsaLeT0tc+G0CbTWXJO8XBIRxA+L5Jm7O6Q1usV371wwA6Z1nTab2+QYdwAB23mDYXJIjW2Wq89a0AumJV02mVn0ccwgF0t+njYsQDPXUIB9B9Z5rOg7ys/OQbAeTCeTo4pkvcx5hDOIBcuS7V+tSJOx/C/eHvAOTNpqZzJwMjU74NQC5taDoO4QCisKPpfN509dxfAci7tVJNsfjkIVyvbwIQhD1N5xZvyl/5IAABeVt5IV44hAOIQH+lR8H48BDuB78CINSmn+oYfzlwCAcQeNP3xcwhnEM4gCiafilpxT6E2/MLAGJp+oGuFfYQbs4HAIiq6dPiVjjPRv/09AFiMzFZXpe4Ijmqnnn2ALE2fUnninIIlz3x4gGibvqh2kVvt77mrQMUoOlXkucQDoDw9U6Wd3Uv0kO45JUHDlCspl+oX3Quq6veNkDxmt7YkkCHcACE7zhL5oUwDlf1HQ8aoMC2s2RGDSM4hNv2lgE0XdMDP4R77RUD8N5clqwIY5j2HcIB8L9Nv1HH4A7hmsMO4QD4m6kseaeRQR3CbXi1AHy06UPNWaEM5BAufe7BAnCr5VTT82+m8chTBeAzFtPmgmbm+hBu0SsFQNOD9tghHPDvdu00p60zDMOwjl05CNd4CMHYJpDS1sRSA4TBRQxJIBWDiIJKSKugCjV/EnUR3UD20E1U6mq6mapSVEVpBmwfn/G6lvB9r3T/eWAQa63GnHwmzb4hHAADO9F0QzgAMuG01bghpAkZwr12jwAM7yqoVuQ0bsflVacIwIguND1W3VlDOADC0df0uKzU+u4PgPBsanoMqrcM4QAI205QldgI9eovHR0AY7Gu6VGZCJ64NwDGZy+4VFtDOAAyYKp0pLljHcJdODIAImr6hPCOawj3wH0BEGXTH6pv+EO4KZcFQPRNP9PgEB0Fdx0VADE1/UCIwxrCOScAYm36V3I8qo3Sry4JgLh9U9zQ5OFVpg3hAEiG2/PFFWUeylb9jfsBIFFN35fnQV02DeEASGDTzzXaEA6A9JucL+4q9bUcll64FwAS3fSncv0ZbUM4AFLR9B9E+1NDuN8cCQCp8LhT2FLuD7rZXHAfAKSq6T35fs8dQzgA0me7U1gU8XeHcKeOAoC0Nv2+kr8dwk26BwDSa6lTeJX7nP9U/NolAKDphnAAkAQLndk7eR3C/ej7AciQ1Vajm7ucPyobwgGg6YZwAJBIy63GvbwM4fZ8NwAZtpaHpt9sLvlpALLupNWYy/QQ7md/DICmp9tB+cT3ApAjp81q2xAOANLvIqhWMpTz3dq6PwUgn/qZabohHAD5tpmBpn9beOYjAci9naCa5pyfldf8IQD8az2tTW9Pd770fQDwn70UNv28tuPjAOA9U6WjdA3htv0ZAHy46RNpGcI991sA8KmmHxvCAUAmmn5mCAcAmWj6gSEcAGSi6Y+SN4RrfedjAGDQptcOE1TzxfoXvgQAhnF7vriRjJw/LC/7DgAYpekrcdf8RmPGEA4ARm/6fow5369t+gMACMPkfPHcEA4AMtH03eiHcK89PACE3/SnEeb82BAOAMbU9JnCliEcAKTf406hN+6cr9T6HhoAxmy7U1gcY86rtwzhACCqpt8fS8179ZdeFwCiszSGpk8ETzwsAETf9Ffh1bw7awgHAPFY6BT+DGkId+E1ASA+37ca3dGHcA88JADEbHWkpvfqU54QABJhudW4N1TOj4K7Xg8AkmNt8KZ3Z2e8GwAksOlz18/5Ru3KkwFAIp1cs+mVaUM4AEiy09Z0+zM53zKEA4DkuwqqlY/n/LJpCAcA6dD/SNMN4QAgXTb/3/TD0gvvAgBps/Nu09uGcACQVutB9e0Q7o3HAIAU+/3vP375a8k75Mw/l0sCXWypp5sAAAAASUVORK5CYII=;fillColor=none;aspect=fixed;" parent="1" vertex="1">
                    <mxGeometry x="1383.27" y="898.97" width="28.3464" height="28.32" as="geometry"/>
                </mxCell>
                <mxCell id="wynJoZTQOHE1wt2AJN_e-77" value="" style="shape=image;html=1;verticalLabelPosition=bottom;verticalAlign=top;imageAspect=0;image=data:image/png,iVBORw0KGgoAAAANSUhEUgAAAQAAAAEACAYAAABccqhmAAAABGdBTUEAALGPC/xhBQAAACBjSFJNAAB6JgAAgIQAAPoAAACA6AAAdTAAAOpgAAA6mAAAF3CculE8AAAABmJLR0QAAAAAAAD5Q7t/AAAAB3RJTUUH4gsDEzsBp+hMUQAAL21JREFUeNrtnXmYZVV16H9rn3Nr6oZGBgUFwQEEu6oZFRGNPqEZNYyihsQYP5OYGDWJQ/Lyomje05gYTZ7miz6HOEFU6CrEka5C4gCKAzJU0yICCijzDNXVVfecvd4fe+97T1VXd1d317m3qlm/76vv3rrDGfbde+21114DGIZhGIZhGIZhGIZhGIZhGIZhGIZhGIZhGIZhGIZhGIZhGIZhGIZhGIZhGIZhGIZhGIZhGIZhGIZhGIZhGIZhGIZhGIZhGIZhGIZhGIZhGIZhGIZhGIZhGIZhGIZhGIZhGIZhGIZhGIZhGIZhGIZhGIZhGIZhGIZhGIZhGIZhGIZhGIZhGIZhGIZhGIZhGIZhGIZhGIZhGIZhGIZhGIZhGIZhGIZhGIZhGIZhGIZhGIZhGIZhGIZhGIZhGIZhGIZhGIZhGIZhGIZhGIZhGIZhGIZhGIZhGIZhGIZhGIZhGIZhGIZhGE8YpNsXYCws+3z1/7Fn/56IgkcRcaCKSvun9urJJaNZFjgEEWHdiWd1+9KNLmACYAly3nnnMXzsKpzLwAlaluENESH8pukPQDdzmNnvK6oqoL2NjKnCo14ZP+HMbt/uoubQb3wZUQ+AzzO8OAqB5T05DSfc/tAEvz3t97p9mZvFBMAS4IhLLqI5kKEiTA4U9E9kSBjsjvAbevXei7gd+0VVwTmHqiMIBC/qtdm3O/nUwyiwbvUTRyAMjg3jEK4/7GiGrr0KkKqQZY7HuagIWBRUBehr9DFZTCHec/0J3dO+TAAsUgYvvQjJMsQJvlREkKDPI1mWlWVZzpjZy2aRZXn2FESeBuwHPA3YC9gDWAb0E4UFMAk8BtwH3AXcBnobqncgbrJ1UFUQyeI/3uNUAFFPUSo/P2nnWTYMrl2Dc47r9zuDoduHQRypveOf0miUTE+DbN+wUVW0KHCNRtY6pqpHUERBBfWwroNalwmARcbg2EicZAiTReiEoFqmjidOUO/3AzkcODL+HUQY9APbeWoP3AncCPwQ+B6qP0bk0Xh+EMkBry7zPmuQTU9Slsr6JSgIVo5dhJAhztF85r40br49Dfig/ZRlSZbN/JJzUJbLEdkL2BvYkyBkVwDLgV7SwA5CdgJ4gCBo71TVu9atPvO+ocsubh1SVZGWkMVTFNr7y3uYOviplL5k/YmvrLUdTAAsAlZe+mVc1qDZMwBa0iimHeDU+0JcGP+oDiByDHAK8DvAINA3x+GUMJirGoJs5nPpvbScmM29wH8DF6L+W4ibRAEhC98XL9EG0TMxzdWnv7rbTblFDvz8x+nb58ngXBil3re0Kt8sCtfI2x9uNjMa+QEgzwUOA1YCzwb2BXYHGttxCY8CvwF+DlwNXKmq14nII8AMjUtVyyDvBVWtbellAqCLDI4NIwjqPX56I1n/sqhyagmClj6XzL0MeDVwErDPrEOUEIfkpsa/7aEqPNJsmLgTOB/lEwi3xNfyqJkoUGtH3RFWjg3j0m4IIHGmrwrYO75zJfu99NhBgnB9EXAU8Ewg28xhddbf5tiSgAW4H/gBcAmq30TkboDevgGmNm7Iqpof3jO+wPYCEwBdYOXoCE5gYLdd2fjY43ivaa0ZzPmqByDyh8BrCZ0w4eNfdW1aJ0kgQHsglMAXgfcDP09LA/W+EBEQyArl2kWwLGgtp4J4EkSciPOqPrzifa84dyxwBnA8cPAch0ltPlvAbk/bzxYas4XsBPBN4FPOuVHvPZQFZHnmvS/T0lBUF0wQmADoMLPW+C7+E/fxOAL4K+BVtFXM6ozczd9L43VW9GQ+juq7ELkfEYdXkCAwRJXru6QNDI0Og3MoShBJkqXZXkRQ1SOBc4GzgKfP+nrBwmlU823X2UIW4Drgw9kjd3++XLE3zjnx3guCF3H4ssQ/VLD+nHN26OQmADrEyrERnEhY50EwqKkWUb07FDiPMBMlCjadIRYLBW1B8DDwTkQ+ifcgkotzhS+aII4BgR8f3xlBMDg6XBGugGu3sZZlLln2SuDPCSp+oqpVdbutkzCoLhluBN4jIl/W0HdyVS2DXiNB0O7AroEJgA4wNDoMWZYGf9bo6y+bGydBdR9E3g+8Ln40dYBuz/bzpSoIxlB9PSK/ATJV9QKKCE49162ub0kwOHYxguKW9eEnp0E1k96eUqemUfU9Iu4NwNtoL6eSNpO24xYjSTCl9v0eqm9F5FrfLHCNPIv3sEO2l8V68zsFq8bWoBIGvqoizuWoFpJlqPd/DfwDYY8e2h1yqVFdGkwQhNmaRk8vzakpl5YElCXjJ5694CdP6n5lnZ8BhTiHev+HwHuB/ePH01JrKbVzWgKma35/3t/7v4rJKYBc8kah01MgQjGt/PzUbRO0JgBqYtXoMNrawsPhBFQ9qkOIfAp4fvxodRZdylTv44OIvDMuCRwhLAHRhfV6GxobIQpTgAzvyygMjkH4CMGSn65tMaj4O0J1grgG1dcg8guQ1ADBAOOVG06cvzZgAqAGhsZG4qwUVH5USxFBg4Hvw/FjBYtbBd0ekjHLAZcMXHP76RsO2w+QDAmzb1lMs/6kV+3QSYbGLiKNhZZmBYWUZa9m2YeAN8WP7gwDv0pV2yqBPwQucI2G+OlpQcQDNMuCG+fpQLQzdb5FwdDYCMVDE+R77gJec6DA++U490Xg5fFjS1Xdny9Nwi7GlVr6l+FkOnq7BRW82WT85O2zXg9dugby6IekiLhMVL2Ps/4XgGfRtqXsrG1c7T//IsI7tFSCs0MUwvP0GdhZJOOiYGhsJMTT7NLfHvyqQzi3jjD4C2au53ZWGgQhcKxk7ntalMFhSHEokG/fimdwbRr8AJJpwAPvQPgBYfCnbbyduY2jBMQDb1dlWFasCEvMdN/OsXLtl7d6INMAFoihsREgenNmkqGUwCuArxAE7c6y1t8WkiZwOc4dR1GkaDoFGN8Gy/Xg6AjiWt01R7XwzWbmenq+CCR9d2fXrOYi9avvlEWxOsuygqRtKeRFyTUnb974ahrAAjA01gruEMmci4P/jcBXCW0824HmiULSBF6G958jy8A5QRXJMgaj0Nwag2OzBj8UCnu5np6rCYP/iaJZzUVOaOOXZnn+XaabwX0YHAJFY8tD3ATADhJmfgWQ2Lk98DfAx+JHdua16HxoEAboa1F9O6oe53L1HhHhBV/74ha/PFT1nIyDH9Vnici1BAeqZnz9iazNJkH7Qnp71kpPA/Xeoyqqbe10LkwA7ABDYyPtKJCQSMMD7wY+wEwX3ic6SQB+kOCFl3ZAmOjv3eyXhsYursbep8H/XER+Cjw1Hmd7ovJ2RpIQOE6bxRfEOcQFtUl6e1k1Njznl6xzbieDYyNM3HZ7SMclktSudxIcT6rBI0Y10AnOV+/7VLVEVfK+ZQyt3XSGGhxdU229NPgPRuSHwG48MW0qWyNpW78P/C9V9SKSa7OJimPVpWs2+YIJgO1gcDSopcuecQAuz9Oe7BuBf2JmeK7RJiN0zv3FuQ+HyEHJio0bNumFh1zyOcRlM7+n+nRErgB2xQb/lkg7BP+HEOFYoJoDaLbpcDcBsI0c9s0L2wYpjVt9YYvvY5WP2eCfm5zQOf8MeCGVpcBgRUXNB3ZNTx2qpaquQOS7hPRmNvi3TGuXBTgf1V1RLVAV9Z7B0YtnfNgEwDZS9rSWnFEtZRVhqw/aqr+xeZK34IdwgmQuhA/HrtgyqoYO66WvDxH5FnAANvjnS9p2fgoi/4E4cM653j5k1oivpbOuvOQCQFA8bgnJGAHuncy554Fejtz/ca5++bkz3m9ZU0UcIavELiJyAyEJ52Lbg56dpWYxCabUVq8BvkR0l1ZVXJbhyxKXZS46+XyW4PKafAqM+ZMiS08ERqm087roJbig0nRw5pbNkvTBfvIyyifv6XV6Vm7NlaPDaJ4hRYnPnbpSEdU1hMHf7ZkpZZipxpLLHJ/ZXLqvTpOu7e+zXZd9aequ+8p8oB9xruXbr6oF8FbC4F8s1v5qG86V6iu9p2z+d+gGH6LRGNKJiVIaDVp5Jhfy4obGRqpbNm2f5KWJADp+fMjPMTg6HBotrK7Suv9dhHDebg7+2THjVaaBqfi8F+iZ4zPdDJZJWsCrgAvj87L1qByNcFX8bBpQ3WBHE4Z0OwQ59c83AJ8mLV1jePaCdNxDR0fw7cGffsCDEH6PtlVysaOEgfIx4DYqxpRKlplkkX4xIv9Qud9OU426c4TB/lPg+8DPgFtAH0CZBASRfkIK62cTQmRfTEglnn7/ki0nrqyTt5JlF/qeRuk2TAavSdV+nPtS5do63caztanULvfG9r2akKnnt8AjtJcnKwip2Z9LCPc+Kr6W6Ma9pGv/W202PyPBVVjIsui9tgBUZv84+HVfRNbNuvmlwDSq+wH3gsj46jN0aHQYdl0Oj00IoOq1RzL3c0J2mU7/oLOTQ1wPfAb4ioj8WrUqZ+OkOcfcGfPiHURwo30dQTBA/dpMNV15u91Uj0LkatrOLJ8jJETthnY1+5w3Al8Dvo7qta06CVsj1GvaE5HjgD8irMNTG0BnhW3qp+cC/0UKUW/qwlxEzAktqlq6PAOREcLgn4oNutj/kqr8SkTuRSRHYkd1DiYmg7OPCJK5DxEGf2sLq0MkdT0DrgJe4Vx2KPBvwK8JXS6P77ezBsuMWSwD8lhW7Cbgfa4oDyY4jvyCdsdfqOVbil8v4v/pGpJWeAvwv1G9PiYOaQKnEwZ/p+Mnkqqex/v/EnBcc/imQwgOXt8j5PV3lXZObV1t3yy+7wgpv78MnAR6BHBJ5bPFvK5qYflzgv+FB9CGLKAUciLiBF+UnwSeFxuxNzbGYv4jXueXQL4KkuW9ywqYsSWVnFiOAf4ivNixzpnU0ZyQm/9cce4Y4OsuhNXmgHjvVdUVQKmqft97HtLx48/Q8ePPUGl6H3ctysK5IpYVc0CuTkrggkdGf3Aw8J70a9IeENt6rWnAJ90jDQiAXxFmoD8GBosNGw8E3q1Ck+C7vpy2P0Wn1vzKTGH+aVQPIexQXJ7/7rNSG4fkLap+/PgzCqDE+3L5g00/fvwZvrn+Rh8s7JQDA2WB17SEyEAykGsIwu3l8XdMtqROkO7tWFSPiOWInIgs0BLgsouTAecU4BvABmbOjnPlUt/a89nXVmeHuBHVY4EHEZx67wVHTONF1r8rfnoD6sufEtbOnVL9q+f5FN7/Jc5NxBTRTmPRCIFtKhrRWrIF1S3k9W8WhTRyUI5H+Bqh6tDW7rO6+zCXkexu4EfA5SjfUy1vEJc1W18uPZK5lBWpAD4CvJnOqf7pugGuQHkLwjXx/5hyiDKW7QsvapNrT9h6MpNgOI4puk44i6HLLnahCgwl6ndB3IWEYi+d6kupTf+ZEKyWO6VYKAGQnq4Adks1jsJLGlKza2zCZFELH2kPdo2P1e+EJI+V12c8bq5C67a+l6E6jsgG0u6Faswp70BakvoNwCfpXOdM55kE/gAYrhbhiNVCUS1Zd8L2JdtcNTaMxlJ4BGNhCi09AriSuYXA3Ov4wCMEI9nlwHdU9VoReTy9qd4jruXjGwtjtrLYHB6/2ymq9/VOEflgSrsNeBHxOEGLEo9yw3ZmNR4cW4OQoapkjQxf+pCqPKSM+wRBG+qEEEjCbn35g2tWuqMGkUa+YBoAzHBBrFqeKsYoqnKh8nwuOrnxE66ltXXpkwNTEFoKDCByE8HCW5016iIN/ptRPRGRW5ldhsvrglWRHRobQfr60ekpUI2GOD0W5Ir4kSbtNW6VKWAc+C5wuar+RJy7L9U+CHv6koX6HHhUVRHtp2Cj5FCWkOcpivJbdG5GTO37AKqnIXKlZJloWTqglCxHiyZaeNadvH3CddM2jhWHQ8u45saNvtE3AOgnCZNLJw2ehwPXEixcC4bGH17iyJbKc4fgKtVXZz6f60/Y8vsL+Rc0kVYutdxHyRMNf4i8mTD4kyGuTlJH+BHeHwbcCjRclhWqqqjSmJha0BLS46vPhI0b0j3HLS25knahkgZtw916gib0alSfg3PPA95OKGl1H20jmRMQLX05VZSFhozIum71GUwVsUBKlmVx8K8mDP5O5E5I7fsrVT0MkSuBhhZNjRGd+OkpxlefuWCDP7TxWaHMV5gJfaO3z5UbN4LIHxO89DphE0jHf2l8dJ2aY5cUg5ddjMTZX2G5iPySUA66br0kdc6rimbx4jzPiqiWF2FXqd7im0OjI5DHDQTvk11nNaGE1k+AK3Y/aPAXD960LnxBFfJcKMss/udFg8W0lJAbZd0cqnPLuOoyh+JBvwO8hPpn/3T8X6vqUQIPINJApIlIqF1Qczmz4DMDsRs5UI+yAic3EvpYnRpmuv+LgTOBTCAmtvBlWIi7Rto62plRhygIpZYzBtXg6AjqBNeWyG8B/i/1q2jpx/kF6g8HmaSSSXchVf4tMTQ2gj7+OLJiBXi/iUenLwpc3srMGdX6DMQj6ln2yEauOvvczR7/KWs/z54ygHNZurf/QbAZ1L20Ssd/CNVDQe6o2HdQ71v+8XWzcjRWKw6jLF3D7xK2Cetsh3TsW7T0B4tI4UImW8+D3/gEZI2UzN7v5H8aNs1lDicZEAVf+mLjho1CCF2lxh8F2s49E6iehMhknPmDSlr6jgx+CMsBWb483rFLHablX+CyjKLpSxEpVVWDVnIa644/g/HVZ21x8AM8xS1PLZ1e+qtKG9TZvi4+Ox2RO5BW8owoXDtXzfiGE86C6eB6kg30hiSewleBr7P9W7DzITX6/pK5/XBCLi5DpMEev/umoI4ENWR3lrYv/5ZwwGOq3FHiNxEA00VJTyPPJHNl30DfqYSS0XWrpmlp8VpEfk3bIw71JTfUUFJrS4yvPjNsY4V/vQreNwtwocDRz0+eX9GJufAIzmUOtIwZflKthLpV/xz4O4TvAQ2EZnDx6IxmNZvxU1/N0OgI5eOTVVPcewl+AnVNNsnWlQPPAH6Vq3pQ397qEvl45QJ2tqVAmtFuVfwhHqbjPqNCiGac6U7bKtpZJ2lp8TlgBMhdnjV9UYLqvLf4Dl77BRpu2YzNloX68QRwjXYw3qp5ZvOd+1iKJ+64iLyWtg9AXcurNPivEpF/dC6Tomg2ncvQsuzK4E+Mn3AmQ2MjNKc3lI2eAUeI5xgj2F3qmnRSB382cHnyhktebp+sfGhnG/xVrlGRacBJsEK3cOIkWoOfisjJ6eWariN5FD6iqm+HYH4rp5qIk3kbpFrRiuH7EndcfOEconVq1ttzxyr5XXcXzT32yLJGnjxq6lxeRdVf36pAWRZOoNSyZLyLg791caUnz/ugPd7+kyAA6iJ1iP0ActACZRdELopvTLG4ElvMh/kKq5IQFvvlub5XqpIH60xJ2JYaoF71P81O7xeR+0nC2M2/aMbR3zyfDW0V0kXnmhJAVBFVVBaRLHdOy72fQqb6IkIln05Yvb+AyI+BHJEClPHjuz/4Aa476ezgRxN2QwBGEXkIeBL1TMTpePsA5Nx3Pex16GWEfW4IfvE7KxlwP6prQ1OIr86PLgyU9NIZ23bobSbN/vegmvzfS0Rgujnvg2xotBKXJIv97sC7UT3SqTogbWkuJpqIHBCf13ltqYLoB+L/ftnuezDxwP3dvv8ZqI+1zTNxKA8Sgr1Opl6/iD0BcvZctRshIcOXKm9qFx9nx7Qu5DXlqF4dQzoFRCWuAFaNjoT6ymFJsBsix8Tv1Tk75cBnEXmMdupr1p06v+q5g99agzpBvCZPuwGcuwI4pKZrXmjqXGqm2X8EkfVAhrjy8Qfur9WXYntYd8KZnHbDMLfe1fJGvZIgAOpYv6X2XoGEnbCHgQ91uxE6Rju2QIFWvXovIME7sSREM+5BveppMnp9Pj562LZ6eZK7sGkb/AUKRN5NGPxTLI4UWpsjbcvVOfunY38ivZAt24Xi8Ye7fe9zcuudrh0RA9fFxzptIwOIkEcZvJB16heZ1WnO6wvx0FrZbp0ZnPSi+FiXAEjH/ZE4WU9wmd2mbdeXXnghD4RIQCHkz3tqdFmGYOdYbGp/J2k5vEizuEydAydl+djDi272n3XJaezcER/rFAC9eaNBHmecuhwPlgyhUAU+iq/np5drOl3qoJfG9V8GUpTbsPZ/cLfWrlkWDFu8jWC07HaC0sVAat+vaSMvgVzEFb7sRg6O+TG++qx2VK3qI4Rdqh7qWyZlt77nou51lOAOWbkv6YDiUNBy9Zsjdl7w6lH6cLIyvlaXBE7H/W58VATWn7r1OPOEz1pr/wLYB5E/jW8ttR2cOkjt+/X4qNVU2IsYjQr0BCEMvGfHDrflcz31s2/qjgA49NKL8GnrSuO+NZnWt3qIS/5co5FxDoHarlu/L6HwZF2k9e9jqro+hOHj/TasAIZGR2au/UMSjWXY7A/t9r0f1avja37xr0zT1QugKVVdnTSzm+/pTmfxWZyktGWMK+t3BW8hs1947uia9DoIBxBm0brW/0mlu52e3ntkcgLyht6wLbOTk7S1VwC7I/LG+I7N/u2ts2tw8jCIo/R+Q/PxHTxshwg26l2A5Tt4pK0xKb7ovABYOTrMMZ+6kB++4ZwUbrtCkI+C7k/wf1/o9U61iMObgRuYVbfAx3zfkf0r36uDdNzbpDkNeSMlxJgXoYaeVmf/PyE4jdjsH0jte230i3ZTeelvOeG13b6uLTI0OgLtyWkvgj9OHev/1D6PQRc6jBPHD/7k1UhwUiklhNr+QYdOfyhBAMxoVElzfyA5RNWtM96VTo+f/6mklanIFwJ9Ku5N8S2b/QPpd/xlfNRev/jlorgZa9NnxMc6HYEeQLULM4aAxJwRqB6JSKr7NutTC4onGFTunOvNTLPqHuyTa26BdJ4H0r1qNr/bHRyNiTREMpBCg+DcF5v9q6TGvLv1wrbtsHaFCXIGKNO1JyN0HZNQOuZd0I1KMArZQH8pWQYiyQW2MetvoVN/J2vqo+2raCMz/92t9XK9TKYn049OzOsLadOkOb6uoKcHwpIGlmANxg7QatQp5r+92g0OHr2I5b4I29CB58XHOvvgbdCNWUOQcsOkEopr9BK8nmQef2zl/819BkJ221tU9eZgY5m556gz86PPrApaHy3fi1sP3HerHz7sWxdRqoJzWWNosGR6+hXAEIuvKvFiofUbu+ZidoqEhmR4RGItgeWIHJkuvYbTpWPeAl0QAJW9vlvFuUOdc6EIW+YQgTzPkRW78NNDXshzvvhxenfbQ1Q96pwAIs6hMW24pMo3ChrqXSGVVOOVvMNu+pGJiZ7dliejyibbApXXOtVbWnu8h9z9IONb+XDRyJBS28JL9S0dus6lyrL0pLG4x3+agFIU6vOoNzdgygPfHQEQClLEqlt9fdx3/Ti7P3lPNGugeU7hHPLwo6y89KLwUZcp6lqJxZHqRN9+KrEhZ5yq8ryxvD+9tMm6Sjc5WkfYvXX6eaz0SiDPXNoxOBw4Pr5ls/9MNrHl+AVNfr2wrBwbTk9Tv0v7wXUIgNTVf6Oq3VkCVA0yfmKCPZ71zPZ71c+1nmxa2VKq83jrUULyC6m+0b5vCdVQQ+eYZRSSmaese8GYzrNfvB/VecgcH0RA+mDa9zfj36ZUM94ASLaIbYCV+hNFjOZMYeh1CPa0q7BORKYA1/HOswBpl2uwjM4QGBtqboJ0ogP9xsdFevq9iOO5Y8Os30L1mR4yQbVUdEDEnRJfttl/U1L7Hhb/9V48B49exI0nbH8uwzoYmu3TIXIOwQu17nRgV8bHRawbdZBZM/AjrZfrIZ3sWa5v+QHiMhBx2Va1AEn5vpbRVm/Lmv+WiP/sDFKfPhzV5aj3IJLL4pKVh6+9ECSEc994xVVFb18vwF/Ht+tahqZGaMWgmAAAoiNOavT7aj6bEAZXg3bYsWQDu/D0r1+w2S+FqlrO4dx9wGfjy9Uy1XX8zWkzWeSkzLd7I/KCmB3VOSecd9553b62Fs2ofIuT/OAXvYCpjVN/RHtXp04X9N/g/U9RD6pLwEWqA0QrbOroyVmoE8bAs4AvACxr9FP29m/5096rAs65P1XVCwjr3FpCRYGHgXcAR9GZeogLSfotXwNcRnT1GH7Rod2+LiAWX4ll9DRUfdoFkZS2rM6iIBlwGc5tBLLMlWWnLN6LmpWjIzjXqsJzEqFQZZ2dPknjadCDCE4ZDpyXwnP9SZvaSYYqqbhdo4Ev6g4W08NAfkq7JuBS6ivpeh9D9dnAvYDgRJvNkhtP6mydhSqDYyOIc4wfdy5D374gi1lpPkNIQV+nUTf155cD3wCywmflUpLqtbHXlddBmjXi9gj1zngpkq8H5M+i35IDRTe3VC3L1hD0zWa6voVW+RvSbILXFSDfoh0VuZQGf7V9d0HkzbHAa4ZCI+telx8aXROizlUZuuz8Rhz8v08Y/KlgRx2kEOnb1fvLUA3qvyuW3A9bG0NjI2m9uwuhGOhTqHfmS8fegOqBhKVHTOsdq8l25L4vhmYT8ixV6y0JSWJfydLeZkztO4nqQcBvqESB1l0EdDaDoyNIuxZvqPwUYmF+wsxN7TpIv+M/AX9LSkBb+iW1rqsbxTnBuceoRJLVeL5kDBxA5F8QAScihx8BLmNwdHhHj79VBsdG2Ougp+GW9YNzaUb6S8LgT1mLlyqpffsR+ShOwDnBe8jyGUuquhkaG0Hamkca/M9EZLRynXVOxjkha/Sn0+wPMH7iWSYAEk1KUM2il2Ilk0ytJBX7NcC5KKVed20DBXGOobqEwIUXhgGgyh0/WodvFqkW4RnAv8ZP1V0MtRO7C8muczrKG1EtybIG6sG52oXAcy69qHUOH4qBpsH/LER+QPAG7URJdIBhRH6JSMYdd/qWN26tLbCE6JMGtDvlFfGxE0ukdI7PoroKaIIG7/Vs4TvpyrXDDD0pHF5EpG/3J+XhnLycUJsQ6l33VxO0dEIIpD7+MUIp8iaqDUFoTk0wWJMQGBobpifPW2noXU9vFs7N0YhcTVhiFtTvzJXu/4PxUf3ue6IbNgJLz7hTG4NjIyGQSGNeQOEmoJ/OWMDTLHA/qs9LFYL7D39Oc/JnN4bTq+5wLbvBsRGcc2kLKpNG7rVZKCGvQLU+Qd316a+N/x9W8/lmn7eJ8mKEHwGNmE5dU3zKQtgFhtauCf51CjRL6M1zVIsoCF4PfDp+tBNRnO3iKGHLObv/wKPKPW/6SeteTQBEnju6hlwc6lwwFKl+F/gdOhduWxUCxyFyPe0tOC8C3islnp+v3rZtrKHR4ZbTp6qKtF1PQfV9wN/Fj9Y9GNM9HgccCfwznTM0pnOXwGnAN1yWiS9Lh0hZbpgg6+tHvbLuxG03wB76rYvweR7iTBo5eJ8hoqh6VJfHqtvndqidZ6IMIawjVEfwpQgpB6UJgAqHjl2Ml1a15LcB/0JnLeGpkzYJW0P/FfWPHPDi1YsPKcEV3WKRi6HRYVQczbIkdw4XcrBnqlqErSieifCfwEtoq+J19od0bz8EXggcTaiB10kfg+rAew8i741r4QxAvS+RmCDaz5k6fhOiDwmgqbZMmizKKGDPIaS925u2l18n7jf1238nJI7JBQqdVRjVBECFWJghagA8My4DOu1EXtU4LkT1HYjcDoCII+RS9IQe1/Jh9nEcVaIo0zrbhYIn6mPpw2Ui7m3A3xOMUp0ScGmgH4NyVTbQSzk59TNCaHMnZ8Tqua4C3gr8GEDyXLQogmE2tK16L7hcoYQpX9Cb5WjI406WysyFtnZ33H17sd/eT493q0cj8j6CtkMH27l6j/fGLeZHCREnSlm0yuHRwUZfEmh7i8Qh3AqsjW91snJSS+0HzkHkJuDfQJ8D6gkdyaOqsvuu4JxTkUzEZSKS4cRl/QPxZqh8nqcDfy/ibgbeSxj8ndrqKwiD/+PAVQi95eQUwOfi+50M2E19vgBeAPyI4PfwwthmrfZFnHMZOSo5TrLevJEhkklIzZATloutdj5o/4MgDPivInJVfF5Sr5PPXCSN7i2IPIpIjoiqL2cMfjANYBNWjY6gbbfg04Cv0L20W9XzKvDfwFeBK1T1ZsmzRyg33VGTLEOLYldEnk1Qt08lWMBT6fdkfe7E759moztRfQ7wONVS5iK3EPIwdsPdeLZK/jPgImCtluUNkmXTW/x2MMz0IzIEnAKczcyEnnVm9d0cSdO4EHgVItlDV3+nfNIRL0G8NwGwNYbGLgaUYnIj/fs+jeaDD64j/KjdCoiJhVM2mUHuI3gP3kNQ8abjZ3YlbDHtS8gvX6WTAz+R2u1U4JvQsrGkx38mBB110+twrrX5r4F1wC8IxTofIthmegj79/sDBxP6RjWpY1iedWfCSG19l6oeLPBocDH3XoF1c3iXmgCYxcrREWL2wdRBX0cI1lgMbrEpRn9briOp350yPlVpEpYaHwXeApLhpIwZmSSq3PtE1+tldD/oyLN96noS0o7uLaurbfc7wPdJQnYLW5xmA5jFDSecSdx3L2RqEu1f9lnCTBDcKbtLRrtzJhVzrkQeaRaCds6ATg+sgjD4f5Yv73uLlh7Ue6anUk5IjWvTu4APxe90u0q1Y2b7lvE+Cma2b/W1NPByujueUtu9jdbglwK2XBfBBMCchAbT3v5MJiegvU++mJJjpFl9rqi+bsz2VdIs+piqnl48thHJXIagZDlTG6NSolqqKur9PwK3sziEbEJoC9zZiVeqry0GLboZr+cziHwYEafeF+IceOX6EzfvN2ICYA5SJJ5unExq3deASwg/+OItMr84SKGnAGeLyB3Rj6EEQbTkplecEzY0RFREMgkJKt5a+b4xf9Iy67/VuddTFOB9yJJfFlv1HjUBsBkURXr70j+g+iZCtZkc66RbIs3gfw6MUlFFtSi5PibmTGtS7e0tY1LMrwAXYEJ2W0iDfxzvT5HSQ5alrcl5uTabANgM61aflZQ7j5Aj8lva6bgXi5q62Ei7DP9ECL7JtCwKyRuoKutmZeJR9cjkJHjvY5jqnxIs7lFjMLZAsrHciupLEbcRidGlIvjm/LqoCYAtoLFqr1vWnzr2+cCnaLvrGm3SLsknQf5WXCaoenEZ2pya0205CFkJ1Y5EMkQmUE17VckhytiUtOb/FarHAA+2l1lQ+pIbTplfvIgJgC2w7oSzEFX84xtA1av39O7ztD8muI4mN1qjPfgvUJE/YeMGtAxaP2xFFW23YPB1CBlyXh9f61TegKVEUvt/qapHg9xb2bKG0rP+hPkHi5kA2ArXr47bgqDinJu68zegegrwW9rOLE9Uqk5Kn0Xk912zgN6+sA4VWF5uuXnGTz6TGEWDW7E8aVqfAf6BSgovA2ir/T9B9ShB7qMdvIaqZ3wbIxlNAMyDqaK1HPVx7/oBVF9CSJ39RBUCaWBmhIizP/JlgWauPWi98sOTztnqgcZXnwne4x96NBoGxAHnERyIklHwiawJVB2ULimmpl8APBrX/GHwe53T029rmACYBzedfHa1elBQd0VuQfVYQiWhJ5oQqLrO/k/gzVmjBydOEPEAU83mvMJpE+Orz0zZcxTvNRtYDiJvAf6Dtn/AE1EIFLQ9DD+IyOlZT8PHnZMSgn/Vuu1MFmMCYJ6sW30GWrY0gSQE1qP6POBuQid9IhgGm7Rn5XOADyDiyukpSaXLJx+f5KZTXrXNBz7ziuvSzouWE4/J0192GghvIuwqJKebJ8qSIEUm5oQ4j1cB7yRrSCglHga/98q6bRC0s1kMXkxLilWjw2i7pGIe00o9GZExYBXdCbjpBNUgl1+Cng6yHsjxPqW8wnvPDSfO3wg1m0PWDpO7SlaDPENLr4SkFh+Jry+GuIw6qUaB/hjl9xBuAbIYrh4UUtUdTh+/s3XSjhDzB6Z/U471nMz9FyGlNnQvhLgOqgPuP6Uo36h5FrainBRMF5C5Bcu1PzS6JgSxBSTaBEpgNbCGEPG4Mwra2cFI7yFz76X0ADlZVjA9Dc6xwcMtJ+54e+9MjddRBkeHkbYmEApqOAHl7bQzsC71Tlpd698DvAkYjlb7sAYVQvqsBS60cfQ3z2dDIwYIeoXMpci2fRD5EiHiLV3jUhe0s0O+rwD9C5DreGwD7DLQWu8vVPLSxFLtmIuCoUvXhIo6EJQyJxKTQB6ByOdpJ4dYaiprMnakgfUJVX27iDxGSw0VRaL1eQezFW+JobERXG8D3yxA45Irc+D1b4B/ZGZhjaVm05o98H8LvAuRz8SIyTwWa1FEcKpct8CC1gTADnLo2hF8TAqJKrgwU+1+3GE8+O1r3wO8i/Z+drcSRcyX2QPpctB3glwdZ/1c8qzw02HJ37Oh4OrTtr7Nt6MMjY2kHQIAJ309XjdOg+ohiHwEOD6+V7WYL2Zmq/oPAv+K9x/CuclYwSgse0LWodpKmZkAWCCGxkZiPviQZVbLspQsA+VAhA8A6RdMcfzdDtlNzJUE4wrgfSJyaaohgOJDkW1ixtzO1tZbNTqCptZSwEnQBsKy62yC49Ah8ROzNZjFQJrtq0vCu4CPo/rviDyYhCxeY9VOAfXbtJ26rSyGDrjT0CoAGfJdCCn/fuBYQibekypf6Va2njToq7OlEvINfhQn38YrIuJUVRAppbcHndxIY1r52amdKVw6ZxuPVdpYg+uBqvry8cckW77L64C3A8+d1cbd0gqS1jd7eXI18AlUL0BkIr4W1X2pWPjrF7ImAGpgljaQBncZi2E9H/gLgkawrPK1NGtJ5W8hUGb61M+eFW8CvgxcAPIL0FRE06nXkCcfQfHb5WlWB6vWhq1YjQZCyVyG9yXOccBxx/Lrb195GiEc+XhmDry6BW7S7tJSr3qOuwg5Jc4XcVeqelozfjuzUMcGfsIEQE0MXroGyRyiyl73/IZ793l6u1IMoKp7i8jZBGeaFxB8vKukWTr9RrMfq+gcj1vq6OsJsfpfodn8Po1GdK6RLFjdfalx4DuvXLcdlXI6Qcs2EAtdIpKX09NF1tOTXj8otu/phEpEs6mm9JotdGe321xtXC2oMtdy4xbgcuArqH4HkQ2hlXPRsgg7R9F5SnXLhV7qwgRAzYQKPRJCixVc7sKgDD9+6qjPIKTtPg54PnAAC7drMAHcClxDWNtfWa7YdX32yKPh3dKnLTbvy8KjistyvGqrfNRip730agmCGcIW56D0hyCtNj6SkNV3a6RBPt/lw22EuoffBb6vpb9WMheWgO2tU0XVq8QiLr7eNf7WMAHQIQ4ZvZBccnx/g0eO3Z8nfftmAclExGvqqIAWRSZ5/gyCQetg4EDgaYRU37sCAwRtIe0sNIGNhNTgDxFShd9OmH1uQvUW6Wncpc12qII0C7SRh8xGqmVyatIOq58LzeDYGsCh3iMiSCjc4cgbJUWzHUfgfQ/iDkRYCQwBBxGE7lOAJ8U2ni2AJ2MbP0yw2t8V2/o24GbgF+L9Lepcq5aAekVcKhWmvi/PdLr0lF7xCus7bEidCxMAXWBodA24NBmABE+35Etb4jadcMQ5dHo6I8t6aWegDZV/vE7TyAv83OHzfsMG3MBAu8CIqm+4BqWWlOpZtqHkR6e9kp2JGY5aoZGTIVBRX1Y8DUP7iqCl70VYgcguBGHbT6gD8DCq9ys8UpbFRN7o8S1to3oM1VBURlO1NtW7b7xP9znkyXhVXAnXn9T9QT/jmrt9AU90Vl06jGYpxiUuQ9sCIToYiLpG5v3UdHU/vI2CDPShU9MO1cr34l/cy7tr4CH2nnwSWQHXLbKOWCfJVlAKZKrBaatdO1EAdc55X5ZhVMvcZpaQtUzJ8kzUa9W+EtsZVfWaFR7fyPHqF/0yygTAImRo7TBFBr9sTPKc6X5c9WcSZOaGeOu5ppccJaUEDd9PlKw/feea3XeUo795PhONfkB4oNHP7tOTwRwT4g5gU2NgEqSooBInf/Ue73J6nWd6uuSGk62dDcMwDMMwDMMwDMMwDMMwDMMwDMMwDMMwDMMwDMMwDMMwDMMwDMMwDMMwDMMwDMMwDMMwDMMwDMMwDMMwDMMwDMMwDMMwDMMwDMMwDMMwDMMwDMMwDMMwDMMwDMMwDMMwDMMwDMMwDMMwDMMwDMMwDMMwDMMwDMMwDMMwDMMwDMMwDMMwDMMwDMMwDMMwDMMwDMMwDMMwDMMwDMMwDMMwDMMwDMMwDMMwDMMwDMMwDMMwDMMwDMMwDMMwDMMwDMMwDMMwDMMwDMMwDMMwDMMwDMMwDMMwDMMwDMMwDMMwDMMwDMMwDMMwjMXI/wfkBlczO1SMogAAACV0RVh0ZGF0ZTpjcmVhdGUAMjAxOC0xMS0wNFQwMDowMjo0NC0wNDowMIhFAMgAAAAldEVYdGRhdGU6bW9kaWZ5ADIwMTgtMTEtMDNUMjM6NTk6MDEtMDQ6MDAHgJ6KAAAAAElFTkSuQmCC;fillColor=none;aspect=fixed;" parent="1" vertex="1">
                    <mxGeometry x="1440.83" y="897.3000000000001" width="28.3464" height="28.32" as="geometry"/>
                </mxCell>
                <mxCell id="wynJoZTQOHE1wt2AJN_e-78" value="" style="shape=image;html=1;verticalLabelPosition=bottom;verticalAlign=top;imageAspect=0;image=data:image/png,iVBORw0KGgoAAAANSUhEUgAAAQAAAAEACAYAAABccqhmAAAABGdBTUEAALGPC/xhBQAAACBjSFJNAAB6JgAAgIQAAPoAAACA6AAAdTAAAOpgAAA6mAAAF3CculE8AAAABmJLR0QAAAAAAAD5Q7t/AAAAB3RJTUUH4gofDBousHNBMQAAKUVJREFUeNrtnXecZFWZv59zbuXUYfIAkhckI8qiiIiioGvAwMq6u8IgsvpDiSaCLmYXRGF1RVRUFAxrBHWVqBIlSBwkIwgMk7q7uiuHe87vj1O3pxkBJ9Strq77Pp9Pt8NYc+vWqXu+5z3veYMqPvTmvwIjgI8gCFHBAyZiuMmfm+27EQSh92jWrfx2tm9GEISeEMx1X8/4SzXbdyUIQk+Ynut6c64iCMLcRgRAECKMCIAgRBgRAEGIMCIAghBhRAAEIcKIAAhChBEBEIQIIwIgCBFGBEAQIowIgCBEGBEAQYgwIgCCEGFEAAQhwogACEKEEQEQhAgjAiAIEUYEQBAijAiAIEQYEQBBiDAiAIIQYUQABCHCiAAIQoQRARCECCMCIAgRRgRAECKMCIAgRBgRAEGIMCIAghBhRAAEIcKIAAhChBEBEIQIIwIgCBFGBEAQIowIgCBEGBEAQYgwIgCCEGFEAAQhwogACEKEEQEQhAgjAiAIEUYEQBAijAiAIEQYEQBBiDAiAIIQYUQABCHCiAAIQoQRARCECCMCIAgRRgRAECKMCIAgRBgRAEGIMCIAghBhRAAEIcKIAAhChBEBEIQIIwIgCBFGBEAQIowIgCBEGBEAQYgwIgCCEGFEAAQhwogACEKEEQEQhAgjAiAIEUYEQBAijAiAIEQYEQBBiDAiAIIQYUQABCHCiAAIQoQRARCECCMCIAgRRgRAECKMCIAgRBgRAEGIMCIAghBhRAAEIcKIAAhChBEBEIQIIwIgCBFGBEAQIowIgCBEGBEAQYgwIgCCEGFEAAQhwogACEKEEQEQhAgjAiAIEUYEQBAijAiAIEQYEQBBiDAiAIIQYUQABCHCiAAIQoQRARCECCMCIAgRRgRAECKMCIAgRBgRAEGIMCIAghBhRAAEIcKIAAhChBEBEIQIIwIgCBFGBEAQIowIgCBEGBEAQYgwIgCCEGFEAAQhwsRm+wYEIWysXe9/O3+vFSi1Ya9VuNeu//q5jgjAAGFMuNfXc8heNMZNXq3A8yDmKTwPPE+5SWyh1bY0W3Z6sisFWis87V6nNdOv9Y17fbtt8X13baXc9ecyIgADRDaj8Dy1btnqMtW6CV1kNgdrwViIeW4s4jFFrWGZKhkmS23WjvusHmuzcnWbp9e0WbWmzcSkwRg3YFq7f5NKKfJZTSGnmTfisWh+jMULYyxdFGP+SIx8TuN50GpZGk1L25+7YiACMCBoDTf+qcZ40Q9FBCyWl+yRZiivaRtnEvcLxgAK0klFIqGYnDLcdnedm++occe9dVasalOqGKo1Q6tlp1/vaTfpA7M+sASMsdNignWTOx5X5DKaBfM8tt86wW7/kGSvXVNsv02C4YKm1bLU6u7fzSVLSRUfenMRGJrtGxE2HWshmVQsO3kFN95eI5fR06vaZtMxgY2BS768BXvsnKRat32x2hnjJmcuozHWct9DTa68vsJ1N1d59IkmjYYlFlPEY8806YNbt6yb9MFHnfmH9V/nG2i37bSIZNKKrbdM8NIXpTnoZVn22DlJIq4oV52lNAeEYFIsgEHBQjrtzNZs2k2IbmKMWzH7gUDb8llNs2X53U0VfvqbErfcWaNcMSQTimRSkU6q6ck78+d5hnC9PzwTrSCZUKSSCoUThEcfb3LfQw1+cOkke+6S4i2H5nn1/lkKOU2pYqb9EP2KCMAAYY1bmYy1Xd+rG/P8k6dX+L5bebWG391U4aKfTHL78hrWQiatGS5oTGei+yHc7/oikkwq0imFsXDb3XVuubPGLv+QZNnhw7z2FVmshWrN4nmzPXLPjgjAANEH8zO8z2YBBSNDmnsfavDViyb4/R8rgCKbcaaJMW5V7vV9BUKTzShA8eCjTT70mVVcdmWGk46Zx847JJgsmemjxH5CBEDoe3wDqYRz1n39+0W+8YMJyhVDPrdu4vcDwX2kkwpSiutuqXLnn+scv2yUI940RL1uaPv95Rvoo1sR+pnZsi583+31xyZ8PvDxlXzhgjGMgUJOu+1On0z+mZiO07SQ07R9+OR5aznj7NUY63wI/XTPIgADwiCa/75vGSpo7r6vzrIPruC6W6uMDHto3XtTf5Puv+M4HSlofvabEsedsZLJkk86pfrm/kUABoh+cNJ1Czf5PW64tcr7TnualWvaDOU9fN/Oqc8ZHB+ODnvceleN952+kjXjPpk+EQERAGHDsL2zMnwfCnmPP95e46RPrqLRtG7ChOHW7xFt3zJc8Lj/4QYf+PhKilM+6eTsbwdEAIQNpwfzzxjnTX/4sSYf/uwqWm1LItEfq+Xm0vYthbwTgRPPXEWlZkjEFd2K2doURACEDST8p9RaF3I7VTJ85HOrmZg0pPrMaba5+L5lKO9x+/I6p35+tQtJVrO3fRMBGBRs2A9Rbw6wE3H49JfXct9DDXJZPRAr//q0fcvIkMfvbqpyztfHyGa1CIDQ74T7hLp9v+aHl03xf78rMzyk5/Se/+/hREBzyS8m+cXlJYbyGt/v/X2IAAizjrWQSikeebzJ+d+b6CQzzfZd9eZzp1OaL1wwxsOPNUmne+8PEAEQZh1rIRFXXHBxkbGiTzw+WEeaz/u5YzAx5fP588eA3qdZiwAMEGHPmTCuH3j9b72rxhXXlinkZscUni38TsTgdbdU+eGlUwwPeT39/CIAg0SICmBDvL5Siu9fOkWzZWctWUYxe0VOjIGhvOar3x3ntrtqZNKqZxaQCMAgEtLD0+3Luj2w4s8PNbjh1irZHu39Xe0/F6ar1LpoveDEQU9XC+rNvSiFq1bUhiefbqF17wRAsgEHhDCfFxXSGxgLiYTit78vU64YhgvhHvsFdfuaLUut4UKKkwmXzx+PuUnXaFqqdVf1x/Ocky7mMV1joJt4HjSbrpTYK/4xw8nvmcf2W8ep1EzPMgZFAAaIoFLtXCHmwUTR59qbqyST4XrAte5M/Jpl6aIYB++ZZu9dU2yzZZzRYc9l6Vm3Eq8Za/PwYy1uX17njnvrFCd9shlNLNad7MNg1S9OGRYviPHR40Z4yyF5rIVK1fY0XVgEYJAIawLNLI7XJYxxtfzuvLfK40+1SCXDM3s9DVNlw+KFMY5fNsQhB+ZYvCCGVu483vfXre5awwt3SHLQy1z9v0f/2uLSK0r8/PISxUmffE5jzaYPhecpanVD27e8+bV53n/kCFstjTNV6pQP6/GmXARgEJhDq36ABbwY3HpXnWaQ7BOCAGgNkyXDq/fPcur757PlkhiVqqVUdhPu2ar0WGun/7+tt4jz4ffO4y2H5vnvb49z5bUVclk97TvYmPuwBiYmfXbYJsEJR4/ympdnqTctxUmD583O1ygCMFCE6znq5tW1gkbDcvf9dWIxFcqde53Jf9gheT71wQW027iy6Vo970o7UxAaTUutbthqSZxzP76Y7/60yLkXjuN5ato38Hfvw1NUqgZPw1GHD3HsO0cYHfKYKhtUp3HJbCECMED0IF2nO1exEIspxiZ8Hn+yRSKEwB+toVy1vGTPNB8/cQGNhmvgEfM2bp11E1RRb1rqDcvRR4ywZFGc085aTdt3k/e57l1rF+I8Memz5y5JTj5mHvu9KE2lapgsm76osiwCIGwQ3ZyfFojHYMWqNhNTPnGv+/t/Y5yH/6RjRonHoNzcvLLmuhMoMDbR5nWvzGLtAj7yudXoZ6n5HRwzlsqGTFpz/LJRjnz7EOmkpjhppo8g+4E+uQ1hc5g+putBKGBXThk6FsBTK1s0GhbV5adQa6jUDC97cZo9XpiiUrVdm3AxTzFW9Hn9q/KccPQo5cozj+y8zqpfnDTsu1eab31hKe8/cgQslKudvX4f+WzEAhA2mG7pS3BcuXJN23X3CeNeDbziHzPO+dbla8c8xUTR58i3D3PHvXWuvr7CUN7DWMtU2TA85HH80fM54o0FtHZbgKAzUb8hAjBA9Cx/JnCRbybjxXCC3o2BXFaz8/ZJWq2Q2pgpd0x44rtHuWN5nVLF9R086GVZTjpmlB23cb0ArHU+hH6lDzVJGHQUboUuVZwXvJvCpZSrupPPakaHPdohJdZoBbW6YcdtErz99QUSccWnP7SQ885cxFZL4kxM+tO+gH5GLABhw+niTA3CbsPYD1vcquv2/eHZRZ7nGoH+8xsLvOk1ebbfOu5Wffp71Z9Jn+uTsFGEvAfo9klAKIk/FrRS1BuGesOiQ/a4tdsuk2/pohgTU2Y632CuIAIwIPTiEKCbBAEwXc8wJIgBMKwd90N5j/U/h++7PIN+OdrbGObgLQuzQpdnkVKQSobgoscJQL1uefSJJrFYl50Mz/FZ+ulob2MQARB6TnAMWMi5arjdnjuq8x73Pthwf55LplGPEQEQZo15I+EEwRsLqaTiljtrrJ2ITo3BTUEEYJCYI0UBFc4BuHhBLBw/gHXtxP/yRItLfj5JPufhz2b7nT5GBGBgsHPHCdg5q99icYxUMpwyYL5xbcW/8+MiV19fZt6wR7s9Z0aoZ4gACBtMt6aPAloty+KFsU6wTjjxAIFz7rT/WsN1t1SZN+rhG9kOzEQEYFCYQw+1UtD2YXTIY+st46FVAw56DdabhhPOXMWPf1ViuKCJxeZ2p+FuIgIgzApBQdDdd07it8OrhmMMJDoFRz5+zmpOP2s1UyWf4SHngBzE3oMbgwjAIDGHFjWFi6LbZ7cUiUS4BUGNdWm6uazmp78p8W8nruCHl06hlIviAyK7NRABGBDmWiSg1tBoGHbZMclWS8LbBgRY66yB4bxmbLzNmeeu4egPruCXV5ZQyv295/GMAqFRQARAmDVaPowOe7x0nzT1ekhpu+vhG+cXGM5r7n+4yUc/v5qjTlnBDy6bolpzHXuTCYUxIeUq9BkiAMKsoXBluV/z8iypkPsCzCToBJROKfI5zYOPNvnEuWv49xOf4twLx/nrihb5nCab0dOvHVREAAaQuWLBag3VmmXPXVPssUuKaq23TTFMZ1uQSjqLYOWaNl/93gTvOmkFH/38am6+o0oirhjK6+mkn0HbHkg9gAEijLj6XtxzMq542+vy3HpXjdn4BNaC32lRnkooWi3LL68s8dvfl9lrlxRvOTTPK/fLMDrsUWtYGg2nAv1e7GNDEAEQZpUgdffV+2fZbackDzzSJN3D7cBMAiFQCgp5Z/7fvrzOrXfX2GHrBK8/KMdrD8yy3VYJfGOp1lx/wbksBHP41oVnMIdNU2Mgm9YsO3zYhev2gRljOseC2YyikNP8dUWLc781zr+fuIJT/2s1t91dJ5V0PgSYu34CEYABwc74PdfQ2tUHfM0BWQ7cL0OpT5pmANOnAcmEYmRI02haLr2ixH+c+jTvO30ll/+hjNbPjCeYS8gWYNAIcfUM9Zwet+Iev2yU25fXafkueKdfnG7WOieg7gQPGQs331Hlptur7LFzine8ocDBB2QZymvKFYMxc2NrMAduUdhQQp0rIZvlWrkTgRfumOT9R/5tw41+wp/eHmjyWc29DzY47azVLPvgCi69vITnua2BMRvWO3A26dMhFjaJHpS+ChPPg6mS4Z2HDfGmg3NMTJqN7uXXS4LtQSbljgoffLTJqWet5pgPr+B3N1bIZjTppOrr40MRAGHjCXlO1huG049fwN67ppgs+X1fYtsEgUVJ5zC85/4GJ5y5khPPXMmDf2kyMqTxdH9GFooACBtMUGsv1PdQLkkonVR84YxFbPeCBKVy/4sArAssyqQV2YzmmhsrLDtlBV/8xjittiWX1X2XdCQCIGwQCuh6G5/nQGuoNSyL5nt85VOL2e4FCaZKfl9vB2YSbA2Coqdfu2SCI09ewY23VRkuaHQfWQMiAANE6KtzDz+Lp6FSc2XDLvjcEvbeLcV40UfruVOC2zfuXkeGPP7yRIvjPraSs84fA1wegh9S27KNQQRgQLBh5gMH1+3xxAtEYN6Ix9c+u4TD31BgqmRod44I5wq+b0mnFKmk4sIfFjn2I0/z2JMthgp61kVgDg2jMFtYADU7AXqeptPiCz55ygI+8+GFpJOKUsXgeWrOWANBZOHIsMdd99dZ9sEVXHVdhZEhd1w4W24BEQCh79HamdOlsuGtr8vz7XOWsu9eaSYmffw5aA3kM5pazXDyp1bx7f8tUsi7Dkmz4RycQ0MnzCZq+tcsvX+n1XZx0mebLeOc/9klfPi980gkFJMlFzTUr4FD6+MbiMfcluDzXx3j3G+Ok8u6m++1CMyRIRM2hEFyAj4Xnqeo1S2tluWYI4b57peWcsiBOSpVl53nzREnoelkHQ4VNOdfPMHZXxubFoFeIgIgbCCz5AR4FoKVfmLS8IKlcc752CLO+8Qidv2HJMWSodGcG0IQ1CkcGdJc+KMiX/72OIVcOI1SngtJBhogQn3e+2f+T+N50Gha6g3LQS/Nst/eaX7zuzLf+9kkDzzaJBlXpFPKTbQ+Cr5Zn0AEzr94ggXzPN552BDFSYMXTuvEZyAWgLBB9Nvkn76vjm+gVHYZeG9/fYHvfmkL/vPEBWz7gjiTJUO1bvveR2Cta2V21tfGuPG2Gvmc7klqcR8PibAx9KJHfT+b1MHkLpbcyvkvbypw0Re34NMfWshuOyWpVA3liptR/bg9CCoLWQufOHcNa8fbJOIqdKegCMAAoXoUqtvPBDUEAiF46+vyXHj2Us79z8UcsG8G37cUS8YdH3r9JQTGQDqlefzJFl+6cJxUMnwBEB/AgBBYAJZwknaCgh1zhUAIJkuuutCrXuaqDd3zQIPLrihxzY0VVq31SSXdcRz0R3y+71uGCppfXVXiNQdkOWi/LKUQayOIAAwIoW8BrJ1TAhAQBAmVKgYU7L5TkhftmmLZPw9z+bUV/u+aEg/+pYkCMulO2u4sBeXMRCnF1y8p8o97pUP1XcgWYEBQqNA66yjoe0/630PrTtWhutsCLJwf4z/eOcxFX9yCc85Y5LYHhr7YHrgiqYq776tzxbWV6TTiMBALYAAIYvVDWyk6WwtjOv37gn3GHEQrd++tlmWiaYl5cMiBOQ5+eZblDzS47MoSV9/gtgfplOsTMBsWgbUQiyl+/OspDn1lNrRwZxGAQaBTSVupjtMoBCdAUBRzUFAKPOU+V6nstge77ZRk711THHX4ML++psxlV5Z47IkWyaSa7lXQKyEw1qUML3+gwW1319n/xZlQ6iTKFmBQCNMCALDOApizS//z8Gzbg+PeNcLF523B6R+Yz1ZL4xSnDK2W7UlwzvR9KWi3LVdeWwntuxUBGBCcBRDe9S3rClwMKlo5p2GrZZmYNKRTin9/2xDf+9JSPnrcfOaNxihOus14L4KKjHV9C2+5q8bacZ9YrPsWiAjAAOGcgOHYqNaCGaAtwPOhlHMC+j4UJw3xuGLZ4UNcfO5Sjjp8mLZvqdXDtwasda3Mn17V5r6HG6SSWgRAeA5UJxAonEt32mTP4WOATfncHSGw1iUeFfKaU4+bxwWfW8L2WyeYnAq/g5FW0GxZ7vpz3d1Lt68f7u0LvSLUfP3OdU1/tO2bFTzPVSuemPTZZ/c03z5nKW84OEexFG4DE9t57/sfbtJu265vwUQABgQ7/Su8d7CD6QPcYJxF4MqRxWPwX6cu4l1vG2IqRBEIjgP/uqIVSs9EEYABIsz5H2rR0TmGp51/oFI1nHrcfA47NM9UKZztQCAAYxM+Y0WfWKy7+QEiAINCyMd0SoV26TmJ6sQQVGuGj75vPjttn6BW776JDk5wylXDyjVtYp4IgPAsBNVlwqMTaixWwDSqE1FYyGuOfecIbT8cAVAKWm3LqjV+108eRAAGgGA1mn4AQ0gFDApvzNb8D8St3/TH8xSVimH/F2fYcdsE9Ub3RUAB1sDa8XbXmzOJAAwIvrG02+GlAivlKtn2mqCefj6r8bx1ab79RNtAIa/ZfacUjaYNLSmrONV9E08EIASCmPFePadKOadUs2lRYYWMKheUYns0+2yn424m7er6XXZliaM/+DRPrWyT6sTl9xNKwQu2iIf2pSvl/AC2y0exkgzURYKU2WzafUXNlsX3ww/R1Z09Yr1pQnkva52pm0yqnhwF+j7TCTh/Wl7na9+b4Kbba9TqhnMvHOe8Mxf1lT8yCJQaHfZQIWyTgmzPRrP7NRnEAugSvnEBGyNDmuUPNDjujJU8/FiLdCrk1cqCVop63VCrW3QICuCOophOjQ1r8pnpZpqateNtPnHuGt7z4RXc+Kcq2Yxi4fwY19xQ4ZKfT3b66vWRGWAhkQi3VZkx3TcrxQLYTEznfHworxmb8Pmfi8b48a+nWD3WJplQnPufi+m63bYeWkOpaqnVzXRhyW6hlJuYyYQikw6nZn0whvmcplI1fOtHRS76ySQr17TJ5zS5rOr4Aiy5rObLF02w+84p9to15YJjepih99wDBY2GwYZ4EqN192uziwWwGfi+JZVUZDOaX19T5l0nPcWFPyoCsHRRnGturHDVDRUKIZZ4Dszz8Ym2swBC+EaNsaRTmnRKd2INunfvvg/ppCKX0Vx9Q4Vlp6zg8+ePMVU2DA/pzvvP/Kzu6O3j57jKuamkmvVafoGTdNVaPxStD7YYqRAsDLEANgEzbe573P9Ik698Z5yrb6iQiCtGhlzLZ9+3xGKK/7lonH33SpGIqVDSaS0Q8+DJp9u0WpZMStFty9g3UMhpMik1baZv9jV9ZzJn04p7HmhwwcUTXHNTBU+r6Y65z1aAxHQcg395oskZZ6/hvz+5GM+ja/e1KShcnsB9DzfQISTsAGAhl9VyDDibBME2+U77pv/57gRHnvwUV99QIZ/TJBJq+qG1nYouDzza5BvfL5LLdXf1XJ/7H2mE8uC5EwbLvBFvnRNwMwhW6+EhzVTJ5/NfHWPZKSu4+oYKuYwmnXRj+Hzv4/tQyHtcd0uVM7+0hlRSo9XsHA/azt5/xaoWd99XJx1Cym7A6HD39zpiAWwgvu+KMyQTit//scpXvjPO8gcb5LP6OU1833e+gUt+Mcl+L0pzwEsyTJZ8PK97S1XMc6Wvb19eJ5novsNR4SyAxQtinTj0TQt0sZ2j0VxW02gYvv+LSb71v0WeWOH2+fmN7Inn+5bhIc0vLi+RjCs+fuJ8Gk0XC9HLDkC+sQynNd+6qszqtT7Dhe5v9yzuMy2a72GNHAP2FGPc4I8MaR57ssX535vg19eUp73VxvC8X3gQQv/p/17Lt89ZyvwRj3qjO3t137cMFzx+cUWJh/7S3OhJtMFYd8a9KeZnYDWl04p4THHdLVW+dvEEdyyvk06t2zJtyn37PowUNP/7qylqdcOZJy8gnVJUa6arIvvc72/JZzX3Pdzkkl9Mks3oUE58jHGLz9JFcdp+d50MIgDPQXCmn8toWi3LRT+Z5Js/nGD1mE8hp93KuAEVcoKyTk+tbPHRz63mq59ZTCKhpjvYbs79xeOK4pTPhT8qdoJ0whmHeFyxzZZxF9Owsf82psikFfc93OTr35/gyusqAAwX3GTZ3EKjvnHbiV9eXWblGp9PnrKA7V4Qp1gy7og0JGug7Vuyac1U2fCxL6ymVDZk0t13SKpOXcCRIY8li2K02t21AMQH8Cz4vkvBHC5obr+nxns+soLPfmUt5apluKA3uka+3/Eb3HZ3jZM/uYpmy5JNK6fmm0Dg8MpmNGdfMM7Df2mSDqGNlALanW3MNlslaLU2zvzXGsaLPl/85jhHnvwUv/l9mXTKCYJvurdn930nKLcvr3HkySv46W9KZNOKbMZNyG5OyuB6I0Meq8d8PvCxldz7YINsCJMf3PfcbFm23jLOvBGv60VBRABmEITwDhecg+pT563l2FOf5s4/Nxge0sS8TV+xfB+GCpobbqvy3o8+zeNPtaadOoHT6/nmQ2BK+75zLqZTis99ZS0//+0UhXxIx4ydbLctFsdZNN+jtREPn2+c9fSjX05yztfHsBaGcjq0rEXfd/6FcsXnjLNXc9wZK7l9eZ1c1vkXlHL3ZDZSeKbHvSO6+Zwmk1b8+uoyR538FHfdVycfYuOO4IRh711Tofh4ZAvQwVrIpNzT/dPflPjaxRM8saJFIadJJrpTE995rzX3PNDgqJNX8P/eNcJhh+Qp5DSNpqXVts/qAdfaWSTJhMLT7rjp3AvHufbmKoV8SPt+OvXo2pbdd06STWvXcHMDlwzdCV39p1fn+elvSzQaFhvyttwYN075uOL6W6vcfGeNl78kw2GvzbPPHilGCh7GQKNlabftc2YYBhWWtYZEXBGPu1To4pTh6usr/OhXU9z0pyqJuIsBCbONt2sYqnjpizIbbYFtCCIArNvn3vewO9O/7pYqqaRiuOOg6mZ0l+9DNqOo1i2fOm8tv7yqzOsPyrHHC5MsXRQnn9XTDxw4q6TZtExM+jzwaIOrrqtw1fUVylUT6uSHTj06Dfvuld7oEGCloNaw7Lx9gsNem+ebPywyMuSFHr4787TBWrjmxgq/v6nCti9IsN/eafbdK81O2yWYP+qRTik8/bfBNca63IpqzfD06jaPPN7kT/fUufnOGo883gTWXT/M8VcK6g3Ljtsm2Gl7l2rc7UxDEQA6XViSitvurnH5H8pssdh5W8PqhGOMO74r5F3ewB3L62QzmgXzPBbNjzE67JFJKSxQrVnWjrdZsarNmnGfdtuSzWhy2XAnf7D3XLoozp4vTFKvb3yikVZQqRmOfPsQV11fYdXa3vS8D8YYXBoxwF+favHQo01+cOkk84ZjbLHEjXMhp8mk9fQRZ7NpKVUME0WfNePuZ6rkTyco5TLPjE4ME62dFfWKfTPkc5piCFWIRQBYV3Lp7a8v8KuryjzyeJNkMlx7NVipMimF6jjFVq5p8+TTbYxZl/UVFKKMxzpbFNV9x9azoRXU6paX7ZNm4fzYdJvtjcGJCCwYjXHC0aN88NOrSCZ6IwABwTglEy670AKlquGe+xv4xmLNegVVO12WPR2Mu3IReLiFopdhx+22c8C+9hXZ0OoMiBOwQ9t3Dp6jDh+iGUL55efC2HVxBG5PqcjnNIW8+8l3QnBjMdXTB9BYN2led1AO37ebfPTkaZgqG153UI53vLFAcdIQ68EZ/foE9QUC6yuTUi6IK68ZzmuGC52fvAvsymY0yU7sfeAE7KVwedpZTwfsm2Gn7ZLUQ6o3KALQwdOuSeShr8zx8peE04jx7xHsKf/mp8fdabV2xS732S3F3rumqNY2L3BJKVdB9+T3zGOfPVJMlbtf225jCI5xg/H11/sxm3Ba0G1MJ/nnX948FGpDFhGAGQTFLk5YNkomrTc68GWQsBb+5c1DXQkwCioWJRKKz35kIYsXxELLXBwEPM9ZTYe+Msc+u22+AD8f8hXMQGuoVt2x1zFHDFMqG/QsmKuzPQblimG/vdMcuF/3LCGtoVazbLUkzlmnLyKZULRahFY/b66yzm/icey/jtBohrsdFQFYj0B9jzx8mAP2zTBVml1ztdcE9QWOfscwXpdr0HselMo+++yW4jMfWojv24HvOLyxuEXIcNy7Rtl2y3goVYaf8X6z/YH7keDM+2MnzGfRgljXknf6Hc9TTJYMbzw4x8v2CccP4nkuf+G1B2Y57QPzqdacV1NEAGKeYmLS8IaDcxz+hgKTPah2FIHHeuMJjsC2WhrnU6csAAi9uOdsozXU64att4jz/qNGQ115vM6DfsQbCxy/bJTilIsxGOTx3ZAxmSr77LZTktPeP59Gw/TE/yQC8Bx4HkyVfA7YN8PpA75SBUddxsLpH5jPovkxGiGEnc7E01AsGY791xH+37tGpmveD+L4/t2x8NwpyZKFMc4+fZHLQG33ZixEAJ4Hz1NMTBkO/6cCpxw7j6nyYD6kSjm/x0nvHuXA/TKhNbp8tvctVwwnHD3Kh987j0rN0PbpyXv3C56nqFQt80c8zvvEYrZeGqfawxOSCA31puFpmJwyvPsdw5z8nnmUyq45wyB4r4OEl4lJwzFHDHPU4cNMTvWuyq7q/Joqufc/+7RFJOOKcrU3BT1mm5inmCr5bLE4xvmfXcLO2ycpVXojvgEiABuA1q7s1rHvHOaM4+dTb7jMvbm8UgVWTHFyhrhVTGidhZ7zPuiI0JTh9Qfl+NYXlrD7Tikmii4RYxCdr4HwjhV99tk9zTfPWsoO28RnpcS5Kj705iIwNNuDMhcwxtUKuOK6Cmd+cQ3FKZ98LvwMt27jaXfW3GgaPnDUKMf+6wjlqpluAjpbBJmSjablG98v8r2fFWk0XdmtjS3C0q94nqLeMLRaliPeNMRJx4wSjylqjVlZUCZFADaSoLDHQ482+cS5a7j17jpDeY2nCTUvvBsEK89U2TBS8Djt/fP5p1fnmCr1j28jKLmey2puv6fOVy4a56bba660WErNWSEIno+psjtpOfk9oxxyYI5K1eD7s2bpiABsCr7vatO32pZv/qDId382Sa1mXOqp6m3G2IagAO0pmk1DpWbZ/8VpTj1uPjtsk9ikLL+wsYDpWAPGwOV/KPOdn0xy30MN4jFFutN7sd/GeX2C7Y1vXLZpJq1566F5jjlimIXzYkyVZ/34UwRgU5m5Ut19X4MLLpngD3+sYq3L19eq90k86xOs+K2287YvWRjj3e8Y5vA3FFzBjprt6yhHM6MMV6lsuOLaMj/+dYl7H6x3GoS4Mm2W/hID3ZnUrbZLqkqnFK98aZajDh9mj52TVOuGZqsvTjtEADYX37huwErBDbfVuOTnk9x8Z41m05JOaxIx94DaHomBgmlHXrNpqdZdU483HZzn395aYMslcaZKZrqr8FzA76Tw5jKaSs1w059q/PKqErfcWWdi0icWU6SSaloMejXWAcGYBz0U6g1Lq2WZN+rxyv0yvO11BfbaJUXbWJfY0z9BTyIA3cAYQLkH1Pctd9xb57IrS1x/a43Va9soBamkJh7v9Hmjew9pYEIG1223odZpUrnV0jiHHJjlsEPybL91glrd0mj096r/fPjGrZrZtMYCjzze5Nqbq1x7c5X7H2kwVTZo5eoYzCyrFhRc7cp4d36tP+auKYklk9HsvF2CV+2f5VX7Z9l2qzjttpv4qL4TXRGAbhKYrJm0qzX31Ko2N/6pynW3VFl+f4M1423abbd1SMRdkY/1V4Pne0bVjNcEtQPavnvwgo44oyMee74wxcEvz7L/izMsnO8akQT15Ppk5dnscYZOp6akol63PPpXV7fvtrtr3P9Ik1Vr2y6cGVcoNOY5D7zW6ybv3xvz9V8TNDNt++4Y2PiubfrIkMeO2yZ4yZ5p9ts7zU7bJ8ikNfW6pdHsy4kfIAIQBmZGhZ9Up6Hm06vb3P9wg7vuq3P/w02eWNFirOhTq1vXH6BTi0A9y8MSWAtB6Sql3EOdSStGhz22WBRnx20T7LxDgj1emGKrJTE8z3XIabUZmIm/PsGJgFauXl+y05txbMLnsSebPPBIkwcfbfLYk01WrvGZLHXGu72u5NrM1Xx6SeeZ4w2dCsEJVxNw3ojHVkvi7Lhdgl12SLLjdgmWLIiRTCpaLSe2vpkT4y4CECbBA6pwYpBMKLTn9ubFKcOasTZPr2mzcnWbsQmf8UmfStVQq1t83047GhNxRTrlSlUNFTwWzvNYOD/Govkx5o+6wpaJhMIaZ4o2WnZaKPr8AQxlrGMxtw1whT7dnnyq5DM20Sn0OdZmvOhTLBnKFUO9bmm2LL5xFoPnue8qnVYUsh4jQ5p5ozEWzvNYMOqKieaynTJtnTFvtax7//5d7Z8NEYBeMXMV18pN7HhMEeuYpah1r5lZFBRAK4XSnQdLzTD/23a6enHw8Edp0j8XM/f8gYMu1umtMHMbMP1a+0yfjJppiQWvM64RaLvN9Jh3jLa5POaTUhW4R6z/kPi+ay5prX3GHnTaydT5b2eG2nV/nvE61XlAlYIIhM5vMM8w6Tu0O3t3u95YPt+w/c33wgxxmP0jvK4gAjBLBGLw91aO9R9kYdPY0PGOGgOiY4IgbAoiAIIQYUQABCHCiAAIQoQRARCECCMCIAgRRgRAECKMCIAgRBgRAEGIMCIAghBhRAAEIcKIAAhChBEBEIQIIwIgCBFmpgDMwXYLgiBsAtNzXQNBjVjJlBaEaBDMdS8GTHT+w5/tuxIEoWd4wMT/B+JDpxrA3vxPAAAAJXRFWHRkYXRlOmNyZWF0ZQAyMDE4LTEwLTMxVDE2OjI3OjM1LTA0OjAwWXlIgQAAACV0RVh0ZGF0ZTptb2RpZnkAMjAxOC0xMC0zMVQxNjoyNjo0Ni0wNDowMPzLiIcAAAAASUVORK5CYII=;fillColor=none;aspect=fixed;" parent="1" vertex="1">
                    <mxGeometry x="1440.83" y="932.3000000000001" width="28.3464" height="28.32" as="geometry"/>
                </mxCell>
                <mxCell id="wynJoZTQOHE1wt2AJN_e-79" value="" style="shape=image;html=1;verticalLabelPosition=bottom;verticalAlign=top;imageAspect=0;image=data:image/png,iVBORw0KGgoAAAANSUhEUgAAAQAAAAEACAYAAABccqhmAAAABGdBTUEAALGPC/xhBQAAACBjSFJNAAB6JgAAgIQAAPoAAACA6AAAdTAAAOpgAAA6mAAAF3CculE8AAAABmJLR0QAAAAAAAD5Q7t/AAAAB3RJTUUH4gsCEicJ9jqUbAAASFJJREFUeNrtvXecZFd55/19zr3VPTPKgWBENDkIsEHSjESWELbBgAHb2CYZpxeDSbYBwa792t5dAyYak2wDXtYRY5BwWjI2QZqRLFAgSkKADQKB8oxmuuve89s/zrkVuqtuqK7qrp66z2dquuqe+Jx7fk840WhpU+mUV5xLYvCDXSdy4oHvIzMAB5iBATLnvPe5IDwYJkNLO7CVW48UHG1wrOB44FjgOODogc8u0C5gJ9ABlhBpLM+BDPDxkwOr8bMCOoA4AOwHbgRuAm4AXR/+cqPkb3Tp0kHlWaybQP2aCuHMnISLAR5JAmVKSM1j5Ox93S9s9WtZWLKNZ9FSGZ36sn/AJQl56lhazcmcYWaO2PZZ7vPEhdfQexlmSP4o4A4GdxLclfC5U3x2mwj6oxC7QEvja6CSR6Iy3cgoWgUOEITC9cA1oG8jvglcDXwD+JaX/54zlw1mJA0JBVEIhVxY6jDlXPD6Z2z1a1sYagXADGj3Kz+IMDIyUhLAmQWti7zPzble3F3LSxw4tHJn4L7Agw1OFtzb4M7AbUOsYRQO/dIQmjUcZSimrUlYwkE/0xjNenkEq2FcusFsDwHXAFeCLge+gLhE6EozOxDiCSHMnENyII/wZpEZwb7X//wmvrnFo1YATIl2v+rvQUt4Z+RmpLmPoDeE8qKhleeJJcn9gD3Aw0A/CtwDsTw6Z3n64LaIL0NEmIx7hyr5ObHmH/Uj1E0qvhvRpRmT7hrEpcDnQJ8WutjMbioEAuYM+QThkffee1ySYKi1DGZArQDYIO0+57whnWjghBk90BtCJwKPMvhx4BHAPfopeoArfHHrf/o5r4deDRCPT1ydTiVh64LGSgvFwEIwJCN4+AFwAfB/QR/B7AoULQkzh2QgH6Sd4fHsawXB1KgVABPSaeech5kRzFgwLDEzL3lF0B9n8BPATwOPAo5Zk0UeTeYBwA/SGLN/1uCv1vxrghrUhV5z+ZgwDkb2yIP2Af+A+CBmVwVh4MEsDW1WGEGe61av58q3vJCWJqdWADSk3a84FzlH3zm2xGeruUuXwji+/OnALwFPJgzUFZTHv9FEVgmuNOJb8WDuNX95uvUCLAoEBKQDYRni48C7UH4e5lbj8xQpx6wYVWTvG1qLYFJqBUBNeth//xDdXGR5l6V0GUmJpalXlmnp6GNZvfnGnwVeRPDtiR25AP16n7gG+Id+bX/NX7cuwRUK05XF828Afwa8E7gOCYwUkfcyNLH39c+kpWbUCoAatPuV50XtDoBF3zTHOfD+54FXAfeL0QXKCf7uiPZtNX/NuhSWAaBi7OAm4K1Ir8e4Hi8wS3Aut5VbUWcZJ3H+G59FS/WoFQAVtPuVH0JJivkcUCKRmxlIjwT+CDglRs0JA3dufG6t5q9MN1oQFQOkhVVwA+h/aWX19ba0JCAZmC0BxN43tEKgDrUCYAztOedcvEUsS5izFMiQjsTsTQQ/n2iG9v36sdRq/inwIIKgTWN7fgV4AfDxOFCYgOVF1L1vaF2CKmoFwAg69Xc+iMt6M1aGC0vzEI/C+CvgDnHaLmofmAb4h361mr8sXRAE/XGCtyvPX2iJy4DUzGV5toq5hH2tO1BKbuNZHF6051V/j8t74HfKM4VFKbwM45ME8GeEtpsa+MVYUVCabv3PCbR0Vdgkmn+2YRbBX7gGz7PEXQ7cH8gknxZTtKe+5L20NJ5aAbCGpOWi/zkhb+kSoD/FeE2IMOSLMi3NP/R4lma/aKZtJ9H8TQf8JrdeinUEXeDewCWIpwKZubQ3CNsKgfHUCoABOu1VHyq+Gngf9uz4vwV+hTAvXSxeiXSYa/55DBvtunQIYwMJxvsRLwLlzhJDMiROe8n/pqX1lGw8i8ODdr/yPJKkg1eOORf37ug9wDOALqLD+PXta2hCzb+dff6mPDTz+evw4CimDY0fR1oFPm3OEnkvn2Xc8fSn8u0LzqWlPrUCALjf776PJXXCaL/1fMv/BrwUyAh76QdoBqP9213zNxVgTcPqCTAbCDiLcI7B+WaWujT1BtxhzxP5zgXn0VKg1gUAjs6KjXhKCIA/E/gDwsr1pBHgysGvNZ/59Plnab1szOevU5dg9ocIbyIsyc6QUgDXdvkhalsDiJvuTFIu+R3Au8JzxMbNfoEy4k4/xU/M1w+EjU5aVt48hM2H5l8bZgOR/g50z9DOShCc9qK/oKVACy8Adr8ymIMGiZlh5v4bcJeBqb5IjcEfF63IgFTgFKyLG4EbEN1wCEbviK6cdapyTW6znFvf/pp/rSXlCO29BPyNWYpWV3LA5IyHvfBdtNQKAMJuXAyRId0eeHEMSgZjleUwIrhYFpwA1wjejHg8cB+keyDdw9C9gccRlhN/k/7egXwqGnWSQbYmYfOp+ddSWL0JD5GyV9rSMlh4r6uuHf6CVgBEK78Au/0K4oio/a2IUZZ6DPgTUFfwigB2XozxL8BVwHWEc/SuBj4CvAzv70lY0rp/YByiX3yr+Wmg+ddGKJD+O0h3RmQmnHML3/WBBRcAp73i3KBys272uJf/JMDPxaBiE0BJ6pFhGZAIXYk4GXgNcCtBEyX0twUXx2YlMaxL2OV2X+AL9DVXVXnrw1rNvzbMCG25DPbfYusbiFNf/BcsOi20ABCGYS5JO3z4Nf/4EMLBnHGxTw3NPxyl2KTyNaSHYHwVemsHMiA3ySvzSpczSQpHcUtZOFpIHeC/fJadgrgIevvdaTX/mMf1Z08KK+A5SHdFyuXlrCz5glC68Sy2L8lTzAt54Iz4OAeVtMvYXpoIHUT8GGY3Ax2DLhYOu9376qeMzO20l70fQlfsAqlLkgzpx8G+DJzYq2VVXVrNXxZm0a3rAL8I/C7gbOzsy+LQQlsAFszBOA7Ig8LTGsder+97Pj78LTOuttDRugDyOReMAT/A3tc+LZzXHfLMwDoYPwA9vxx1C6r5Cx7q1GX4UWHVPV3dVSfvMxmc8uJ3s8i00ALAucGerTtNqHE8KBFcsbp68O3drIukLhheYu9rnlpZjwte/TR6ysjnXTNnZvY+4EKC+bpGUy2w5p98W3JxkOO9rLN0SrybwZkWGgKLLQDCejGLEwHsio/HH+M1urMW4Hzv8tJOpWknBUPes69E86+lva/5aeKhFkg+UejohXoajfhW85enWz97UpzR+Oj410mLfSTGQguA4iq++ONQ/Fu29pYRYUnEyYdjTG8Ge19TH/wF7X3tT0e/pKfxPx6/rz93oNX85elGT50W73pPL9AWexhgoQWA9e6sEKybdoMKzV/8Z8D1oCuDlpVU2lmr6uRBkkmY/DeBb8Xy+pnOk+Zf93OLwV++bqIQAPe2rOvwPl9oALDgAkATh/Z7WPx2PT6/ufi1t4Hpv5YueO3PAMgSZzi3CvrBECLnTfPPE/irw4rFXbdXkp4Qra2F9gEWWgCMp0rNv5byAbU/ldnlgX6f93JtNX95XeqvmDxScExM0gqARaXRd3HV63RDnUccbUmys9Aoe17+9xPXaffL/i588ZksXzXWXym2ri5TCdvO4K8fVryvxGB5xH1sC0cLLQCGKarMZpq/MClvZ9hJsUOZ30CzFpuThMNb53aIO8ait+dpRM3aMwbNTPMX5AWZKlIsAi20AKjdj9cEDqdTTtjqe0bsUA7vwwq/hnT6K/4GuWXov5dTgSPp7S6squicgX+SsNmeQFxM+R4C7ad6PfFhTwstANaQ6miqNeAf/PUMzMBM7DoCc8ael9cXAic/76/IfYL5LvS1/ZpbL7cR+OdR82t06kWmxRYAlcK/FviTGPQY5B+BfM7KwVQCj3Hay6rHA/a85H3sOmqpyDhuB9bJhKvFYxnbCPyThM367oEW7iNpsQWAwYAyKF0AVKL5B4PfQpoir3iakMCMU0uEwGkv+Wt8p5eFWSf14VIL+5MYpfqAkCbgH8duWbrtrPnHzp60EgEWfDcgMNhPBhaFNgI/9I+feiBZ9h7n3C9m3VWfpGliZrlLHKe9/P0kJj736qDUz/jNvyVLHOHuAYXrxpPEq5sJeD3wCAL4S46umUDzNw3b7pq/NKxYx7W4tOACYFQHaAz+IjAlDNY9R1I37Sz9quRzSalyCeRzjwqXIC47NEmGRQHiBfBawnHkfqrgbz5S3lzz161LvfacvC5jo6jms8WhxXYBZAP4X79ypgH4iy8JkGP8iqTPEu+qIx74ac4ZZkn8FCfX+hjnhyV9GPjt8Gw614xPHHZYa34WHfc9WmwBAOVjZL0fjTpdQjh84nTgcuC9hN1nR8Z5hpzeCcDaBZyBeCfYV4CzQ9gUwT9vPn/lzNusfP6WRtFiuwA25AKM7maT7UJLQfFwUJ4ZPvY9oStB18ZYJ4LdHThpIPXh7/PPU1grFxZcAIgoBHq/pgH+4ksxPegJUuZ28TMqVTz26zD2+ZtaIU15aDrz0BLQCoB4Qmz/Zz9sKp3V6B9IqZhpseDIBj7Tn+dvGjZvmn8SAVYzTK1g6NFiC4DhCQD1/59JZy1OIKyX52BYq/nHp5u4PdspQGgHAUfQ/GiqVvPPoLza/C4GLbQFMHiDJJXH+GyVpppBXUb+nDIPc6v5WxqkhbYAJFFvT/hWa6op5Tn254wA1yRsLtvz8KeFtgB6yB/w/tfTPGmqVvNvtD0XG+7raaEtgHgueDEVWNYzRzyaJ001J+CfJGwT27MF/3pabAsAMf4ioDnX/L3HcwL+baX5W1FQ0EJbABqLiG2g+ecJ/JOEbZnmb8E/SAttAdjI4b9W8y+E5i++LvhSgIUWALC2S7Saf+E0/4IbBAsuANSzAtS/469Yu9+8s6okbFS6rQe/CHsQrDzKFOoy9GgefP4FR36kBRcAQ7Qz/u0AiwD+4Yw15lLUuuVVhc2T5m+x36OFFgASxQWBIC7BuBviJkZdxjmccuTXiocDhY4NLHk0E0GUIe4O3CFGrL57YNaavzkP7YDfBmihBcBSmtD1wfQ3x+8AvzMcY5RSXIMTK9O8IwLMSiI2GZEaNJUH8hy4PcCAcOLYwO9ebEN4QK8lnEKU0+sPW6j5Zw3+SgG2WLTQAsA5g95yYLM+gCJU1B8lUPwmC5gfBFSftObG8cHQgYQwnNoGoLm2b/ZOLi6QvWb42tYKAsVQG8rahlIJ4VOkLv3tyiPqvPZxC/7DjRZaABw4tEqaJoQz/P2Arhyk/moBac3v2iXFzjougff9eINp6uQ5lvyanIYjm0oRy4bD5h78ayy5BaWFFgD/8bqf2eoqbAmd+uL3glu7BmzbjFtMR/MXz2yxhcBCC4BFpVHnoIylwxH8Y9KtfvUn4hRQTzRMcIF0tV0o9SslkLvdTXDtMeQeulmXnQ/6RGUe06K5EwCP+t3fJeGueIEnZyXrkDqRC87/n8/Z6uodFhSM3xoOzGEP/rHBhS84mwGD/hATznB87xgHyIHvJB2tfP7H6Sx5MnmWHvDRmVShoC0RALvP+SAAV3Vvzz061yBcMU5lB1d7RllP+mZ5cFh3n/PBNdPbNfzkkT83e25/TNrZzu1XTVHGOwjHOMKLAP7RVID/LoITCbMj9fKqV5xDrAI3In6AcYiBAZvEKUmWcyR8x5C+dDbeQ/KAj0zCSyVtmgA49ZwP4iK040yau/vStSYSbGV/rqUjBOP35m2epzZqIHCjYZtdXq2weDkRB9dFOezBP07tG0ERkxv8IfBzw+022IQalQFDU7JlrwAOGvwA8XXgPwT/LviswQ8AvCAxSyXlzkz64tnkEumULYKZCoDTXvYBSB159yDII0udgTPncinvST2/63jIVm4P3ElwR8Lx2ccZLMeWvkXQHXoLlVirWqxTka7JAp+ZTJFV1b8iXdV6hLATdD+wZ+D3woJ/BBX9s7jfYSCLjc7QAGHl6Z3i55EGLzXjJuBTgr+U9CHMVhUGI1IvZc4M/8Wz8blIHzgdQTATAbDnVR/AK6G4bSvp7Eqi3slDwwrgXsAjQA+3fOVHgLsBR47Lc93MehOFW7b2pizNluY/uE6gSf4DE/+N5ilxLfhrJNow+HsCuojl6S8COQZ4ksGTUmffBN4meBuw393nSPTV/YlheZIa/vLH4qZgDUxVAJzy8nNJnOFvWYGjU/AkhknhlhyAuwI/g/RUwx7K+vMIRF/yrm3JoWU089xZa6XbWv8f+iLCsWjgbyYHBqzOqYF/MN9kTYSi/98FeE1i9lLg97niwNsQOabU58rMwF9+Fl5GevLkgmBqAuC0c87rj94duWx4nHoDKDwMeJHBk6A30wKFYOifzTlwkUbJa5/jzlor3daDf03Q/Lbn7DR/Q2tguuAfFx76f4jj4+d2wFvxei7wq8DFLnWm3BvgExOrl5zF0oM+1oyfSBsWAKe9/ANYkiCES3bg85WU/o24u0G/Z+HSy4IywhZUN8Ds6MYa9WuOO2utdC34y9PNGvxVUUeeEbMp4F/71cWPoqJ8iBn/gTgHr1dLyCzcRt1JIL/sLJKTmwuBDR0Jdto5H4CkwLCZz1eLqaUTQX9hcD4B/J7ejbikFLfftuAvT9eCvzzdNME/NtKWgH8w3AiKurCm/xBxnhdLDGzgcgbdSx5Th8EhmlgAnHbOBzFLsTB5ktC/+vrpwBXAsyNLeSwnYXC3Swv+8nQt+MvTzaI91/FYA9yzBf/gjwJjGfDE1HEx4nYKv1OANHFklzYTAhMJgN2vPA+z3p2XKZCvHuga6F3A3wDH0l9kMjDI0YK/VroW/OXpptKeqmgjpgP+idprLA/RGlAXuL8ZF0vcZVAIJOboXnomdamxADjtlecxMC9V+Ps/tHxk52LgufSm+taOL7Tgr5WuBX95uqm3pxrErRM2ED5WiEwE/kHqEHB3B2dcgHSSRIaCsk0MsksfTR1qJABOO+fcwZN0U0EmeABwKfBgwmKdZH2+LfhrpWvBX55uZu3ZhBqY9dMIH9+mhfK9vWH/7qWjhHLF8TVXE9q1BcCeV3wQs170FJQZPNSwCwlrpjOGpvjqNFgL/jHMV6drwV9eXlV7auCzNlrVu56OT1/dZtVtmiK6wA8nxj9b4sIJV8I8Iq/hCtQSAKedcy5yg+AnAx4E9hnQDgZ8kPoN1oJ/DPPV6Vrwl5e3Ec0/sQLfdPAXjzoEy/vh5P5tS84wwyWJwxnc+h/lrkA9C6B/jl0CykB3BvsUaJmhs+RGVLgFf3m6Fvzl6TbUng2p9F3X7AvTAH+dig33mw4Bh89T2MCU45Ui2NEp30ZXKQDCoF8vbm4B9B8BHUvQ/Mn6VC34a6VrwV+ebsPtqXrpatelaXtU1XFMojruy/ofxV7EP/NxUFDgJMhK1geUCoDTXnkuZvHgTHNghrC/Be5NMDtazT/0uAX/2HRzo/lVI+7gYMAma/5G7stQuCMo5CMc9k6zYLh3FWYFxlGFBRAPyjWXSvKSfhN4Mu2A34jHLfjHpptLzV8BLlVF2yLNX/6uihWDj5f0dCS/7EglyL8weixgrAA47ZzzihdR+P0PMnhdDG7N/qHHLfjHppsnzT8Yv0458wT+ukwraG2D1+ZeO7wPC/KcM77/mTPWRR8pAB50znnB9Ec84aVPzC1JAN4Vg3MaHZbYgn8M89XpWvCXl9dU8zdtzyqqk3Ra4K/zrkL7Fa7AnRJnL3PBc08Ajj9yaV2SkQJgp4XGNLP0n97wIXyevxR4CCMH/Vrw10rXgr88XW2/vG78NRE1Pqh+pgNCRhXhdfOfLviLXwVGf8uL20pkUrAC1tI6AXDKb/0dWVjnb0AmcXuD31uTcXXjtuAfx3x1uoUEf13fnRHtOYnmr8FKozQzMvubgx8idoGjHLwkDggmCPIvDM8IrBMArrOMkxA4AWb8HuGorjUnyLbgr5WuBX95uq3Q/FVgKksz/+AvqDhY5//zXsdLyoTMmR+KNCQAfvTX/5y0k2DIWTgZ9T6EU0hgaMqvBX+tdC34y9NtieZvYObXyq8q+y0BP/StgGOd8UvxuK1EwOrFj+xFGhIAnWNORD5cYxmzPicGZWtKbcFflW6hwM+E4K+ZYa34ayJOBP6m+ZUyzhaCP8ZRge9fPZQpybwysHA2d6QhAWBm5N47QS7pHga/EIOGz+lrwV+ebqHAr6H6bF/N3zS/qjabsArTAz/E1bvAPXak9hOpMwzcSr7Si9YTAKe+4gMAWDhdCDN7PkO3x7Tgr5VuocBflnTeNX+ZIKlTflWbTSDEpgv+tfTc4kvqOmSfD4OBPQEQtvrKCIt+jgWeGYOSFvw10y0U+Le15i9O3C2p66RtVlWFmZv9a58UGH+cxEkSeWJJbzBwzSyAJfF07qcBJwAZxW1dcwH+sixa8I9+1Gr+EZQT9rI0qlIF4zX42HTwQ38wcKehJxrCTIlnQAAUl3Vilsfxv+fEHOfs9N5xL7sF/+hHreYfnUwHQSvNxwU2Av6qLGcC/oIKF/6pYWu/eZNj9aJHFRaAw8DhvZC/P3BGTODmA/xlWbTgH/1oFu1JCQa2heZXbM9bfOZvjU2rxnlOBP5N9/kHIxQ4PkPSHSV5MyxNBl0AM4cZGE+JBWbzAf5W89fmYebtue01f/HtB66TeksSG2pj5YPJGzj6GwF//WwreBqfSbh5Kwd2GDwmrglwtrOLO+0VHwCEN5eHeDwppnMjMxv3q7Ii47JqNf/oZK3mL003WXsWEf4LCbwfngZ3Q+nXX1E3UiZtVPNPKjypC/619GPFl+zAEqk5Q8KZzz1wX8KmHxh3su+oX3PnozaoS+/x4Q7+6bRnM81fk4fNa8/iyxXxr1m+3ItmvfVvABzRWPM3Di9LtmGzf20WBZ7PyL2WDVYSh7kE35v7B4pjRLN1mY371Wr+8nRTBX9ZVq3mH51sKKxYAnd5L2G6OhzfFD5hKrxZu1X1jSGFPml/ZBLwF7wLuLMzTnYGhszlMmTmZYbB49Y0FJODf4T50vr8TA7+SduzrD4L4/MXVJj1l8XypIE4BqysmueOgnDUfXg8DfDXrXMV1RGw4+PkcUDg9HgXt3PCGfIe+aOAU2JEN6q0VvPXrMvYKFuh+ScB/3DwYaD5obfwh6/L+69F4Mtuzgfj2FIq/LfsaOA2sYjRh9+MfVTVPmV1rsPTpDgI7MYvxdFASgEHlgMPJNxFLgaX/o7kcX591FrpthX4NzLgt3FLqhn4J9X8TetfkU5lCfQ5c0kXSEw+3/tXLwSge/lZEM1kg9sDJ8QUY63h2rxMBfxUkyoDC15+5OCqd53EchcPD8VgTwzMS/NtNX95uoXV/JOAf5L6V2RSLUz/qXA3rv3h43ohSRgCLLDww4RZML8mbUk1tlrz1+qbhTtztx0dd5fEGW4g5ygANKT9W5+/Lg/MoLNups8/XJ/N0fzT9vlLQxLgBomPRjz523z9xl4E6yxDX0OeHP+O3y+wWeCvpEqzf/CP0b+4974GOO99nmWZU59pW5M0/mg1f2m6pu9w7jT/ZoJ/kvpXJSvVkj6G/aMZ15uR7Ny/X8734+erh8JwX+j9D42PbcvB39Q9rG5LHxl7IBDWASSW3MnQXftMtz5/7bqMjbIRs/9w1/xN61+RrloDFnta3lk8PHj00ex76/OA4P87HHlOnnuSpZQfjdGsvKytBH8d3kdS5En3B4vHfBn3Ilz04YlnATaqRFPmSxk4HMBflmyRwT9J/auSVSbICeb/JzH7nIHz8t58371PMDA5Z3jnuA/YPYYEx0hethr8NbGwPk5h1dyLxHoM3i/+9fXB3/r84zXVuPosMvirBrKYoD2rMhMUGk/8DyQkRQu3v9atK4uL4QzDHh3TZePLmmfwV7ZnYdXc0Wf+GBdb6L4xft/kWWjNX6PireavWf9ajTNtn7+gjLCj9VyMT2CWZAdvzg3jwre/KES47CwSE1hxXK6eENMOYGEa7cMmgL9MufYeFgLxRIOTUsMQunv9ShzuPn9Z2irwt5p//c9JO/SkPn8vggij3SugF8dHSnccOcS/c+EmLXl5sJPMeEQRVJuXuQB/VTXXMbIE3MX5PO8Ad4oB1mr+FvzN6jNvmr8XlsefLwT7JlgK5jFj3zteAMDqZWcB4dKMcHmGngzspDgHc1uBv1LzD/4sTIG7OXN2AnDbWAkrL+Bw9/lb8Derz0Z8/jLNP4nPPxQhXF0v/grjTzFz5vMMwA+sc0st6jtneVgCVJyEtfYgnO0M/pFRi5h3c4Rlj0fHSliNLOozPzJ+nXTbyedfVPA3K35d5Nlp/i7QQVy0evDAM/ECecmFNW8XRd//0CVnkUk4SPCSvB5JmP/3aPyt2Y3aZy7AP9L1LqYC75QCJyElMdhKM2jC/Lbx+Wuka8FfzsN8+PzQB/8VoLOWdu4SYQowB9j39hf0Uiwlhg2sgzXjJTErVRa8vcE/SCc54IequWnI/Jg6VKebFPwNKtBq/or618m3GiNj081e838FaQ9wUzzlOgdDWX/eP7vsTCSQJ5HIJU4BnhTBn0Cd4rY1+Iu1ALdzwEnjOdouPv8sfFRa8FfxMBWfv059StMVZ/x3EP+G/EMxrgvgD5rfJC78s7Dr74YvPIXEHC/9+OXEW3MZuP265uafbQ3+wYfHO8IW4PJM6jJfknx7af5J6rPI4K+q/6TtWVmXMM8fBu3e4hL3KMwODILfy7P3HX3T/5j0ZgS86awHpATt/0TgxxGeUecANqHtA/7C1T/GMXjyybiUW6b5y3icVPNX1YfDGPxV1ZuF5meC9qyscDGUnyK+h3gy8MLuahf69+FhyrnoHb/RS5Vfdlax1NU8yjKxw+AtlYUPsTjpOBTzAv7Bn6kj3ABUFqmc8YoyNtY5qr2SGkzWzOBw1/xj0m4fzS/CTVV9P128HXQv4DyMJElcsd0VU8bed7ywlzi79CycM5Kjd2BG4sxIjbcAd6ZnSTR8l03aZP7AD4SVUseMTbXhzjErzd8kft360IK/igeNeV6T/cqA0ZX28W9KOMEK4ANIv4/ZJTFNCpaFu+2NTJ6L3/GiXib55WfjLGZ+y0oH6Ap+weCX6e2Pr1I2NdtoZPB8gj82HEfG7zY60lZo/ibxq5ksz6BB4w49XmTwT1L/ioz69fcDkRL6l9PuB/4e8RaMz8fumhIOuowbd2xoqg+ge+kA+EUEv37EsPdSJFpAzV9QCjpifJppd446DI8r6rDQ/PUqMvfgn0p7qvc3TL8ZAfCDi3C6oPOBv0P8A2bfC8ksCUxb5pKUPO9yYOUmvvSuVw6Vll92Ns55IsY7ClOFdzbso/TGCpSUV3VC4bDhtAPhMwI/iBRYHh1pUs1fkfbw1/yDZiuEM2Yc8drlSj4aC0eVJJsnt25dgA3WP5IHrgb2gT4GfBLc1QOzcwmg7sqtedJZwpGQ+S4XrdH6N176MI52O1nJxI4E8EHzAycZfJYw7rUx8Nca9KsI3ELNXzxICbuC6jPetODaDJdlNS9uyFiGi62kCX1NNqr+3fgZMHOnA7Yx/tsInTsj4I+Nsu5hDhwEbkK6FvgW8FXgi6AvovzrWJr177GI03yQO+vkMk9naQfOGxe84/nrSssuPRPnghGxlGLIEoLPfz+DTxCmvbOB8YQx1d0o+DfBMqjb5iXvMiWcBFRoqhqFNyi4VlCV5le9dJur+QdAP+SnAnwT8VXgK6Argf8Evi+40eBWwaqhfMDsrW67IrxSY9i6fGxcOzZ1Y9Y9Vv00veoLwoj7oWx15UC6vEPDdSmMpd5qPEHuBd7MkFbY+7YXjMz+4MWPZnkpZSXz7EgNvJJuTr6UkgmeaPA+grW7xeCvSt4A3BsEP4R51KQix8kKHny+7TX/0LecIDiLRSPfAz4JfBRxgfBXmbmVEGQ0Z34cWUCzSsLHPZ5WFSrzqyqsH550OhhmQm4gQJhJ8rnPIUkMIS58+2+MzXH10seSOHA7U1jJWU6di7ta86WjHNzqX2vw2zF6vm00/yaAH0JHbjV/aX16z7PYXinBjP8Q6L2IT2C2v0gfGtMcoWMXGau6oJpInRjQaxJa/D0JmIvrM8obdHR28a+Zk+RlKL8tR3EtB8jluejtz6+VXXbZ2SROSEIYOpQlsUZ5rNUj7Fb/VuAB/Xcwa5+/RltMw6efEvhR6MwVWx8n1fw1G2RkVnOl+YtDJVPgAPB2SW8zs6sHYg6YrCZ5783kizMlku4q57/1V5u1RUtDdOvlZ7GM4cz4xmqGMyHMmeEscblyX6wOvA/id814enx/UXCPOeti08Bfc4C0KcZGhdcEP7Fh6qFtauDfVpq/0PoQgP/7Zvbd2JMK0Htlq7ktHwHZCvJi3x//Yq0mbWk9rVx2Jkv3eRvZV56HWRosKiv+hc9dl1LjPg/O9JUvhI1A4V2dDrzAjJ8DigEHMW6RD8wJ+EfVp+RhU6VXOhMUOrevTLh4mn+g8/B54FeBi6J9H9rMuTxJHHm3i5KUfa/7udIqfOfLD+c26QmkHfHd73pue5ukOHPKiAY56xz5msKrCX+qCO893sD7rfX+S0BxxQstTTr9iji8z9dcWXXl5RAOs30CXj9r8JCBrAurbfy069yAv8EMSgPNXslbDC8RAA0KrdUg20Xz4+kPTL3OpZ3f9lkXILXgDmSYIZ+zmq9w0Zt+aWQ2B772k+xIHM4cdI5Eq7eA4fBmt79tYhg+y/CJWzdGsJ7qj61tElUUWLc+deMJkI7C7M6EG23OIOs+3LAHronl46B2+a6+bQH+cXUuqXtt4d7/Ugxo7RyZsPHo/bbX/MXiEAFPB96X3XoLbmlHAmRhAVrOoVtu4pI/f+G65N/+/MP4oWNO7F2tFI6bl6N7i335+3l239smfrAK3RyXOE4AbiM40cK+jJ0wdGfjRFZedbzKGY/JCmzSBYbjmiCxMC19JOhYwlmVJ+G5kwvgH9i63pMeg1uCk/plzjP4Z6T5R/Ce0r8AoRijrV9orQbZNpq/AP+twJnABUDqOss5KA9Nk7P3jc9elzS76qdwJrwPG8wTM2cOJ09mFkal73dSilZ1d4wfJZw9d/LOJe5O6NTHVGr4Mp4GDd3a+YxRv3W0stn4920DmVTmM1xWzQMp85h5sUAoXc93q/nr8p4Cq+sCFk/z+wL8gj0GlwIdS9Kuz1YwHFoV+946DP7VK59E6gxJeIFzlpgzhTPm8ULLwh5u8AS6eowZ96U3qLiuvTXwYSIBOC0QbNjkqBle/p6KVukN/tFbZVnVNhPyPRfgL8Ph9N95StB4zQqt1SDbRvMX2kTAmQX4wbryOZhbp/VXvv4UOngOZqLTMcyT4PDKlcdiHox4dmL2FMJ+80HKY6OFDr2+g0/WBlPVgGU0xQ5eFT5183g7g7+qKSZ75yno1qo8Jm+QZpUpZ7BGuubgZwCMTyeY/R2wbniZYt8a8OdXPTluLzV2pmZ4nCCPS25/DPRSMx47UGRxZl0xsJiUV2urwV9hGcy0gze0LBq3Tb1sR8fZavCX8T75O08J+6yjJmywNn37a34I+8hT4I8Ia8VTXNJFHqQhzX/wq09huePJvMJmE680pLcceDjif5rx8IEiM/rbW926urTgnzx86m0z75p/NuBHYS/AjTSlw0PzF2v6L7LEvWz1lv2kO3fmlncBx9439cGfX/VkzAX5mDgMLwdkguMN3mzwjBjV0z9aOqVRtVrwV+Y/7fAF1vzFO3fADY1aplTzT+J/rUnXCPyaFPwFSAH9knJPZ9euxAxhxt43PasXvXvlkzDXM4ycO+H2AnLBTzmzrxHA7wk7/Bwjz5UfP7Y38uFcgb8qeJYdfELeh7pURf+ZqK8PpN/StilLUu+dO+AHNWs7Z5p/YvADvQvi/gjsUuLRUsLg6Jt60VeveApJ0tsqkUjyXH8twOsMPkA4WCIDNZyDLnk4d+CvAhDzBf6q9LWTzjv4J1G2rH3nB1Pge7VaZG58/hg2OfhFAPz3kf5HHPXIMQfes/f3wgKflaseT+p6eSWI/JZV745Ztg8Bj6d/CEg6eUfYzuCvKmIbj3dsa/BXVav3nwHXpaDvDazemLBBxlVm7jQ/9Pfz/xFmN1MshpJn34Df33G9g5KcpDzL1TlmOfkUYdNJuIaqrgZqZLrVjbPV4K/5HrYb+OvQXIO/FgYKAXCtA66JAWO2S07b569qhJmCv9D+1yL/jngyVw6wlPWvjc6//mQkgTAveXfUDpZS9zHWgr/UhWzge6oifF2cFvwz4V2q4fJsQ5doPN/fiQKAeHTqiAZpQvMNfuj5/noX5m4Bl4ZcPZ9+y3MB6F71JJwLO3TMmSVmsH/lb4FHMInm34CbOjpOC/6Z8V5FEwv8rW6bsZl9wyGuBW5Zl0vTo43mH/xQbOUV74430Hgw9r7xOb0IiXMQ1vOnSB54OfCzhHn9zhC4m9SndhtsV81fVc05B/80NH8d3rekbcbyfLVD/gfAdc0aY9yjuQZ/of0/itmVmDkkbwO85l9/MiAEicI8/ynAq2Nw0gj8E3WEMpp38Je1zXYGf1URDcE9jfCNt42LIVc6kuQQwQ0Izw5P8A/S30aJbmAcc921/VYxQ8IOZVluy0sY/HkMyimOlJoZ+Cdo220B/io25x38m+jyrDM0ZtY2htQFvu5iA3wjNkZVazYtiDkBvwga/FbER2JDeww+8n/CgbH5VU8GwJklO9MUVlZfQjh8IqM4THIztcAG3dWK9hiIM2vwN3z/2wb81dUsjzMDy6Be28TT2fkB4r/SyOQVNXNtUhBzAn6gt913L2bfCSfzeO/z/vkc0fU3BV//WGe8KmY8XfA3AsG8A2BRwT8DzV/VNnV4r9c2itbsNy2xG12M+9UYbCW5NitofsBP722LT4T85ZzBhX8cRv5XrnhCYN5InIEzfh04gbBZyLYG/FXUgn/reC+rxoTg3ijvtTA5xPxX8OptWCkEQDIm14YFzRX4oX/0+WdiVHnry7pOkkbtr0xiOXH2azFdsnXgn3iMozp8y1e6Tcp3RYZbLvhm+c6n1jZFpC8AuDjy8E36m4LGc7g9wS/CeXE3AV+MAd77frrVLpjhovb/SdCdgRyNWx25leCvYHfSK78Gw2cK/rK22c7gL2dzplZPs/BiBuASAOeS1Mwl1wNXlbbC9gT/4JerSNz36XQA6cI3PweAg1c9gSQRxYE8Br9QXt2tBn/N9h8ZXLODV4XPrG0m5HsuwL8tXJ6gDGE/4ksSOJ/nibyHKBFGttT2BX/4EX5+Ge8h6yZhfU+gDimJM5OUSzoReHSM70rznTfw1x47KMlANH8Xm9I22xn81U1RHmeqvBc/vmyOay0Nd9jF59p7mGn+4mfx9r4WWbXlpf4p6Ik5guUPhLX+xxAWDdnYfOcO/KK6nTdgOQwCoA7vU22b7Qz+EQ2mivDZ8l5ovvMRkJO43kNxUQwccWbdtgU/9IF8deEkH1o91Ivyg+S/enEMHl2W0fiqzbPmn2IHrxNexfvCgL+qqbZkvCNcWSF9ssjEIeLqP32ZcJd9yP3wAH9kWgi+XcjbQdv++OwO4Mjjw1PiYzcy37kE/6TtPJB2s8Y7GvWRqmrPO/irNH9ZkpmAXwTlvh/YGzY+yjuTF2YJZocgWgHqHXZR3UAjo80N+CFe021wfTx3W3vf3L+80wxTjnzO0cC9isfVPFaVOybRpnYEqmmzwF+n4CGLeNK+wJyDv35zTJn3aOnrIjO7xpw5Cbm0uzIwDMDHY/46TMBf/MrU3/G4lgwDM+4E3Kb3rLJq8w7+qjar+S42k/fabTMp37D14K9yeWYm+ArG/wUJvJwQaXdpx2DKf4v3NaWl+TRhbl35NRqtNtO1zawMtLr21R664gnFtdMAd4l/i8tBS6q2ncFfXcTc8r7tNX9V20zGdk3e08j+P8cH3pmj2AzkvV/FXOdy0OVFhGYNMLfgH5tRV0MsnrQu7rwBYFM0fxkItoj3EsVYj2+Yb/DX0fxl/aKSdx+TX2gJX7IUk8x773F7X//zOHM4t5TKdwE+HFOtEQDbFvww5rgzH04DK8JuN9Sa8wSAWm1CjY7AFnXwDfJeGb6RtAPhc6n5p2L1FFh+X7zgPjGMdM/eMNrtoxUQI50b/yZDmTRhbrjwMu4mYLox+Mc+PyLdMRjnuOqOUJblvIN/Dn3+qfFeg+8q3ueybabyzkW8BFji/XExqCfeZRd9XQ+Sl/eo2/0c8DWCZvTbH/zjyXqtKIAjYjYTrP/fagBs1Pytrsb25H1KlsHYqLMWjBuoev+dF4r9X83xDXMk3Tz3Prq/DuDG/deE+TDnUut0PPAPMRM/vsDtAn4N/F2bx9ALXqrOgwlezryDv8rn386Cj3r9sArcc2cVVQ2KDL1zi0/eWbzOVd8l3b0XiALgq+/4zSLjoPGlv4k5pLWZG114vXSzBv+Y+F3lgwGueUeo8SJKH88z+OuxMj7OVmv+Kbk8cwd+KmiI7+JW6sss5V+vvE54kR/RWe5FGJjuEuA9mMPsMuBTMb98XQH1Cq9X800F/5iim9a5jKYxqLXl4K+j+Sd4L63m32DbNNL80Df/30wG9zjBUkNkWd/L7QuAI32xUNiiW/yOw0vzN6U1HaHRiy7ht4rnLQd/FZvzbvZPSfPXaYxG+JhG2zTi2xMs+K+vZv5/Z15IyjFj6YwLepF6AmDv7z0DmUPIe3lyn/0D8HXCbIA/LMC/FsgTa/4qEDRMW7tN2ATwb2efv4r3smrMANxD/W2WbTOSbx9DXr2Uuix1lsL6Y3+H97x7j4GcuTRxaQb6k1iAZyxtB/Cr3kuvLHtMmtog2CAA6oTPDPwTVGcozlaDv8rlKeNrwndeFT4Nd3F0cKH9v2jJjj/bn3XxUmYGye4LhiIOCYC9b3gGcSlwHu/N+1PQNTGz0a0w9+CvS1V+7ZjMq+pX5bbVapMYXtXBZwr+qvcygUtUl/fD1eWp0zZVvI/f+Yekl5Ed5Mg0TQzI/fozbtz6/Io3YinYAeCPYtD6wcB5A3/jsCbJNqIFagzeVFWmTgevCp8J+KuynGfwr3kv8+byTNY2GeEOjA+Y2b/gLOHUB+QYpHvOXxd5nQDY94ZfIGyaVR6O0PJvIYwFhHv1iorNG/jrDtSNTD9Ls7+q+Clp/mmMZ7Sav+zBdMDfa7INav7xLysF7Zd4gSTkpeyCy8j96PVtbnTmHsyEcwmpy4Bz+gXMIfhrhdW0BDZVC2yi5q8C90Jp/iret9Dsrxs+OkoY+BPPN+MaM1IzfGJGZ88FIxOMFAB7X/+MUEye5xgOeB/ow6AEkTWq9Bxofg19q5LMFeVP1QQsoyl28KrwqQ+MbWfwVzXFjM3+Oj7/6CjdgE/9pRnvBUuu2+8zMDK5sdmND5Ew58ALJCR+HdFl5IDglLT0Vvr8dfLZtI6wyQN6VeGNBWO9bEfH2WrwT9AnN1PwjaZ4dT1f7uZ6rvcgyR+3y+G9WBrh+xc0VgCEGQHAzAOphXGAl8TggQHBMo06Rz7/OOW/JZq/qiPUCJxGB6/D+1TbpnSwYs7BX5Xlllk9OX2///FpYl0zEkBmkOzZW5qrKw20OObn8wwzh/FWwnbhlGBy1GmZ6rBZa35VvfiKfDZV89cUflV13yzNXyf8sND8c+ny5IQRfyQeZ3B19PtzAw6uGlVUKgDOf/2zwv4g50AewnLCZ4C+AeqwbmqwaKs50vy1XYKql1yS13bT/CPjTADuoSareget5p8y74Pg/wmDz2GkBHeAzBtHPOICqshVRdj3hmcSr83yGIkZB4CfAFZDBRpuFhr7c0aav07HqRW8lf7fFoC/9rupw/ukfMcM5k0wbj34i7l+JB5vxr9ipBgZFrb0dU6vBj/UEAAQPIBAFv0NvkwQAlDsFZg3zd9ox9hWa/4mdS0J2EzwT4P3aVxkuqVtMyHfdXkfHSUOxGu/xMMM/gVIcZaxZMhbpd8/SLUEwIVvfs5AhS0LFeDjSE/p56N8fA5b6PMPxVe9fOYK/Do8wV+HSj2HrQZ/1WBnGV8TvXNPsLY7oC9JPNDgs0HzW8aywx8Ubnc9zV9QLQEAsPeNzwQ8Zg5cEoSA2QeRnhwZSmDUGoGt0/yjY20Xsz+mb+SPljycN/DXOdCjiuG5BH8FTfbOMwJWE6S/WMn0IOBqKHx+oQN5I81fUG0BALD3Dc9CPsPvvxlL0sISOA94BOHKoTg7MKZFNlHzq0ZO5VnPM/gHAHLYgb+qiAZuw5Zo/qkOdhYKNQWulfTTmP1i6iyMARgZGN6DmwD80FAAAOx947NwO3fRvfm7DLgDnxY6GbiUsCDBs3YL8ZZqftVWKqXlzAX4q6q5ncEvqgUfJe/ysND8Yhj4AG/xXvc04/1A4gwDcgmyHJLdk4EfJhAAEIRAsuuE4vjcjLBQ6BsHv/u9B4P+hHCzjothagz+DYSpLJ2NSTo3AIjpVRE+tpjtDP6qIqY0YNgkfGptU1m2CEfvFdfSFxvv/lLivsALzbgZSFlKch8RtbKi2qP942giAQCw743PKi7WgDgtseO2JwrsNxBnEmYK0shQRp1ThYo/TTX/WExUAaImbQvwl7M+/+DfxMHOOkJ/qm2zruRiQC+L4DfCGFoCfAd4veA+wDMxvkIPR5axmmOA272XnY/cx0ZpYgEAsO+Nz0beF1zmmAuMGJ/o3nLD/REvRsQDReQi41EY1GjgBmGV4K/MboxdWRtsWw3+MpBsZ/BXV7M8zowsh/ptM9ix4gXVcUAv3NdnwH8C/0fw5NxzT+C3gCtCnGBJmzNJIs+bTfNVUbrRDPa9+Tmc+uK/AIPc36o0OTIHkvSIo3PgzZL/czN7LvBrwP0ZFjp5bCBj5IUcG/D5+1/imYZjM6oRtNUA2OiodxnLYyq3WT7/TPme9YBfKd9Ffx7s17cCNwD/hfQV4ELBhd7r0sTZIQMsxI4ugM/NcqQOh1Y8ux6+cY2/ljYsAAD2vek5AJz24vcUJwoNWgMHgLewtPMtrB58FPA04LHAvUDJ+FzrWwU29HRkul2gZgKmDs09+Md28CB00fWCs4GbEGktbVhV1zq8jOWnIaDXPZopoJu0TWxfdgFLBKv3VqSbBNc7ZwfjoTsAWEB9QkjkMWUGeO/IMs/yGRvz88toKgKgoL1v+kUATn3xezBMoCzKtMTfcn3mlnd+CviU8hWHW7qfwUOBBwN3J1zOeaRK30ZNP3H4kQMdJCxdrk91OsVcg7+qugLo5jmXJQmrZkQZWZZRjXAr42kK+TcNH3o0Jn2P95KGNKvoE/Gi+VKDKpZvZkguPvBmqCuXdzo5ZMZq7lgu2cI7TZqqAChoXyEIXvQezExA5pZ3QpByhkszg8uBy/sGknH6G5/NA98C77/y/7LkdpAveRxCK8KWwTDczg65rdLZ6VGWoBSUZbBkyAzzCWQ5SeLJJdLEkeXGEd0dyCDzmSoNqVq4n4JvWVdbVoU3Nn/7iHCOXd6z6hyJGZq9EKhJVcVsBdWsU6H+R6SXyVDu5b3yrLtKZ2kZIZZ2f25LWJqJACho35uDIHjoi9+NE5hL8nTHMWQHbwDhsN6giDczffY3/kz/5ogdSHAomknO4GC0XQ8Iw+idXdoTqMUgQjGkUAhkhfEJfCxs4NWMepl1fN/NAvfMfN+hMB+0P95O/ti8Qa6lGdNMBUBBF73puUO/dz//z/Ed508//zl8bve7AYeUQ5IOV8jUF6XF396oQS0N12e0MM2s+vLfBtM6E8TZSs0/JtFYldXS4U6bIgDW0gVv/WUA9vFcmN6MxmTUZNqo0vTfRM1fJ7zOfPjQDFVLi0ZbIgDmk6oG9OrGqQjcVHDXyt8kMJPpsjOt2hKqM/Cohh6UauYz4ZTtqEeKS9XNcA/9DItKrQCoQ9PS/NPw6adl9kfynkOJA8N8tRCq3VgNaStG/FqLB1oBwFxp/rpz3xsN72vLJHHc28ziOoCpLIyYkAaEgJhAJtQfyIji+j9h3BH3i0MLLgCmAf4atu68rWTrI+UEMy4KUyl1m8VK+B7IpGwq0CrapghfNzVfNlc/OFqs0UFxXYjBIZkeAHyD+Zxw3DRacAFQQlNZHVadxfg4MwL/el+507jiW36UV8Pi1rfNMurNCLcCoKU1dLhqflVErrMGYstXN26kbQRx3UkVm4tCrQBYS4uj+QuykswaMrXVC5wqZwAG5zzbUUBaATBMUwG/tovmn4D3SfmukffWjYcsNLUCAOp1fpiC+TtYXsXDuQP/lCyDzZrmLG+b1gKItKEDQbY9ifqKoT3Kq5L9yoBpgL9OeC3N3+TlH77UWgCbovmrfN9m1Zkv8E/R5akKn6pgtNYCoBUA1dRq/gl5n93qxQ21TQhrwR+pFQBl1B7iOSHvUwb/NIRDeNwCfw0t9hjA3M53b2fwV1VzZuBuGt4KAxZeAIyjrV7sUladeQf/nLo8w+HWjgEGagXAOqrRwbdspdt2Bn85m1tg9VhVskWgdgxgLU1jMcvMfOMJqtSLs9XgH8m7CBfGiPWHOxe3SzFzwbfA1AqAguZ6jft21/zreBfhZpyUUUfDD/OeM3AQ3JR4bxcCRWoFQJ1FLnOt+bcd+AtAp4Tj2j8H7AO+iTgEHAXcE9gDOoU++D2FRTAF3lv0B2oFQCU16OBV4VMfGNu24N8Peq1k7zbHt0fWw4FyHmDGi4BfDk/IUSEQNsB76xb0aLEHASv7QM0OPnZEedYr3cqynVvwf9RL9wL7A9C3CX0wpX85ZkpxGaZxOfArErsRV0fwZxsHt0zhyJKFFwOLLQBKacqaf7NWus03+N+D42yDawgHkVie5Z7Ozkwi9yIHZd+8cU/mc0RfOOzN5R8IXAxKY34b5r0dCFh4F0Dlz6fl01eFT30xzAQsD0aYDfj/CeO5h1Y8yx1LgK6ZYc5hJ39kKIfVizrhtljnPN57g44z2597PTpxXAbcmcExgV5ZjQTfomMfaC2AETTrAb0JNX+txS4VRq2qjN6ZjPYnwPe955new3LqEmS5BIdykTzk0+tyWXroJ3EP/QxZtzioWF2DjnPcLPGMGM2Gy9qo1bOY1AqAUbSZ4K9j1tcJr0y6JdOcPv78/53jRmd0MHJMSJ6dp3yaMuqc+hl870YnugapGZ8G/pogAPINgL+1AFhwAeCHfknlINgi8E9jxH9rDvEstP/3JL3XS0jh2utu7khqXsaRnPJZcm9ce70hBXkg8cexBDex5m8NAmDBBcDyIPti6bAEfx0q9QwmdomifNWHndl+Z5aYIS+xfMq/NapeeupnuM2xQsLfuipOfZ32Ir5M2NbrxyYsF3ztfgAWXACYFQfQC+DYygTbEfyVR3lVhbNRq+izg+WM8vnr0KoHuS5HLFly4W8ZoItKG6iW1dNKgIUWANUAGugghx34q4uonXB02xQ+9tUbLgrYcdpncX455iuAr4/Ntp7L044BsODTgLGfFB3hlvERazzcVuBvsMCpqkHGt43Fatxa3CXUzTembUU+iNr9zfmOdRt+7wtNC20BZLlAFDfiXhMfa9SfYdrO4K8qYkoDhn0psDP+tnSDvc25obJ3Nee7aqZj8WihBcDyyUuDP78a/1q1BhygbQf+TZvpUPx5l+KB24DO7e7dTTfrDBZyt/i35r7+FvyjaKEFgP/SKgIfPf1Lw1Ot2XG2lspAsp3BX13N8jhjE+2Jfw0gu/DhNTJfT4kZievCsSfkJCnAQ3r51hnLWR+8PFFFDjNaaAGwfxWQRJhbvgx0LaFDVU8eNwbJvIO/yuVpLPiKvvVjufc7cq/MC0ucuHVvMyGQ7d2NpQ7DnG64DmXZjwAn98upapuRvxJaWmwBcMyPfBgvyUyJM92C+GwMGjG3XAWAMvN4O4N/fDOMTdQfZMtBJyXOfi5x4IxEgh2JuO6C02oUBgc/ewqJOciFGc4MzHh+LCev1vzrwuNtwLpJ4yX9wtBCCwAgLi2jwMj7K33fVvOX8zbMe+H1/37mtdN7ZYSd/hyXpqxe8IjSmncvOJ3lThpqIVKJTOIhwC/F/Mu1uMY+uU7iuzHjhZYBCy8AUucQeA8IPgR8j2AerkdG44Gx7Qz+cjZrjnc4IAPumJq92znDlhIV7kEn9eT7Tl+XzS3//nDyfXtIk95irRSUdb06ZvxV5H38CsDxTBUMf9U5u9ESMy24EbDQ6wAAMkHHIRMpYW75XcArCeZrv30mGhUvSzLv4J/aYGfYv288HfFduvlLFEZaO5LP3DHHSRc9DMmTSyQYRpcuDhPOjATUPZDnyZFJ+lHg3kgZpX13LO9hC7H4ZIyTOO8yFpjaxRCAvvw45GUEWN3WmV0JOorQjcZMM21kLcB2Bv/EvMf9+3q/9zzXOW7xEs4sQbI1iYzgnXkzkLiPwfswTt4A+ItAi27ExYAzzNvuC1hUWngXAIL9b4bMSJ1xLegPY1A4eWaq4C+hbQ9+UcJ7OOUPnuYcVwDPJ+y/yAluQj7wyQja+i7Aa8y4fArgz0GG+Kw5u9icM0nx4KHFpdYCAK7+5HO46+2vwXtZ7qVv3HDQ7nnirsuB+4WR5sEpownm+hdb86/9Mtie10VzfC/wLeidCnwP4GHAI4ClyPvo48Hr814cKPpTwLlA4qX8W4d2cbdHf4pFpVYARMovP7u4MDohdNJTLBxXDT1XYAIADD0uC9/O4G/MtwgaPqnBe4aUUNpXa4A/lPXvOHskZuazXGaG272XRabWBYiUPCCcS2dGbpAaXCh4aQzOKwE6Tvsd9uCvynJkZCMAUhGchQvgGXYJhJSyMfArloXgBfJCuTegf9rQAlMrAAbIx8GALFeG4Qy9EfSuOBvQHYpcRwNWhdcC0ryDf0MuTxAE/WPB3dBvqcJCrcV74eb/psFl8Vgxb2ake/ax6NQKgAFKT/4Y3nucC0fXrGaAs18G/pFwjHUQAnV8/jogqArf1uCfjOUp894lTO/+NWZvwJnLvTIsbgBpqR0DGEX+i2cXGsoJvHOA+Cfg8YiMoKWsWrNvYCEQULmnf67Bv+UuTxfRAT7JUvqYfKWLMzMRHI9kz2L7/gW1FsAIuvnQLcRO5A2cDzPYT0C8l9401JiVaNPS/HUO9KgKn0vwV1V9w+AXkBXg339Ij/UrGc7MUfgcLfh71AqAEXTsQ87HyxezAt7AdbsC49mg/x77UbHMtU/Tmu4rJY2dbq8se234lmj+mbo8PkZLgfexZI/ZtWx5WE0YNnitrLS2/yC1LkAJZZefievJSJk5Z3h5oR8z+EvgBMJotaGKu+x7QRs0+0uzaADuLdH8MwV/WCQU4vwOxh/EMV1HBP9q7tlxxoW01KdWAFTQLZc9nCNsubg1gMQsBWVeOt5h78R4Wux0GZTMV8/c950y+Nc9mlvw5xS7AsV/Cp5t8EkSM+X9Rl/NHTvOOJ+Whql1ASroqJM/jXvAxwB4z74bwIKmMex6jJ+WeApwdZwqNIJbMNxd5wn8VemLn5sGfqppdJy4bqAH/j/Jxb0NPgmkeabedv/Mt+AfR60F0ICyS88iKQz9sFPNEHk3951OYr8JvAw4rohO2Hk2+e01/QgbGPGfgVk/VfA3mukoVhDGMRiB+KjgFWZc7H04dASznCWHVvKFX+lXRa0AaEiHLn40S50EL0hOyOD6NMm98sSBxPFmvAh4HnCb2MHjUQM4RrX3/BziOeLRDKc5m1lFPn4GNgLpUxL/y4yPSmBGqrBvQwbkUrvQpwa1AmBCyi49i8RU9GOzcNxVZgZeOsZhzwL9GnD/gWTFvfZBGGw3zT/0eOaavwD94LjKKnCupD8xs08jgTMnL8zMkxq+6/HydPa0g311qBUAGyR/6ZnFdCFBEZF4KXMYLGVoNTnL4NnA4+m7B8QTbYo77o1172Ibgr8XNJHLU5j3xfr/QboM+BuJvzbjmyGqOSTr5uQunDdI7qFzemvyN6FWAEyJ8kvPjOfeCwkzLLlhJcmOWw5LBSSOBx5n6KnAI4ET12ZBz1WQoYoNMAN/xoaPjLOF4NfQf4Of/srKfvLLgH8WfNCW0n2sZkRTPwHh4zVBBmQZLJ3RAn8SagXAlCm75NEk5lA8XdzFUWqJvLAUvHSswekGZxOEwf0o9r0Pg6AQCtb/qOIijLkC/zDQw+aeYhHVWroG6ULg44KP2xJfZDUkfOM/XsBLf3J3KpHfeBM67uy7ob1fx8uR7mlH9zdCrQCYEXUveRQJDkvEf36/wx2PzywuSkFS3mv41FBXdwUeamgPcApwb+C263Ptaf5iYLFAXCEciu9FiI1MP/JnbfBrXah6UmtQWA2DfNjsP0C4NPQSYK+kfZJd7pwOFDl9/irxo3e3VOAl+SA8DcmT7G4H96ZFrQDYBFq9+JGkScKNHMfR/gack1nh+x/ZyXRLl95N5RjyOhrj7hYsg5OB+4DujrgDcPzoUio1v4ZC64G/GN0Y30/Kzf6bEd8FfQO4Avii4EvAFbaj8x0Oxc2VCsaBc2ELsMAjvMVRlVxw6OAOjlzgk3tmRa0A2GQ6+B+PYClx4YaL4xN0XQ5GXyAYuXKp8G8DCdIErebHYtwOuKPBScCdQD8E3I4w7XgccDRwBLAjfEYcqDGZ5veE7dArwEHEAeAW0A3AdYTj1K8Bvi3xbdB3gO8e7Or6XUvOD1oAAvYf6nLUjk4CmCQPJi9kMsyJzHuW2k07M6dWAGwxHfjCY1n2qySp45YbMo44OsEsmNHWN+31nVtW8x86MgwTjHxpBhyzjL/+0E6DIzAdAXYE6AjErnhL707CWMMS4ax9R29KsjftlhOAvgqsCA6CDgG3RtDfinTAY7cmu+wQh6Insta7iJZB7iFNzCG5gSCPkJcnV5eOWyKX0dnd+vObTf8P5dDsJY8zffMAAAAldEVYdGRhdGU6Y3JlYXRlADIwMTgtMTEtMDJUMjI6NDE6NDgtMDQ6MDDGqLo/AAAAJXRFWHRkYXRlOm1vZGlmeQAyMDE4LTExLTAyVDIyOjM5OjA5LTA0OjAwryRSugAAAABJRU5ErkJggg==;fillColor=none;aspect=fixed;" parent="1" vertex="1">
                    <mxGeometry x="1493.27" y="897.62" width="28.35" height="28.32" as="geometry"/>
                </mxCell>
                <mxCell id="wynJoZTQOHE1wt2AJN_e-83" value="" style="shape=image;html=1;verticalLabelPosition=bottom;verticalAlign=top;imageAspect=0;image=data:image/png,iVBORw0KGgoAAAANSUhEUgAAAIAAAACACAYAAADDPmHLAAAABGdBTUEAALGPC/xhBQAAACBjSFJNAAB6JgAAgIQAAPoAAACA6AAAdTAAAOpgAAA6mAAAF3CculE8AAAABmJLR0QAAAAAAAD5Q7t/AAAAB3RJTUUH4gofDBgepJwTHwAAKOdJREFUeNrdnXmcJEWZ978RmXX3NT332TMwHDPAMgIjICoDu6IcAqIr4oKiLIeoIO4il7iIcoiyiwLKwHqD7yoq4CA3eHE5HDIXczJ33/dRZ2ZGvH9EZnV1T09Pd3VXdw/P59MMVRWVFRnxxPP7xfM88aTgXSr3nXk3EokQInhLAgLwALTWUWCyEGitdIuQMue3s0F7ILTfjkv+8MXxvp2SiRj5JSae3H/mvYUTLwALcP3Xy4DLgWOAakABbcCfge8Am7XWCCFsrbWLAIFAKcWlK7403rc26vKuUoDlH70HKSVaa3Nz/iT6ynAgcDvwiUEuoYA7tdbfEkJ0z5+zkO27t1hVk2d47S11CCHwlMdlK64Y71sdNXlXKMD9Z9yDsMwqtawQWivLsizleZ7WWieEEDcAVwM2ZpI1BhIKxfM/B2gCviGltVwpDxAWaA0oIczvKAGXPbb/Q8N+rQA/+tj3sTwbIYWZ0gKcF0Kgtf4ccAsw0/+KS+8kDySavoqwCvga8Iz/2vY/f9fwg/1WAfrgvNYCIQpx/kTgu8BS/7WL4QFDvd/+irACuAZYr9EIhK219oRAg9ivFWG/U4DlZ96LRKAZEOcXALcB5/rNXYxVkMX8FgYuKPj+D7TW3xRCtHmeh2VZluu6nmVZCAGep7ns8f2LKO43CrD89B8gbQvleVh2GK2VJaVUSimttY75OP81IEQvzluj9PNewbXagW/+09Kjv7/6tTcQQkh/16CklLiui1Yelz6+fxDF/UIB+m3r+uP8ZzE4P9v/fF84PxIpvPZ64BohxAp/17Ff8oMJrQCFE6/RQtAH5z+Awflj/dfDxflipT8/eAZjeVYV+A88gdCIia8IE1IB7vvoPVhSGpzX/XFe14C4DTjPb+7591Eszhcr/WFmudb6G0KIJq00QgpbaeUKBEIItPK4ZMWXx3to95AJpQDLz/g+Qto4jkskEkZrbQkhlNZaa62iQsjrMWw8jBl8xejhfLFSyA+6gW97rrrTsqXn8wMhhPCqp1bT0tiK8hwu++OV49zlXpkwCrAPnL8AuBWY439eSpwvVgr79A5wnUA87O9WLHoVdkLBwrgrQB+cN6ulEOdPwOD88f7rscL5YqU/P/gLhh+sNB8F/oOJE2gat4Ec3G+v54G4Ffg3v/l44Xyx0p8f/Fxr/XUhxO4+gSZz3yjlcek48YMxV4D7zrgbS1qkulMkKhN9cF4pHZFSXAtcB0SYODhfrHj0wlkauF0p/R0pRVYIIbTWUgjhea6LlBJXK74wxoowZgowt2IWNy67YTCc/zcMzs/zP5+IOF+sFN7LTuAGIcSDvvXL8wOBQGmFTttc+uylY9KxMVGAfeznj8fg/AkFgzWRcb5Y6c8PXsHwgxf91zYaDzG2jqSSDvLyM+9BCh/nNQjZi/MaPUcYnL/Ab76/4Xyx0p8f/B/o60FsG4gfaKW4pISJKCVRgHtO/z5h22bhlNlsba3vi/NahaWQ12BwPsb+j/PFSiE/cIDvaq1vFUIkQ3YIx3WsUMj2stkcQkg87ZWEH4yqAly45ELeN2/pYDj/KUy0br7/+bsJ54uVwjGoB24UUv5YKwUD8APXUVz+5OgpwqgpwD7288dicP4DBTc9tjjv5/YNetc6H8kZs271/nIffvAmhh88778uWaBpxBOw/Mx7kBi/vdYaKWUhzs8SiFuAC/3mY4PzwuAnwgyZVhqtNMpT+f/XBZMshPmPkAIpJcIy/+ZHR9OnfQlF+X+BIjyCgcqNhfwgWGhKKy79w8j4QdEKcN+pP8AKW4RCURwnB2jLbG21Up4KSUt+DbgeiDMGOJ+fcMBzPLych/IUQgjsiE24LEK0LEKkPEooHsaO2EhLgtZ4rsLNOOSSObI9GTLdGZxUDjfnAWCFLKywZdpDntSWUAoXigb+R2t9sxCiM5PLEA1HrXQm5UUjMYQA5cGljxdnEYatAIsqFnHVsi/1x3kJuD7OfxKTfbvA/7ykOB/kA7o5FzfrIm1JYnIZ1fMnM/WgqUxeMJXK2ZUkJpcRKYtghQbXQSfjkO3K0NPcTfuudlreaaZlSzPtu9rIdKYBgR2189fRqqSaUBhoagFuCoVC9zqOk09EAZSQAuUpXEdz+ZPDswjDUoCBcF6jXR9bl2Jw/kS/eelwXoCQEuV4OOkc0pJMqpnM3KPnMffoGqYePI1oeXSvX99jBQf8YJCedjd107Cujp2vbad21W56mroRUhKKh/ztWskUoT8/WIuJiD7hvx4RPxjS5Cw/4x6kZfbzAc4rrVx/jz9TCPFt4PN+89LhvMC4THMuTsohPjnO/OMO4OCTD2HmEbPzJjoYCFTvHQY4P5Th1vRVECH7fi/TnWHna9vZ9NwGalfvxsu6hBMRhBxTRXgCowhrCxNREEILjGW6ZMW+FWHQEbnj/d+hqroM27bxlAeaPM57nmdblvWfwNeBBCXGeWEJlKPIJbNUzKpi8amHcegpi0lMKesdIZUPLI263Sm0GoUK0bypiTUrVvHOXzfjpBwiZREQJYWG/omq92qtbxJCtCilkFJanut50pIIBFrBJY9fvvdx3dsHVx13BYunH1oYrbPo3c9/AoPzB/rNS4bzAeRkujMkqhMccfYSjjjrnwgnImZigkmXY+g5DnYFord/7TvbePP/XmPznzeBhnA8jPLUCH9oUCnkB53Azdlc9q5IOKIQ+O5XE3Z2tccX/jCw72Cvo3b/WT/07xQRDoW14zoARwHfA07ym5V0Py8tiZNx0J7i0A8vZulnjicxOQFgGL4UhWR0XKS/AtavrePVH79I3epaImVRhFVSWIC+i28TcC3wiA8LEt9iXPzYwFZgwNH70Zl3E7ZCeJ5HOBQ2qc7oWzF7Uij1ft5fWZmuDNXzJ/OBLy5jznvmAmbi++zRJ4j0V4S3fvsmr/3yVbycNxbWoD8/+PWGLfWfXnLYXOUpLeLRkG7tTPGFAWIKA06ghUQrjRDCclwHjf4WZvKDH7Io0eQLKUBBtjvD4tMP519/eB5z3jM377yR1sSb/KDfhSRwySeO4py7PsmUA6eQ7kyXGqIEveceXa05d9FBsx577a3dXPjbS7WnNIcsnD7gFwckbGccfFqh+VgC/IpeXlwyL56QAi/nooETr/xnll5wnNl9eAphyXE390O6h8BL5ykS1QkWfeRwkq1J6tfWYUdCJb0HY/WRoZB0cjlv0aTK6KYPH/CRtemMY63b0KD/Wvf8Ht8ZjLgFPQ1SWD1K6NCRliSXyhGrivHhG09nxuKZZjUJENb+FyGWlm9FpeCkr/4Lk+ZO4pX/fYlQNGQsxSi7ljVg2xKlFPWN3bKuoRNPqSmep7EsKTzXG/B7A06olFJorT2NDkkhl/lvl8yNKy1JNpmlclYVZ9x6FhUzKg3W74cTXyiFE73kX48mMbmMF773LNKWeb/KSEVrsCyBQNDekWJ3fSfdySyWIchHSdMHLayBLc9eV7QQAoGoBiaXdJD8yZ80r5qzvnMOsUnxd8Xk5++vABIOOvkQQrEQT9/yRN6pVawSaA1Sgm1JelI5aus7aetIARCyZRDQTOT7sRfitK9RFpSQcgkpcFI5KmdVceZYT74u+BsDkZZEeYr5xx/AKdediud4eV/CsLrt9zdkS1xPsX13O+s2NtDankRKgVnx+eb73HqM2zIzhM8jVhnjjFvOIl7Cyc+HgAvDwII91FtrPWC4eLQkUIIFJxzIsiv/mVwqt9eVOeB9aIPzQkB9UzdrNzRQ29AJmPcHGuZ9XXN8snEEaM9o/4dvPI2KmaOP+YX78v5bMK00bs41ziRA2hZ2xB7Qhaw9BaPocAp2NYd+eDHdjV2s/PkrxKrig/oJ8jgvBB2daXbXd9DVY3A+MPfF6uu4KIAQgkwyw0lf/RdmHDZrVCff91/kJ125itZtLTRtbKR1awtdDZ2kO1I4aQfPVQhh4v3heJh4dYLK2VVMWTiNaQdPo2rOpPwOZDRdzkJK0LD0M8fRur2VrX/bQrQiuocSFOJ8MpVjd0Mnbe19cX6khmrMFUBaknRnmsWnHsbi0w5HKz0qkx9suYIJalzfwJa/bGL3mzvprOvEyTh54iUtadrlK8z4Zn9TI8rTCAHhRITq+ZOZf+wCDvzgQVTOrsr/TmEMoCjxj40LBCf/54do3dpCT3M3dtj2I64mcBmyJTnHY3ddO43N3biewsonpYzOfIypAgghcDIOk+ZV84EvLssPxojED8wEE7/tpXdY/dhbNKytx8252BEbK2wRDUf7fif4HwbOFdRK07Sxkfo1tbz5m9epee8Cjvz4e5h2sPGojdRqCWGSOMLxMMu+cjIrrnvUpNVhVrzSmobmbuoaukhnHWxLYvey+1GTMbcAylW8//ITsaOhEQ9iftULQeP6el79ycvUvrUbYQnCsTB21M4ryGCkLqg31H9HEIqG8n78zS9sZOuLWzjopEM49nPHk5hc5sMNQ8szGEACUjh7yVwWn34Eax99i8SkOG3t/n6+J4McBZwfTMZMAYQUZLszHHrKYuYdUzNi059XHg2v/PhFVv/+HyiliZQXhIlHOGBaa0NWwVxXw/qn1rFj5Xbed/H7OeRDi/K/VTQ38Pv4wS8tY/vr21n3xg46e7J5xl+qiQ9kzBRAeYpoZYz3ftY/6T0C0x9Mfk9TN8/c8iR1a2qJVcZKmogRXDdWGcPNODx3+9PUranlpKv+JR8EGo4S5INb/vbt5YffYPWaWjraU4QjIfC5QKllTBRAWJJsR5qlnzmWsmnlIzL9wXebNjby5E0rSLWl8j6EsXDqBL8frYqx7o9r6Kzr5LSbP0o4Hh6SEgSEM8jY2fjyO/z+9qfZ8NIWIokw4Wio1PkDfaT0CiBAOR5l08o44uwl5q0izWUw+PXr6vjjDY/hOR6RskipY+17iNYaPE28Kk7dql08dvXvOOuOcwgnIoMqQdB/YQmatrXwyB3PsPLRf6A1lFUn8k6osZSSewKFNFG+Qz60iFhlLJ+rP1wJVk3r1haeuPEPKFdhR+wxn/xCUZ4iWhGjeVMTj9/wGMpVA0b6gj5KS5LpyfL7257kpg/dxSsPv0EkYc4rKE+N1eGTPlJyBdCuIloeZdFHDgOKW/3BNi/TlebJmx7HzThYYWvMV8tAYpQgSv2aWp77ztPmHn2Co5VGFZDdvz60km8su5NHv/uMyReYFB9w1Qvfp1/411+G0mYoUlIIEFKQ7ckaR8qsqqLZcmAxnr/jWbrqO4hWxMZ15fcX5SliVXE2Pb+B6YdO58iPH4Wb87DDFgJ4+6+b+f3tT7H579uIxMOUTylDeWqv95Dpye6hFOFYyBBGvfc2kXh42OM7JiTwoJMOGdHgSkuy5tG32PbKO8T34TcfL1HKWIK//+wV5h0zn0k11dRvauSR7z7D6ytWI0Qvzit38P4vev9CAwtKm3iVFGz7xy6SHSmjBKqgje+5BHjnjR1kk7lhKUHpFECYM3oV0yuYs8QkdA4X+4McwJ7mbl57cCWRRASlJt7kA2hlAjYqp/nT3S8gplXw9A//TCaZJV4ZAxhUcYUQuI5H+eQEV/7y84RjoT6f33ji9+huTYLQJKpiXPnLzxGOhfOf59IO173vO6S7s9jDSDYp3Zk9IXAzLjOPmE04MbQt0p6jCgh446GVpDtSeRI5kSTw29u2xHE8GjtSvPnwG6R7ssQqoiSGarGEOd84bf5kwrFQH+JYv7mJll3thCI22WSW6QvmEo6FfeIIli3ZsaaWzsYuwrHwsMhkSSFAo5l79LzivusTv45d7Wz+06Zx2e7tu49m1aOhubWH2vpOUmkHOyQpq04MivP9RQiB53jMPnTGHp/Vb24i3Z2hfHICt1+bwKjWbmjAybpEEpG893IoUjIF0J4mUhZhetDZ4XI/f/W//eRassks0cqYic1PADFhWoFlCbq6M+yu76Czy/fbh4z7dqirvv//zzt81h7Ndr1dlw9zIwTzDp+9Z5t1dUUR7JId53JzLpNqqqmYWZl/b+gj7KeLpXNsfekdQtEQegJgf2GYNpVxqGvopLktWZTfXvuFK4JR8ZSHHbaZfejMPcZr2z92oZQml3awLMmcRcGi6t3+bV+9O18EYzhSGgsgwHM9qmuqi/OT+wnutW/tpqu+k0hZZFz3/L4xwrYlruuxq66DhqZuHNfDsiRCDj9gY9nS1Bjw79VzPSqnljP9gCn5MQyIYbony/QFk5GWJF4RY/oBU4MmACQ7UrhZl+kHTCGbzJFN54a84EqkAALtaSbV+AnFOhjC4cnO13eMu7Mnj/P4ON9gcN4qiM8PZ/KlJUl2pDjh3GO44PZzSHamzSrWYIUkZZPi/hCa37QsyVd/dZEZU39XFI6aHUKwqGLlUa559HLiFVF+etVv+Msv/05i0tDIZ2kUwCdwlbOM+R9uvDy4saYNDdhha8wyd/vdQj+c76SzyxzxGml8XitN1HcBR8si+xyLSGLwNsYymIQXK2RNgF1AoM1Ty4f/Vd8k9jR309XYjRzmDY246wU4n8441DZ00tKWRI1mfF70kkQ35yF9CzPQaWet8ukqxik0QOKq8p1LduAeH8Z6K4kCaK2xwjZRXyuHZf19tOhu6CKXzBoCOAYKsAfO1/s47xict4vA+cF+zLLNQSs7PPiBKyH3nTgupUD61zG8YuhdKY0CKE0oZtKpipWelh6U64EIlRwCCnG+pTVJbUMnyXQOSxaH8/v6MWlJetqTtNd1kupOmxOdlmTagil9gjrKUzRta0X5HbDDNtPm9z2o5eY8tr21C8/xiFVEaa/vxLLH0xPoZ7xaIStfSWs4hx/ywY6uTLHcceg/VYjzPRlq6zrpGCWc35sopYmWRVj17HpWPbseIQTZVI4FS+bw9SevyLeRUrDr7XpuOf1uQmGbVFeGIz+0iK88dFFh7WV2vV3HLaffjR2yTEJpyBrWrqlkHEBIWeSpXjPrbjYoMupXexzN7hXifNahrqGL5tae0cX5IYqQxmcy13fu9DJ3wc41tWSTOSLxCJ7rMf9I88Sc/BkFBDvX1oGGaHm0N6dgvCFgokpfnFfsru+kvqmrNDg/TAkmt1B2rKn1iaFZ2TX/tGeb7at29TnSNlwpmSNIK1Wk69bYfDsSdG10ZqQPzrclqa0vIc4Po0/KU4RjIWqO8N27Bd69La9tx3MVyc40diSU9wAWnnzaubbOmH+l8juo4cjoK4DuDWx4jue/pYfOA/xm0YqocR+MOLW7F+e7e8x+vqPTEK9S5tvvTaQUpLoyHPuxJXzyv84g1ZnGsi2mLZiS/xyMYpx/28fMKWIgFLaZPLfaDFHQRmkuvvs8E3TSmnh5lN9883H+/uhbxCuiqCFYhNLEAqTB8FwqR7w6UdQ1yqaUIe3inUB9cd41fvvWHpTW47bizeCYE0FlkxJUz6qielbVgM2kJVm4dP6gl5JSMGPh1D7vJap9D+AQV0/pgkFZh0xXxrwxHDbvtyufXkE4EcFz3KKSSG1b4nmK2oZO6hu7yDqeOV7V9/z8+IgfKwGzjbNsuecJZh/Xg7ErNPt7tAGUp7HDlsk2Gm9HkMkGUvQ09wz/q/5kl00tp3x6OW3bWrAjQ3MGFeJ8a1uS3Q2dJFMG58fD3O+9o+QTRffmCBJCsLeyLgO1kf5lgtNSQ5XSBYOUprOuw7/h4W3og+jh9ENn0LSxETs6uDMowHnbEnT1ZKmt76B9HHF+n8MjBZlklkwyS6ojTeX08rxnMJCulh48x8u7fiumlu+R+VvYRnmKeFWMTDLrV1AfVz+AmcD2Ha3+HRfnzZl3TA1rV6we7GfyOJ/Juuxo7KSpJYlSanxxfhBRniJWFmXVM2+z6tn1lFUn+MZTVxCvjOUVv7s1ybdPvZt0dwblekw/YCo3PPFl8M8cCCHoaUtyy2l3k+xM+54/MxZuziNWNjQCCCUNBlm07WgrKhcwgIFZR86hYkYlqfZkn5TofOcLcb6pm2zOLdkx6lEVYTA71ZVi7qKZZvK1zlOlhi1NtOxqI1oWIdmeYvHcSVi2zE+qENDwTjPNO9sIx0K42d6hEcOsXVCSgyGBK7iroYuu+s78e8MZIK004XiYA044ECftmPKw9Jp7KQWt7UnWbWxg++52XFcRske3eEIpJThBNO8IkwJmCJ/p+K636/EcD9t3peedRHrgNsISSP9vuIS5dFU/LUGuJ0Pjhga/88O9gPln8WmHE0lE/HIuBtOTqRwb32lm09ZmUmmHkF84aaJMfBDc2adoevP7Cvq+Y02t2S4qc3p47mF75gnuXFPrx10YUcWzEh8NE+x6c2fRg6iVpmruJBaedDAq4+Apzdadbby9qZH2jhS2lP3Loo27CClwci7JjtSAW7dAlFJE4uF8EmhQPBJMhq8dtvAcj0RlnDl+Yq20etvsXt+AHbJHHCovmQJorbGjNvVrak05ND/taXijaf5Zev6xdORcVq2tpaGpC/CDNqXqfJEipCCbzFJzxGyWfeZ40t0ZssmsORFcYJoDT2nl9HIqp1fguR65dA6lNC272mje0UooYuPmXKrnVJGYFDeOtbSD8hStu9tp3tFqEkBGqAClCwb5RLCroYvaf+xiwQkHDttXHWxvElPKOPLco1lz7SNUTa/wiyyWrOcjumchBOd960wOPLqG9551JL+//Sk2vbqNaFmEkH+aOcjtS3dnuf2sH+ZrFgkJbtYjmzJJnVbIoqO+k5tPuYsgKTpok0nmhr3nH0jGJBq4+U8bWXDCgUV9NzB5H7nsRNb/dTOrnllPWXUczx3/NPFCsWyLzqYuPn7DaRx4dA2u47H4gwex+IMH8edfvMqK/3mO5h1tJKpi+dpAbs6leUcrhQ8oDCYejDLl0g5N2/feZqRSUg6glSYcC7PrDVOqrdgq2YG789/vPo+p8yf3av8EEcu26G7t4ajTjuDsq08BTPg2iO0v+8xx3Pynr3Lal5ahPEWqM53H81AkRChi+38h7HDfNSmk2GebkUjpC0TYkkx3hvVPrQOKq+ETPBevfHKCL//sQsKxEE7GmRBKYNkmzXv+kXO4/IEL+txj0D/lKRJVcT5185nc+NQVLDllMcmOFLm047tydb6S2UALpPCzfVU8G66UvkCEMrXwNj77Nmlf84sBcGlJlKuYd/gsvvLQRVghi1x6fC2BZVv0tKeYdch0/uM3lxBJhPPPMurfd63NqZ05i2Zy5YOf54pffI6ZC6fS3dKD541OscxipPS/qkGGLHqaeljz6FsAQ3ZT7tFZ2yjBwccu4OrfXkqiKk6qK72HH73UIoRA2pKulm4WHlPDdY9dToVf9GFvExn4BoLMnaNOPZybnv8qn7r5TCKxED1tyXdniRgwViCUCLPu8TWkWpMjelhCoAQHHDWPG5+6ggOOmkdnc7cZ4DF4dJy0jPu5u6WH95+3lOtWfDF/EngoqzgoZ6s8hWVLTvvSSdz0/FUs++zxxvM3xjowRgoAkYhNqj3F0z94wX9zBJ22DYuePGcSX3/iy5xx5cnk0jnSPdneOsCjPVD+Xr6nPUk4YnPR98/lkns/jWVbfeoADed6aFNEo3pWFRfe+QniVXE8zxvTZyOVdhcQhGltSWtbkq0NnTz2o7+w9s8b86ug6I5bJjgihODcmz7KtY9dzsHHLSDZniLTk82b3JEMppC9Ll1D2nKc8MljuOn5qzjxguN6iz0Wq3CiN73r1zc9TuM7zYSGmPswWlKik0EDP85ESEEobPHQ9Y/yzeevylezKHaSAjewVoqFS+dz7aOX88Yf1/DcAy+yeeU2nKxLOGa2UCIfTNpL2nRw4qrgES/ZZA4n65KoinHs2Us45bIPcuDRNfnPR0rcgmtsenUbzz3wN+JVY18BZVQVoDA+n8257GrqpLG5G6+gzHk4FqZuYyMPXvcIn7/rXLQCMQIOJ/ynigWHKY4+/QiOPv0Itry2nZWPrWLdXzbRtL2VXCoNAizLMn53KfKTbWoCKzzXr+ghIF4RY8GSuRz5oUUsPetIZhxocu+Cwk0jnfyg7mEuneNn//EwCBPJG2siOGoKEBRJUEpR39RNXWMnmeye8XnlKcqqE/zlwb9z4DHzOfH8Y/FcQ4hGIoXZtFKahMqFS+fjOh6719Wx9R+72PV2Pc07Wulu6SHTkzV5eUJgh21i5RGqplUw/cApzDt8NgveM5eZC6f1mbDC3xnZYJF37P3kK7+hdmMDZZMS41ICZ8QKUPg4k/bONLX1HXT3ZActc66VIlYe46HrH2X2IdNZuHT+qCgB9K7MAJ/tkMX8JXOZ71cqA6MkTsY8MQQBdsjeoypXYdvBonrFiFLG9D9+1/O8/PAblE8uG7f6R0WPeJ+067TDpq3NbNzSRE8y5z/YaO9hWq1BWsbc3fP5X9C8sw3LlqPq388TOL8US1CwKQjERBIR4pUx4hWx/OT3aVfgzRvNyfdcM/mv/O5Nfnfrk+O28gMZtgIUPrbM8zQ7drezdmMDrW0DPrZs79dRmnA0RHdLD/997gN0tfSMuhIAeaYd+N7zhDP/IAnypLBPuxJsJQMrt/q59fzkyl8TSRR/enqIss+ZGJYCaG2YvRCChmbz2LLdgz+2bFBRniJaFqFxawt3nHNf6ZRgIAly7Uv6ZMReCSZ/zQsbuPeiX+QVrcSkb593tq9ZSwHpwv18R1eatzc1snVHKznHHXEenvIUsYoodRsbue3Me2kpARyMp2htCkZbtuT1Fau5+7M/A/xSLqWrfxRcuM7/V+xN0QZUAK3RoZAlQyGrSwjW+eVS1OatzWzY0kRPMrtPnB+OBErQtK2VW06/h3de32GyYMephPpoSUAgpRQ8+8Df+OHFv0RastSTD70r/0n/373+2MCPmxTQ0ZkW3T1ZMln3ZzvrOli7ocFr8XHeKkEeXgAHPR0p7vj4ffztVyvzmD3RKoQORQKyB/Dzq3/Hg9c+QiQRzgeESigO5kHfbwohnwlHooD29tZ4QBfMmYeezkuvbWPLthZWrtu5MSSsc6QUMyxLOJTwecJBOjnAysdW0dHQxeHLDsYO2XkHzVj6yYuRIBwspaB+cxN3nf9jXl+xhvLJiWEXbxju8AEuEOxnPwq63vNcC9Bpp4dV3Sv3+NKACvDRQ05jR20HFeVRWRmPOhVlkd96nj4WOAAz+S6lUgSfb0TiYTa9upU3n1jHzIOmMW3+FGMN3ImpCEGYN1j1z97/N5Z/4SFadrYPuWbfCMTDWHMLaAPOBF7yX3sg+PHOOwf84oAKsGLjE3xw5slIIXUoJKXjqh4p5c+AbcBSoIpeRSjZ4ZJIIkJnczcv//p12us6WbBkLrGKaC8sTABFKJx4IQXvvL6D5Zf9iud/8jJ2xPYrf5ds2SvMyg/m8S6t9dlCiPWAJRCewPhb3uh4ccAL7NULf1TF+/P3KISQUkg0epXS+kdCCAUcB4T9DihKoAhamyPPdthm06vbeOV3b+I5HnMPm0U4GsorgmZsFaHwWHYQ36/f0sRvblrB//vGClp3t5OoMhU/dWkWvsaseguzEFeg+RiCBxFkhYmueEIIlFYs337bXi806KhdUnMNUlr5c2tSCFtr7Qoh0FAj4Fbg035zz79eSSyCtCRuziXdnWHagimceP6xfOC891I1oyLfJiiMMNzzcUMa8YJJLwwE7VhTyws/eYmVj60i1ZUhURlDiOKznoYgLr0u/DXA14Cn/Nc2Zh500OfBJh+GiOGXzr8uP6B+9NbyOwJwAnAH8L6CDlpDvfZwRAhTfczJOmR6clTNqOA9H17M8Z84moOPXZB/CGNw8/lV6h+xFvmY7yCi/UfJ6t7zjP0jf8mONGte2MDLD7/Bhhe3kE3niJfH8okqJZJgxYPB+f+yQ/Y9ruPiv68BJYRAKYXnevzv7jv2PaZD/fULar5OXCgKDvhI//ueH8Y8H2MRgqhLoaaOqgTBGdfxyPQYn8SsQ2dw+LKDOfykQ5h/5Jy8CR5IBmTj+7AabbUdbH5tO6ufW8+Gl96hZVc70hJEyyJIWdKJDy4caOEPtNY3CSHac9ks4UjE+tHmW7zLFl5PgPfLd9w25IsPe5VeUnMtUgpc1yUUCqO1toSQSmulldYRKcS1wLVAlF5+UJqsTf9x8FqbWvpOxsEKWUyaWcmcQ2dQc+Qc5i6eyfQFU6iaUUG8MrbPnPpsKkeyPUVbXQf1W5rZubaWHatrqd/UaJ7ZA4TjYUIRG3wvX4kkwPmgw09gzP06P56ch2MArRXLt99ezBAWJ0YRZN5cir78YK7PD873m5eUH0CvVdBa4+Y8nKyD5yik/yTxeEWUxKQ4icoYsfKo/xg2U6/fdcxxrHRXhmRHimRHmnR3BifjAGCHzaGMwEcRhJpLKIXWcx1m4p/wXw8b5wcdt5H2tA8/QAufgQb84HjguxieENxYSfhBn5sKzHlBelfvnzZPHivAeOFn45hz9hKrX0Qwfxij9F7pQpxvB25KxCM/SKayCJBBTk1Q/yudSvHzxrtGNlaj0etT+TfmzZ9XiKEF/AC05tMYi1Djf14yfjDYnQYkMN/LfGi4tyR7IQkcQ+m/n79Ha/1fQog21/WwbctKZdJeLOL7QLTi/iLM/V6GZfTksprr0ALSmQyJeNzwAymUNgwhLIW8BrgOiFFqfrB/SH+cfwq4Gljrv7a11i7ClNkcqbkfSEpiii+puc5PDMlXte7lB1rPEULcAnzGb15yfjBBpdAKrgeuAbHCNz2jivODSUmxeEB+4Gs0xpN4B/CBggEpOT+YAFKI8x3ANx/d9n93nb3gUwghpM9L8vv5XE7z07rRMfcDyZgMdqEiUMgPEGj0p4DbgPn+52PPD8ZG+uP8D32cb/GUhyUtK5fNeaFwEMzTRW3rhitjttourrkeS0DXrlYqaiaDxhJCKK211lqFhJBfA64H4ry7+EF/nH8Gg/Or/UMxttbaM7tnUVJzP5CMubkNrIGJL2ikkIX8YLYQ4tvAhX7z/Z0fFFqzjcA1Ah7zNxh9cB6tuW8MJz6QccPbvrCgBX39B+/F8IMT/df7Gz8oxPku4OZ0xvnvWDSkC3FeSoHnaXJOip/W3jUuHR33Ad0rPzAW4ZMYfnCA//lE5wf9cX651twoBM1KKaSUluu5niUtv56y4v4dpcf5wWTcFQDg4rnXYlmSSVPL6GjtQRt+oLXWSiltSymuBm4AEkxMftAf55/D4Pxb/jEwH+dFybd1w5UJoQCBFPoPzLHrPvxgps8PPu83nyj8oNAqbcbs5x8Z6/18sTKhFCCQAfMPev0Hx2DiC8v85uPFDwpxvhv4luu6d9q2rfI4L1BSSlMI0snx09o7R/BzpZEJqQCBDMAPJOD6/oNPALcDQQHCseIH/XH+AR/nGwOcV8rzhPDPTQjN8q0Ta9UXyoRWAICLa65BCkk0EiPnZP38A8MPPM+zLMv6T+DrQJn/lcKVOZrSH+dfwOD8m/5p7wmL84PJhFeAQPr4DwJ+oJQrTELIDCHEt4B/95uPNj8otC5bgGtB/G5/wfnBZL9RgED68gMthBBWQWbM0Rj/wcl+85HygyDfXgA9wLc9T33PsqTn47wQQniWtHBcB8dJ85Nx2s8XK/udAgDERZwLaq4s5AcCM9Gun39wDoYfHOR/Plx+0B/nf4zm6wgalNZIIWyllBskkihXcf+u8d3PFyv7pQIEctGc67FtTShk47keml7/geu5lm3ZXwVuBMr9r+yLH/TH+T9jcP51//V+ifODyX6tAIFcOu9ahH/WPuAHSivXHGZhmoBvAZf4zYODkoX8IHAuBRO/FbhWwMMFfnvl/70rJj6Qd4UCBHLJ/OuQ/fgBvfGF92D8B/88yCVSwC1KeXdIabl5nEd4ITtM1s3gac3/jkGYdqzkXaUAgfTzH+T5gf8k+rOBLwOLMK5lF6gFntZa3yWEqA3CtEprV+A/4UMpHhhnv30p5F2pAAAX1fwHIRFG2rafBdzrP/ADMVUCUQ7k5syY3bi7sTb4al+cV8M7aLG/yf8H0xQOOk18bSUAAAAldEVYdGRhdGU6Y3JlYXRlADIwMTgtMTAtMzFUMTY6MjQ6MzAtMDQ6MDDgdtwlAAAAJXRFWHRkYXRlOm1vZGlmeQAyMDE4LTEwLTMxVDE2OjI0OjMwLTA0OjAwkStkmQAAAABJRU5ErkJggg==;fillColor=none;aspect=fixed;" parent="1" vertex="1">
                    <mxGeometry x="1383.62" y="930.97" width="28" height="28" as="geometry"/>
                </mxCell>
                <mxCell id="wynJoZTQOHE1wt2AJN_e-84" value="" style="shape=image;html=1;verticalLabelPosition=bottom;verticalAlign=top;imageAspect=0;image=data:image/png,iVBORw0KGgoAAAANSUhEUgAAAXcAAAF3CAYAAABewAv+AAAAAXNSR0IArs4c6QAAAARnQU1BAACxjwv8YQUAAAAJcEhZcwAAEnQAABJ0Ad5mH3gAAFLVSURBVHhe7b0HfBzVuf5/VpYsS1bv3ZZ7BVwwDjgUYyAXbuiEkEJMCyQ3PX9CufxDuVxCCqTnAgFCCL6EGAyBhEux5YJt3HuVLcu2JKtavVht93ee4xlltJrdnZV2pS3P98Ow07Syds88885z3vMeQQghhBBCCCGEEEIIIYQQQgghhBBCCCGEEEIIIYQQQggh/sSmvRISMERGRkZoq/3o6emxa6uEEA9Q3MmI4UrEvYWiT8hAKO5kWDAT8ozMzFi8VlVWxj/848cTOzu7JmO74lTFTLtDZGJdJ8ImqnNzcvdjPTp69JGnnni0KSs7u6WxsbGrq7OzR51kgIJPwh2KO/EbZoL+4COPTtm4cUNeVnbOfAh4TW3dxQ2NTRNwLCJCJOJVirwDr0akoKu2areLJrzGxcZ2pKQkF8XEjKkV9t49kyZN+vTlPz5XXlNd3Y7jOhR5Eq5Q3IlPcRb00dHRkT+4/8EJiMqLj5bcKsU261RV9bzu7q4Eu93Rd65dqnaEVHdPmJ0XEWGzJyclHUmIjy9PTIhbOaGw8B3sf/rJx4vVCQYo9iRcoLgTn+BK1I+Vll5fVVN3C6Lzzs7OpO7ubjFq1ChLQu4NEP3e3l6RkBDniB0TW6Wi+uioVYjoKfIkHKG4kyHhLOrw0b98+52XIUo/WV5xTWtra5I/xNwdutBHR4+2Z6Sn78rKSFuOaP7Znz99zNmfp8iTUIXiTgaFq0h97/6Dj0DUOzo6krB/OEXdDAh9ZOQoJfIZqcm/QyRPkSfhAMWdeI1R2CGKjzz2X9OOHiu9t6Ki8tba06ezR1rQzYDIg4mF41fFj41Z9u7bby6jwJNQhuJOLOPKgtm0ddvPGxobJxs7SK2gCy4sFAAbRc+KSUhItDU3N6msGX0dWTQ9Pb0ROB9WDxjMjSQ6OrqxIC/3n7NnTn+SUTwJVSjuxCNWLBhvRBadqgBiPnnixIicnGyRkZ4mUpKTRWpKilyS1XFnTtc3iCMlJaKmtk6cOlUpTpaXOZqbW1Ub9tbX1zNs8nOzX1mz8sPfMYWShBoUd+ISZ1EHyFM3WjDY50lUjR2c6enpEXPOmS2uWrJY5OXlivS0NJGYEC9Gjx6tne0Z+YQg2tvbpbiXi/LyCiGfHMSaTzYIRPcQe6tC7+zHr1u9cjlFnoQKFHdiirOwQ9SRq7591+7Hamprz4M9YlVAx46NccyeOcs2b865YvGlF4uCvDwRGxuL6Fk7a/DoQn+6vl5s3LRFbNi0WRw4dFhUVlap457+jYjg8bfExMQoq2bKpIlv/P43z35Iq4YEOxR30g8zC+Y/vvODq6RgfreqpnpxW1uHzZuoeP7cuRG33XKjuHDhBSIubqx29Kwo+0LcdfT36+rqEjt37xUfrlylonmrIg/wb05PTa3Mz8v+jVnqJAWeBBMUd9KHUdiNg5AOFpc8gAFIED+rIjl96hRxy43Xi89f/TmfReneAJE/eqxUvPn238W7/3zfYfWmBBDN06ohwQ7FPcwx89WRBXPxZUtuqTnd8C1YMFazYHQL5tprrrZ97cu3ify8vGEXdWcg8mvWrRfPvfgnse/AQREVFaUd8Ywxq4ajXEmwQXEPY3xpwUDUFy5YYPvm1+8SkyYUetVB6k90u6a1tU289/4HYvmKd5TIe5NdA5GfOnniK/Lvet5Z5CnwJFA5myxMwgqIuqTvxg5Rv/+hRyalZ+c+ePBQ8YNVNTWzOju7cI52hjkQdSluYub0aeLupV+z3Xn7V1RnqXx/7YyRx2Y7+2fiZjN18iRx3rnnqH9f6fHjjq6ubnnYc3zT29s7praubkFHx5kZc+bOjairrTnS1tam8jnxOeqL/DwGVLMkZKRg5B5mOEfrehaMPhDJShYMRB2pjUhlvPSzF4lAsWCsols1ry9fIbbt2KGyZTz9zQD5+XFxcX1ZNctefXk1/XgSqFDcwwRnUdd99Za2ji+fKCu7zKrAgZiYaMclixbZvnDTDWLOubMDxoLxltq602Jl0Rpl1Rw+clTdtKzc2HCO0arhKFcSiNCWCXFcWTDxyan3Hz5a+kBNbd0MZV54sCcgajgH1sYDP/ie7fYvfVFMKBzXVwYgGBkbGytmz5whFi44X/T09iirRt7k3H4Q+ucko/gxdadPL6hvaLzouutuKD9WcqRCt2oAPnPaNGQkYeQewphZMEhtLCuv/I43Bb4g7NnZWeLGa/9dfP3Or6lIXe+oDCUw+OmlV/4iPlpVZNmqwWcDi2rKpImrZkyb+msOgCKBAsU9BDGzYFDgC1kwmAUJOevaIY8gAL3ks4sivnrbrUFtwVgBNyyMdIVV88dXXhXV1TVKvD2JPD4jvCYnJlXn5ma/QauGBAIU9xDCWdTB9+9/6JqyiorFh4+ULLU6EEmPRmfNmD6iA5FGCoh8WXm5Sp185bVlql6N1fx4CL0+QQgLkpGRhOIeIhiF3Ti6tKyicqk3WTBAt2Ag6sGUBeMrdKu8p6dblTL421tvi7Xr16tRrthvxa6ByI/Lz18Nq4ZZNWQkoLgHOc7RuvNAJKtRJ9L8ULURFkygDUQaafSsGlg13hYkQ60a3arhKFcynFDcgxRXFgzmLi0/VfElb2qpgAXz5wkU+Fqy+LKwi9StApF/480VYsW7/7Dsx+sWV1ZmxmHUjmdBMjJc8CoOMswidWOBr+7urgRvctaR2ogyvLfefKOaKIPC7h696qRu1XR0dFr+wDA+ICsjs6ijrfnpQ/v3bqJVQ/wJr+QgwkzYr73h5i/rA5HsgyjwdfMN14lpU6ZQ1L0EtWo2btqsCpIdPFzsMYI3ApGfPHHir2nVEH/CKzoIcBWt69PcWU1t1DtMMWhHr7EeTlkwvsaYVQOrxpva8fDk9awaWDUsSEZ8Da/qAMZZ1HHBP/LYf00bTBaMXgsGWTC0YHyLbtX85fU3xOq1n6jOaSud2PoTFKwaDoAivoZXd4DiLOxq7tKjRz+j11j3JrXRaMFIEVERJ4Xd9/iiIBlqx3MAFPEFvMIDDGdRB3oWDCyYjo6OJCuCAfDoj9TGa6/+3IBp7oj/OHGyrJ9VY+X7wo0Y56WmJLvMqgEUeWIVinuAYCbqxlowVTU12d7MIpSZmSHuWXq7GohEUR8ZUKtGn+bPalaN/rQ1sXC8qlXDAVBksFDcAwCjsKOzNCkpaTTK8VZU1Txg1VcHEAaMLg3GGuuhip5V461Vg+8yJiamr3Y8/XjiLSz5O4JA1CX91BfleCPHjP3ZsRNl325pbc2z2WwOeQ92q9AQAnmhK+vlG3ffIVBnPSM9ra88LRk5MMq3cPx4Mfe8c0R8fLztwKGDMoo/Y/NUKhnfXW9v75jGpsZZp+vr512wcGFMbU3VTpYVJlbh1T8CuLJgjh4rvRcFvqz66voj/PSpU/oKfNGCCWzgx/952evKqrFaGgLfc2TkKJU6mZGa/Lt1q1cup1VDPEFxH2achV2fEWmoWTCsBRM8GK2aLdu2q+/T6ndOq4ZYheI+TJiJOmqs61kwra2tSd6UlZ0/d27EfXffEfI11kMVuCmDrR2PyctRqyY3J/v/zGrHU+AJoLgPA84dphhdqlswVmusA13Ur7z8srCrsR6K6Hb5oeJilVWz5pMNSuStoLcZKfI7aNUQM6gMfsSdBXOqsmquFUEHuJB1CwZZMOMK8rUjJFTQR7miVg2sGqugbehWDQdAESMUdz/gLOqI1vUa694W+EJHmj7N3fnz5jJSD2EQybe3t6sBUN7UjteJjo5unDp54itmBcko8OEHUyF9CERd0qe+EHWkNqZn5z548FDxg1U1NbOsCDtEHalw06ZMFvfdfaftztu/IiZNnEBhD3HwnaP/BGWYUdxt1KgIUXr8uKOrq9vmcDg8prYidbK2rm5BR8eZGXPmzo2oq605oqdOol1ikW2LqZNhAtXCRzhH63otGG8HIqHOiF7gK1ynuSNnMVo1GACFjlSrqZOwanKyMrdzlGv4QtUYIma+OrJgdAvGmxGJ8NUvWbTIhkFIzIIhepCtZ9UsX/GOOHzkqGorVtuUcZo/+vHhBW2ZQeLKgolPTr1/645dj1dWVc/AcU+P0rgAcU5WVqb41r1ft9171x1iQuE4+UjOrybcQbvAMjY2VsyeOUPMnjVTPcXpVo2ntoXjbe3t8TW1dQsbGpsuvO66G8qPlRyp4CjX8ICR+yAwRuuIfPpqrHtZ4AvXVXp6eoReYz09LVU7Qog50GGkTr70yl+8muZPj/YLxxWwIFmYQHH3AncWTFVN9WKrk1LjQqMFQ4YCJuveuWu3ePrZX4va2lqvCpLRqgkPKO4WcBZ1s4FI2iG34MLCjEizZkwXGF166cWLKOpk0CCK16f5e+W1ZaxVQ/pBcfeAUdh1UYcFU1VTdwtqwcgLzGO4hIsJoBwvs2CIL4HA9/R0903zt2nLFiXy6LPxFMmjXTKrJnShurjALFrXByJ5a8EgSrry8sURtGCIPzFaNVYHQOmBh9GqcR4ABSjywQfF3QlXoo4CXyWlpbd5k2sMUUctmNtuuVFcuWSxdoQQ/4FIHqmTb7y5om+aP2BF5GEZoiCZq2n+KPDBBfPtNCDqkn43OwxEyszJvePAweIny09VXtjba7fJ87SjrkEWTGZmpu2rt91qu/eupTJaP9fj6EJCfIGeOimDClXnv6W1VdTU1nhMncQxLO3tHWnNrS2Xt7a2Tb/mms/XGVMncX1gkTcCpk4GAVQciVm0fu0NN3+5pa3jy6UnTl6u7bZETEx0X431GdOmansJGRkwynXNuvVqlCsGQFkFkby7gmSM4gOfsBZ3dxYMaqxbzYIBCGh0CwbT3XFGJBJIYAYoZNV4Y9UAtOvkpKQjulVDPz54CFtbxlnYjRbMqaqqhTLiiXH3GKuDWjA5OdkCFsz3v/1NMWvGDBEdzQ5TElgkJSaK886ZLWZOn66i+SMlx4SVYmQ4paPjTFpTS7Oyaq697vr6Hdu3lvb29vYJOq2awCTsInejqCNST0pKGj2Yae7Q+ZSQEEcLhgQdmOZv/8FD4qfP/EqKfInlAVAIZOLi4lTq5JxzZ3+LA6ACm7ARdysWDETbirAbs2BowZBgBIG2PgAKVo3Vaf709m+0aujHByYhL+5moq6PLq2oqLzVai0YvVGjFsw9S28XSxZfylowJOiByOvT/L37z/cd3ozfwHmY5m/eeec+xgFQgUdIi7uzsOvT3KHG+un6hqlWIhWdzMwMji4lIYtu1SCrZu/+fV6JPKf5C0xCskMVoi7pU19E6yjHGzlm7M+Ol5U90tjUnKbn9XoCPuNnLlggvnH3HeLWm28SyUmJln6OkGACo6bzcnPUCOrYmFjbgUMHLZcVxgxQ9Q0N59TU1l1xwcKFMbU1VTudywpjkTcCdroOIyGnUs7RupoRaRAFvgAGgaDAF311Em4gdfLPy15XVg0LkgUnISHuZr76YLNgAMrxLv3Kl22LL71YTJpQyFowJCyBVbNx02bx+vIVapo/q1k1AJN106oZWYJe3M18ddRYRxZM+amKL1mNOmC/REePtl/y2UURX73tVhb4IkQDBckwzd8fX3nV+1o1GRmV+XnZv2FWzfATtOJuJup33nNfnm7BdHR0KAvGSiPEo+TkiRMjbrnxetVhGhsbyw5TQjR0q1zPqlnzyQavRB7nIKsGVs2kSZM+dR7lSpH3D0GpYGbCrlswpyqr5mKf1cdH1IKBBQNRH1eQr+0lhJiB0a2oHe/tACiIvF47ngOghoegEnczb12vsV58tORyK/YLQEPTp7m7a+lX1ehSRCeM1glxj36dQOTfeuc9sXzFO5YKkukRPIAfP3XyxFc4zZ9/CYpUSIi6pE959dTG9OzcBw8eKn7wVFX1OZh5xhNoYEjdmjZlsrh76dds9951h8jOylL7PKV8EUJkNKhdJ7jeUKfmnNkzldgfKy11mzpp3I/Uydq6ugX1DY0XzZ0770xdbc0R59RJea0ybXKIBLyiGaN13NEfeey/pmGau7KKyqUNjY2TvXks1LNgOBCJEN+hWzUYALVl2/Z+Ubo7cJ5xmr/f/+bZDxnF+46AVTczXx1ZMLBgTpSVXSZv7B5bDxoP0C0YfZq7yMgoCjshPkbPqtGtGisir5+TmpxcmZKSXMTUSd8RcLaMKwsmPjn1/q07dj1eU1s3Aw952mGX6MKOgUgP/OB7NmTCTJk8UT1O0oIhxPdgBihYNZ+54HzR09sjTtc3iMbGRnW9ebJr2trb45uam2bBqrnuuhvKjTNAAWiCvKZp1XhBQKmcMVqHqA+2wBciAdSCYYEvQoYfXYOROvmHF14Sm7Zs8bogWeG4glWwaliQbPAEhLi7s2CqaqoXW20YAKmNRguGA5EIGTlg1ezctVv58Uid9MZOTU9NrczNzX7DLKuGAu+ZERd3Z2EfTC0YgAah14K59OJFFHVCAgRE8sba8RgA5U0Urw+AevftN5fRi7fOiIq7s7B///6HrhlMh2l2dpayYC5cuIBZMIQEKKhVc1KKvLdWDXCXG0+BN2dEOlTNOk2/84Mf/dumrdt+Xn6q8nx0s2iHXIJaMGgYV191hfjuN+8Tiy/9rEhNSXHZcUMIGVnwNJ2elibOnzdXZGVk2mpqa0VVdbW6Zj1dt/J6H1NTW7fwzJnO6TfeeNOnWzZvatLncYWWYIHno04mimFXQudOU1RvvHTJVd86WFzyAOrBQLDdoT+qLZg/T2CaO1owhAQn8OPfeHNFn1UD3F3/0G+Ma0lPSz288Pz59zMv3j3DGrk72zCpaWljrAo7RH3UqAh7Zmam7fYv3SruvWupmHPuuXhP7QxCSDCB1MnzzpktFi44X5yurxc1tTVuR7k6HAjwbaKj40xafX3DpTKCP7hj+9ZSPYIHjOD/xbBF7mYR+/kXXvJcSWnpbVZGmSIL5tprrrbdfMN1qhYMISR0MNaOxyhXd+h9bRjdOnXi+B+wo9WcYYnczYT94suv+q/jJ0/c093dE+HJb4MF873/uM/2ldu+ILIyM7W9hJBQAdZq4fjxYtGFC6VojxFlFRWipaXF1IvHPiyoUdPc2nrtrV/44lZE8KOkzhh9+HCP4P0u7mZWDMrzHjlW+lRHR6dLVcfdWd59xZduvRnCTguGkBAHgq1bNXk5OWL3vv1qhKu7ooCwcRoaG+feeONNx7Zu/rSEFs2/8Ku4Ows7ovYr/+3fv3i45Piz7e0dMa4idgg76sHce9cdtu9KYWcWDCHhA8R84oRCcelnF4nqmlpx/MRJpQlmGoB9zc0taW3t7VO/8IVbVxuzaEA4C7xfxR0frLaqRp1+89vfG7f3wKHfNTU357ny2PElIm/90YcesN10/bXMhCEkTElKTBQzp09TdWoOHS62S82WWj5Q4HEzaG5pyZbHk6+//oa9zgJPcfcxzj47hH3n7r2/Qx67J2F/8AffZYojIUQJ/Lw550G8be4E3uFwCBQeGx0VearqVMX27p4eR7j7734Rd7MO1MSU1NuLj5bcJT9j0y8HZGVlUtgJIf2AFsyQEXx7R4ftwMHDphYNtuG/23sdM2fPnl11+NCBveHewepzcXcWdrze9fVvLjlwsPjJ1ra2BLOoHV8Wcti/9x/fsGHEKYWdEGIEHa2I4Pfs2y/KK06Z+u+wZ1A6OGJUZH5rU8Nfzpw5I7U9fO0Zn4s77pB41YUdUXtkdOyvqmpqZuH+in3OQNjvveuOiDu++mVmxBBCTEHQh0qv23fuUmULzLJoIPrtHe2Z51+wcGx1ZcW6cLZnzM3vQeKcHaPy2S9bcou7QmCoEXPl5Ysjbr35Rvnhm9s1hBACUBgQlV8TEuIceOI3A1pTcary31A2HNt6oAmcNSqU8VnkbmbHoBP10JGSn7a0tuWoAybk5GSLRx74/8T4gnxtDyGEmIPIPD8vV6BjFRG8K1CiQL7Y62ur/w/2jNF/D5fo3W93MUTtmMi6prb2PG3XAFBSAB2o06ZM0fYQQoh7YM/gSR8j191xsrziGj16NxIu0bvP/0g9ar/znvvyqmrqbkHdGHXAhIULFtiQGUM7hhDiDRjYCHsGAaIre6a7uyuh+GjJrQg0sW20Z8IBn9gy+p3Q2ImK1Mejx45/1axXG18G0h4fffgB1oohhHgNdCUjPc2tPYNjETZb+tVXX7MPpQnO7gufztUhR+5mjziI2puaW5e4uqOCSz97kZg0oVDbIoQQ74A9s/jSi9Vk+GZag7RrTKxfcapiZjhG7z6zZYxRe2dn1+RTVdWmhhi+BNSNQele5rMTQoYC+uvmnDNbCbkrEGgi4NQ2+wh1790vf1xZRcXi1tZW08k3sO+SRYts7EQlhHgCzklXV5e2NRD0133hphtcRu/IhUegiYAz3KL3IXnuxjsfUo3w4eEOeeJk+R2n6xsmmA0yQAfIvXcutU2aOEHbQwghZ4GY152uF/v2HxQHDh4SW7fvFAcPFatp+LC/uaVFJCYk9BvAFB0drc49WnJswMAmePMOh330mDHRNSdKS1YjLRL7wyEtckhpKmYdqUg9Wrlm3audnZ1J2GcEA5Yu+sxC8bP/flykp6Vqewkh4Qwi88qqarFx0xaxYdNmceDQYVFbW2uX0faAR/+8vFwxLj9fXHn5ZWLJ4ktV1gyi99f/9pZ48qe/UNG7s2OAfTnZWTsO7dl+CbYbGxu7jDM3heqsTUOK3OWHqG4OiNrxOmbMmFHJaRl3VVVXX4z5DrHPCD7kG669Rlyy6CJ1RyWEhC8Q9cNHjoo3335XPP3Mr8SadescBw4etrW1tSOCt8ngUYu8HSoih2g3NTWJsvJysWPXLseevQdsY2Nj1KAm9N+t27BRtLa2DtAW/HxPb2/M9dddv2vv7p3Hw2VQ06DF3cySwXpKetZ3m5qbC83EPS4u1nHPHUtt+XkuB6wSQsKA2rrT4tVlfxXP/Ob34uNVqzGiVEbQvTaIOMRZF2i8GvdhHQsqQJ6qrJKCvsGRlJhkmz1zhrJmSo+f6PtZHWzDmomNid57/FjJlnCxZgY89niLsXMCfntzc8sMs4FLiNoL8vJtEwrHa3sIIeEGJsL+aGWR+NF/Piqef+lPdnjpUVFR2lHr6NYLpup85je/dawsWiMuWnjBAEtGBxZPW/uZWVh37lgN1awZn/5R6JFubW+P0Tb7gQ+9cPw4kZgQr+0hhIQTJ06WiWd/+3vx8GNPOLZs2w7rRcrC0CUIAv/HV15V6xibpFacQLTf09OTZZYSGaoM6ZM1dqSeqqiIxGAB+V0lqoNO4EOfP3eOtkUICRdgwaDD8477vqVe3U2MP1jwBACBT09Pj4BLYEZzS0veKy+9MFbbDHkGJe6uHmPw2NPW1mFzdTeGJRMZ6f0jGCEkuICNjQ7TzVu3i8ef+ql46ufPKAvGF5G6GXhfZNhgMfsd2Nfe0T5lyvSZydjWrZlQxmefdE5ubl9qkRnR0aNtWZkZiOC1PYSQUATCjoyWF17+s/iP7//QAY/dVxaMO/A7sGibpmRkZObDZdA2Q3pA05A/bd2SgZcFT0vb3Q+9MzU2NlbbQwgJNSDq6DBdWbRafP9HD6sOUzzJD6bD1NfAFu7s7HJEjBplWqkwFDtVffIH6VF7x5kz6pHHjMTERBEzZoy2RQgJNRCt6x2myF8fjmjdKnpEL+8/YVOGdtCfvPFxBpG7p46KlOQBA1YJISHAcHSYDhWzLJpQ9919dltFR0V3V3e2tkkICXGGs8N0qHjy4kORsPuDCSFDBznrKBnw0KNPqEFJgWTBuKOlpXW2fIkydqqGKhR3Qogl0GEKCwZiDgvmjTffVvnlgdBhOhRCNWPGa3EP1aG6hBDXQNjRYfr0L36pOkwh6iAYonWrhJq2DemPCYeBAISEO4jW33hzhYrW3//wY9VhGkqiHqrwGyKEmKJ3mKLIF4pzVVfXhFSkHurwmyKE9AMWjN5hihGmm7ZsDcj0RuIeijshRAFRxwhTWDAYYYqcdXe1okhgw2+NEKIsGHSYPvrkT5QFs+/AQWXBUNiDlyF/c+GQL0pIKAMLBkW+0GH63vsfKAsm2NMbiQ/E3VM1SEJIYAILBh2mj/33T4c0KxIJTBi5ExKG6LMiocPUl7MikcCBkTshYYI+whQdpegwxQhTdJhqh0mIwcidkDDhUHGxGmGKDtODh4vVPkbroQsjd0JCGD1af+InPxPf+sGP+jpMKeqhDyN3QkIQPWcdsyJhhCmsGHaYhheM3AkJMSDsxlmRNny6iTnrYQgjd0JCCL3Il95hypz18IWROyEhwoFDh1WHKWZFOjuH6YCZ5UgYwcidkCAGFgxy1n/33B/F7Xff60BJXrlPXde0YcIbRu6EBCEQddSDQYepPsKURb6IEUbuhAQZEHaVs/7Mr/o6TBGtU9iJEUbuhAQJEHW9wxQ563pJXnaYEjMYuRMSJGzdvkM8/tRPxZM//YXKWUekzmiduIKROyEBjt5hiiJfq9d+ovZR1IknGLkTEqBghOlHK4v6dZhqhwjxCCN3QgIQ5KzrI0wxhyk7TIm3MHInJICABYOOUmOHKUWdDAZG7oQEAMhZ12dFYocp8QWM3AkZQZDeiGgdOet3f/PbdlgwgKJOhgojd0JGCL0kL4p8LV/xjp2+OvEljNwJGWYQraPD9NEnf6I6TM8W+TpbD4YQX8HInZBhBCNM//DCi6rDFEW+mN5I/AUjd0KGAb3DFLMiIWedHabE3zByJ8SP6BaM3mG6gUW+yDDByJ0QPwELBh2mjzz2pJoVqaenN4JFvshwwcidEB+jR+so8vXDhx6xHzxcrPYzWifDCSN3QnwERN3YYYoiX7RgyEjByJ0QHwBhR0leY4cpISMJI3dChgCyYDDC9P6H/39VkpcdpiRQYOROyCDQLZi33nlPjTDVc9bZYUoCBUbuhHgJonV9VqSnfv6M6jBFpM5onQQSjNwJsQiidVgwL7z8Z/HQo0+ww5QENIzcCbEIctZRkvf3z78oqqtrtL2EBCaM3AlxA6J15Kz/8MFHVM46SvIyUifBACN3QkyAqKMk7xtvrlAjTD/4eJUaYUphJ8ECI3dCnNA7TB/88eN9HaaAwk6CCUbuhGgYO0yRs75q9VpG6yRoYeROiATRuj4rEjpM9YmpKewkWGHkTsIavcP0oR8/Ib57/0OCOeskVGDkTsISiDpGmOodph+tKrJT1EkowcidhB0Qdn2E6ZM//YWK1uU+qjoJKRi5k7BB7zBFSV69wxQwWiehCCN3EhYYO0z/548v93WYEhKqMHInIQ1EHRNT/+DBR/o6TAGFnYQ6jNxJyAILBiV5UeQLFgw7TEk4wcidhBx6tI4iX+gw5axIJBxh5E5CCmNJXhT5AozYSTjCyJ2EBMiEQbSODlN9DlMKOglnGLmToAeDkfT0xn0HDqqcdQo7CXcYuZOgBdE6Sgc8/Ytfqmidc5gS8i8YuZOgBMKOUaYoHfDe+x8wWifECUbuJOjQBySh0xR564zWCRkII3cSdKxZt148/eyvVYojo3VCzGHkToIGROwfrSwSDz/2hIPCToh7GLmToAAeux6xsy4MIZ5h5E6CAnSeQtjLyysYsRNiAUbuJODBqNOfPvMr5bGz85QQazByJwFNa2ub+POy1/umvyOEWIOROwlY4LNv3LRZvPvP95HEru0lhFiBkTsJWE7X14vnXvyT6OjotGm7CCEWYeROAhJE7Zi8+khJiV3bRQjxAkbuJCApKy8XK979h+jp6aUfQ8ggYOROAg4MVtq4aQtHoBIyBBi5k4CjqblFLF/xjrZFCBkMjNxJwLFz125xsryMGTKEDAFG7iTg2LR1myoxoG0SQgYBI3cSUGDQUunxk6K3t1fbQwgZDIzcSUCB3PYTZWVi1KhR2h5CyGBg5E4CBuS2V1XXsDgYIT6AkTsJKI6VHtfWCCFDgZE7CRh6erqVLUMIGTqM3EnA0NXVLeobGrSt4MBut6tl6uRJ4rJLPitiYqId2iFCRhRG7oQMku7ubjF2bIzjti/cJH75s6fE0088Ki5ZtIgpnCQgYOROAoaOM2dUGmSgA1FHhH7lksXi1Reftz34w++JcQX5IjY2VsyfO0dERNhY7IyMOIzcCfGSWTOmix9+59u2Rx9+QEybMkWMHj1aO3KW6OjRjN7JiMPInRCL6N46LJhbb75RpKelIkrXjhISWDByJ8QikZGj7PfdfYeyYMxEHdk+hAQKjNwJsQCi9vT09Ii8vFxtz0AiIzl5NwkcGLkTYpGkhAQxNjZW2xoII3cSSDByJ8RHGCN3Pf/d3UKIP2HkTogFrFSp1CN3TOiN85EDn52dJaZPnSKuvuqKvmXhgvMF9jNlkvgTRu6EWMBKlUo9csdI1e98817x1GM/tv3pud+JV198Tjz+yENq+ckTPxa/feanAvuvvHxxBHLmCfEHjNwJsYCVyB0ZNEsWXyqQ//7Nr98tMMgJmTVxcWP7FuTE4xX7MeApKoqdsMQ/MHInxAJW68sj991K/jvKGx8pKVGjXQnxB4zcCbGAr2eGQvXLYCi1QIIXRu6EWMDXM0PV1tVxxiniVxi5E2IBX0busGQw21RlZZXgjFPEXzByJ8QDyEmPjh5tX3zpxSI1JUXbO3iQMll8tETbIsQ/MHInxA0QduSkP3z/DyO+fufXVKbLUEDUjklJitas0/YQ4h8YuRPiBgj7PUtvFzdd//kBpX0HA7Jo0Jna2Nys7SHEPzByJ8QFGEH64A++q8r7+kLYASL3w8VHRHNzE6fjI36FkTshTsCKwUxL9951R8SSxZd5zFn3Bvjtm7Zuk+LeamNnKvEnjNwJMeHaa662Lf3KlwYt7F1dXaK27rQ4cbJMtLa2qYgdHD1WKnbt3ssUSOJ3GLkTYgBROwp7feOeu7zqPIWYQ8g/WlkkfvjgI+KLt98lbr39TnHHfd8St999n7jrG98WT/zkZ+KRx54Uh48cZQok8TuM3AnRQCkAdKBitiWrKY+6qL/w8p/F93/0sHj4sScc73/4sdh34KDKY8eC9Q2fbhKv/+0tcfBwsfaThPgXRu6EaKCI143X/ruYc+5sS3YM7Ja33nlPifpv/vC8Em6U+0VUjvfCq75u3CZkOGDkTogEdsyC+fMsZ8YcOHRYPPjjx8VTP3/GDlHXxZuQQIGROyESlBe47ZYbLdkxm7duFz//5W/F6rWfoKNUajpFnQQejNxJ2IOo/aLPLBQXLrxARt+u7RhkvCBif+jRJ8SmLVu1vYQEJozcSdiD6fCuvPwyEetm8muAkaV/eOElVfSL0ToJdBi5k7AGUfvsmbNsmEHJUyfqG2+uEKtWr1X+OiGBDiN3EtZERo6yI2r35LUj3RHFvnw9aQch/oKROwlroqNH2y5cuMCj1456MBh8xKidBAuM3EnYAkvmkkWLbJ6i9vb2dlUPBucTEiwwcidhCyyW+XPneOxIBZzvlAQbjNxJWIIoPCEhzpGakuyxI5WQYISROwlbCvLybVOnTNa2CAktGLmTsASWTGJiosjOytT2uCclOUlbIyQ4YOROwhLUU4dgW6kjA0/+qiWLVdokO1VJsMDInYQlGGFaOH6ctuUeePIoTXDl5YsjMJoVAk+RJ4EOI3cStlit2Q4wccfjjzwkfvidb9swmQfqvmMqPtSAd7XwJkBGEq/TBCIjI9UNYXR0dGRSUpJ6poXAL77yc/O7e22v1p4+ne1cdwMN/OqrrlAXhzez25DwAtPS/eg/H1UTW/h7sBCEGUJ92xdu0vZYAwOakPd+srxctLS0iqamJu3IWU7XN2iv9eJQ8RFVaAyTYaPOOwSfg6BGDvkEZh+Xn7/6n2//7Ta52Q3XobGxsQvHujo7lQPR09MTMndjrydylMKtbgijpMiPGTNmlB65F06clGN32G5o7+iIt9n63zMcDoeYPGmiuOziz/psFnkSerS3d4iPi9aIMimc/p5jNCoqUlx4wQW22TNnaHusgbaNNpyelibycnPExAmF/ZapkyeJGdOminlzzlPT9V0jgxoMlBozJloFOVXV1eo9nK8R4n/kZ+5ISkw8fuTQ/rfkpj0+IcF+5swZVU+it7dXibr8js5OdhsC0HMnxIdA+PUlPS1VjCvIFxecP0888sD94vnf/Up855v3KkuHdg3xN/TcSVjS2dnlgHUyXOCBF2L/9Tu/Jn7y+I/F9KlTKPDErzByJ2FJT09vRH3DWX98OEFEf/68ueKBH36PETzxK4zcSdgBQcUgppraOrk+/BYronhYNfcsvV1NFKLtJsSnMHInYYeezXXqVKXqvB0pMEEIJgph9E78ASN3EpYgJfFkeZlj46YtIxK9A3jw9919BycAIX6BkTsJW9raOmzbduxUeesjxczp08SsGdO1LeJvIiMjq7TVkIeROwlbYM+sXb9eRu+bRyx6R92a886dzY7VYSImZkytthry+CxyLz64vyFqdFSl2mlCfUOjtkZI4ICRo8+9+CdxqLhY2zO8oHN18sSJqiiZtosQnzBkcbcKhml3nDmjbRESOBwpKbH//Je/VeUPhhs8MUwoHC/S09OH7VoMVzBfrrYaFvisQS296+ttMWPGmCYO4/EXnVcj6W0S4gopsBFbtm0X937re+KjlUWitbVNO+J/ELnHx8epdVoz/kd+3NXaasjjM3F/6olHm9BZYdbzLxuwHSMC26S4j5S3SYg7IKwHDxeLhx97wvHgjx8Xr//tLXHiZJkSeixdXV2q7TovvmBsbKxISkjQtog/wPcr/2uy9/aGjbgPuXAY1ltaWiJsNlvU1BmzrqxvaDzHuSiSwyFsWFBUadqUSX4vCkWCk+EsHOaMXsyrp6fXduRoifh08xb7x6vX2v7vw49F6YkTqrrjsdLjoqqqSr3qS93petHc0qL+7bExMYP6d3d394h/vP+BfK/TLCjmJ1C8MCoq6oy9p/PF0pKjEPiQLxzmdUtyVfJXin7MF7701c8dKT3+ElLM9IEiRj53xeXiJ0/8WA3BJsSZ4Sz56wlvLBKMMsV8rMh6uWrJ5Sq90Wppa2gJatzAEsKTg9l1Q3xDVmbGjuJ9O79eXlZ2Um6GfMnfIbUk/YPRyc8vqMOjj7bZD1wspcdPyMfbbm0PIYELRNbqgmBm34GD4rXX/yYeevQJ8cpr/6tsHCtoD8LEz6CWfnxc3EEZiJ7Sdg0glIQdeC3urj4AKd490dGjj8TFxnZou/qBiwCdqvsPHtL2EBIaoG3jSQNLdXWNFPdljrfeeU876pnaujptjfgTVznuetQeavj0GRCdqsh1d5Wz29zcatu6fYd6FCUkVEEk/9Gq1ZazbjCjU2Nzs7ZFfA1cg7i4uEZh792j7QoLfG7wZaSnrdNWTcHUY8NZR5uQkWDbjh12q+0cY0AwFR+eAAIZTE0YN6NT2wou4CisX1uki7vy27X1kMX3rUneHaOiRjebdUghk2DTli0OZBkQEqpApDs7uyKQ+msFzLuKkbLaZsChi3rOd07ZEuedUdvaoaAhISH+QHlZWT9bxrnPMNQYtLgbfSrtLqh6SmtqqsuSkxKPmee7n+18+nDlKm0PIaEHOu+sgo7XIyUlyjoINDA+BaKecnONLfPzrdre4AJ/A2zixIS4lVJ/utE3qB0KeYYcuTvf/Yo++qAY1oy7fN93//m+A3nDhIQi3qRxInts1+69KvAJJCDq2V9ujICoj8kJXj3EjFvJiUnVVZWntmm7TAm1TBng0xbVd1e09+5JT02tNItG0IjxCPrm23+3nC5GSDCBdp+QEOfAyFN36DnuyG8PBPDvhqhjCXZR14GDkJKSXLT64w9LtV39CNVMGeDzcAGPPm8se3UdPC5t1wDQiNZ8skEcPWb6eRMS9GCGpdSUFG3LnJ6eboHJQgJhsg7YFwmzugU89WC1YMyIjh5tj4mOWuVwOHSvrN/gpVBmUOKuP8K48t3xQcaPjVnmKiUS0Xttba39pVf+wuidhCSF4wtUrXZXIGqHJYOUyZEuxxEqFowZGenpu5AlE25+O/BJ5G52FzzbsZp0xMyaAbJxR2CihDXr1quGTkiokJ2dpcoQuBt9imMny8vFibIyFewMN7gu9SyYUBR1nayMtOUV5eVhOZmEz1sV7o64S6JjNT83+xV3kxCgUuTTz/5aTZRAgSehAERzzjmzVX0Zd+CJtWjNOlFeXqHtGR50UYcFg9TGULJgjODvTE1JPoyOVGdLRlsPyXoyRnwq7s4DA/DB4rFI2xwAovfKyioBe4YDm0iwA0FB1H7X0q96LBxWWVWtxH040X31oaQ2Nm0fE9A5+Too5obgEh2pzpZMOPjtYNDi7uy7Gz4w9UHiA8UHm5Ga/Ds0Ku3YABDZf7SqyP7Gmysg9tpeQoILCDsE5Z6lt4tJEwq1veYgakdHKrJkhqv6JaL1ofjqZ05Fiur34kTrgWhtT+CC7yIrI7NoXdHHHxui9rDDr2YfPlhkzkwsLHzdlcAjesfy/Et/sq8sWs0OVhKUIEi59pqrbTdd/3mPJa0RtS9f8Y625V+Mo0uHIuqVy5LswSDsICYmphEJHbrXrkXtpiV+QxmfiLurrBkdpCJhIAHuqK7AcG1MVIwOVkKCBbRpjEi98vLFEd+45y5LcxUgase8rdqm34CoD8WCgbDDhoGoIwDTdgc0+D4K8nL/iaASwSUcBO2QKaHqt4MhfWHOH4zRy8LdEh+sHr3n5ma/gcdWVwKPx1M8pqKDFfNY0qIhgQ5EHW36O9+8V01Ck56Wqh1xDUZmI2rHyEmJtte3QNRzv9o06CwYPVqv+EuiaN4XpQQzGMC/Myc7a0dLU/0r2i4d047UUMcvrcssel+/+uPX8nJy/1fbNAWNHfWwIfC0aEggAgHBApvxos8sFE899mPb0q98yVLEjoAFyQOHjxz1S/qjL1IbIer1b2Y4dAsG/05/3YR8DewYpD6ir0+P2uV31fdBOHekhnLUDoY8ekJ+eChVasMchJhXFXMSYm5VzKsqP2A13Z58xTyruHueiE9InNXc0pLtbq7ItrY2sWvvPhEzJkZg3tWRHuRBhoeRnEMVUfjZOVR71CvarHHR9yNSnzdnDgTddu/dd4hzZs20LOwIWP7njy/Z5aUi38q3CScQ9eQlTbak+We0Pd6BaP30mlhlwWAeWW13UICb7ahREfYZ06Y8//qrL78uP1sM+bXL7w1i3he1h/J8qWb45AqCuONVF3iIOyaflYKOC6NP4I8fK2m+4IKF1b12x7S2tvY0Vw0cX1Zra6v4ZOOnKmrIzMgQCfEJnDw4xBkpcUfEe8lnF9muvuoKkZiYKMZER4uo0VEiPj5OLfm5OeK8c88ROH7PHUttX/vybWKO3I4b6752jJEt23aIX//+OVFTW2c6v/BgwHUSP7NLpH+uTUDUI+O9D0R1UT+9aqw4Ux0RdNcYnqDk5+lA0sbm9atfkJrTJrVGRe3yFR+ImgjbrCM11MXdZ9+kceJsvGLybEycLVej5AcdKT/IKNlwouQHHv3Fr3ztgsMlx5/t7OxMwrnuQANeuOB8cf/3vy2mTZmCL1M7QkKNkZogG0+Hz//uV8ozx+xJGDmK2ZEg7HjNyswQqBODcgKDaX/637Vpy1YVrPgKCBvSG4diwfSWJjhcTWgfDEAf4LOL3q4HTOyYfhkyQBf3ULdkgM/CI/mBqlZvtGfSMzJsztG7FHjHvj27qhZffnldQ1PzfPk4PMZdtIBjlVVV9vfe/z/56NxjKxw/XniqtkeCk5GI3CGQ9919p+38eXNVW4PFkp6WJvJktK6/4qkxOnr0oKJaCPvTv/ilWLt+g8+j4rHTOwdlwzhbML7+dw0X+O6yMjN36sKu7YbnBUtGTRmFqF23Y8JJ2IHPriA84ugCD3HHqyt7Rn74jobTdafmzptvb2pumSZvCGNwvivwI3j/fQcOiD17D9hiY8Yoq8aK10mCh+EWd0R9MbItfeOeu2wZ6Wna3oEMVvzwFLDsr38Tf3vrbb/47KPTe0XcVOtJB7qoN6yOs3fWjMI15fMbznAiNUAJe9FHH5ySf0ev1BZj1G43Ru3hZMfo+PQKMove9c5VuXuU/ALQyYrfCcHv3rd7525E8DIin9nW3h7vrqFB4BFllJVXiE82bnSUHj9py8/LlY/LqUHdQMm/GG5xR6AxacIE26033+jzp0Fker3059fEK68tc2AMBwIbXwJhjs6wWxZ3CDuyYNorhQ3XEvYF43WDvxudp+MLCop6Otsf04S900nY+3WiOqc+UtwHAT40M4E3sWcg9Fh69+7aWbLo4osbe3p789HJigvOXaPDsa6ubtuRkmOqwxUdr+xwDQ1GQtyvuPxSseSyS3z6+2DFvLrsrwKjrv0h7ABt3UrkbuwwxXUTzNcIhB3ZSnk5Oas72pqf9iTsetQOLcIrCBdLBvj8CtLFHViwZ/oE/sILLzoeMSoyv6W1NduKwGPB+23fuUts27FTpCQn0aoJcoZb3NGGbvj8v4tzZs1y2968AcL+P398Sbz6v3+1+3OgEoTOU+SODlPdgsG2r/7GkUAX9skTJ/66qaHuT0Zhx3G53s9nN7NjwknYgc+vIFfRuyeBRydr4YTCzTk5uaPaOzoKPPnwQG+sqCj54coiUVJaqrIa4J8OhzgQ3zKc4g6xyMrKFLfccJ3Iz8vR9g4NPO2fLCsTf/jjy6K5uUW1cX+Btu8qcoeoN3+Y5mitsMsLJIgVXUPKiV1e18UTxhc8gzz20pKjLfLv7xN2+Tmb+uxAj9rDTdiBX66gwQq8/NI62loat82fP7+yu6cnv7OzMwWH1Zta4FjpcbF523YlErRqgo/hFHd5sYuCvDxx8w3XiqTERG3v0JBtVXR0dIi//+N9ZRf6s+3h5uQcuYdKFoyR6OjoxvzcnI1pKUn/8/pfXinCPvl3mQm7y7RHAE3SVsMGv11BgxX45qYmx97dOw9PmjTpk6ysnMi29vYCT+mSOjgHo1th09CqCT6GO3LHwKQv3nyTz0QY79PU1Dws4o73HtU61hF/QYv6Jc4WTDCD7wY3X/kEfrhwfMGbWzeufXbj+nXHcUz+3X0eu1yXp3oW9nCM2oFfryBd3IE3Ai9Pj8Sjlx7Fx8bG2jq7zhR60yEEq2bdhg2OQ8VH1UTFtGoCn+EU96ioSPvnrrjcdsH587Q9QwfBYXPz8Ig7QHTe3TBKWTDGLJhgBaIOHUhPTa0syM97t6er46mdWzdtKS8r65CfZSe0QRd27fw+Ycc2tAWvFPaz+PUKkh9+X/QOrAi8BAnBDnyRehSfX5C/u6BgXL38+WQrGTU6aPzOVo2vHsGJ7xlOcR8zJlqVEsAgJW+AgLtqe9g/XJG7TldtpGrn2mbQAmFHh2lBXl5RWkrSrzZvWPv33Tt3NMibZY/8HFVHqTthZwfqQPweynor8PKLRK83XvtF8Y31dQczMtJXGztc0SA8XUA4jvfH0O/V69aL0VGjRVZmJke5BiDD67n32mbPnCEKx40TkZFRpu0IQi6DCTW5xpat28WyN5aj8qAatWoGzoed8Obbfx82cQ92cA0jbx0jTcfn5/12y4a1z8OC0UVdLipax6kQdoi63IbY93WeMmI3x+/iDrwQeHxxLqN43aqZO2fOrtjYsXFnOjtTIPLqTd2Aiwxigd+xbecOR8mx47RqApDhFHewdcd2R31Dow3ijd/dLNsHUhmPlZ4QBw4eElu37xT//OBD8efXXhcr3n3PsWfffscliy6yTXQxjR7aWVRkpHjtr8sp7h7QRT01OaUqNyf7va6O1l/s2LppPywYHJefXb9oXW7LHzkbrWM/PXbPDGvr04uL6ehFxoCh0BhQxcawIr9QVXAM6/KLVkWm8/LzY/B68eIrriirqFza0Ng4GfcP7PMEGhXAIyCmRUOFv/y8PKRbqf1k5NALbA1X4TC9LcgAQb0mJMQ5EhISbZi0Xd+n32QQcMg2Yn/mJ09GXLlksdpnBqL3Jf9+vcB74GeIOajEiXlOMR3e+rVFe8xEHa8Qdk3UwQAbBlDYzRnWsFV+SaYRPNYRxWMkq9GmkQsexUyjeDy2NdTXnYRVo2fVWI3isZz140sdH3xcZIseTasmEBjuyF1vC/hdeJXNUY2kBmh3MhjpOwfIV8dVSxa7jNwB6sIzcjcHN9PY2DGOtNTUARYMjsvPy120rmwYHKewW2PYPQlPAm+0aSTw3/t58diHi0y+RqJRGLNqYmJibPUNDRNwnpULCwKP1Ek8nsOqGT+ugLVqRpDhFncj+neOV31xBp2wl196iVtxR8RPcR/I2SkJxzbm5+auMLNg5OLWW4cmOPvr0A6sAwr7QIZd3AEE3ijy+JJ0kceXZxLF93nxshHoHa4qipc/rkQeWTUdbc1rFn7mM6WoU4MBUIjEJPgVboHIHzlaIt7/8CNHdU2tLT09TZV7JcPLSIq7FdBm3UXu8rDYvnO3ePvddx1oe9rusAaiHhsb2zhpQuFbWempzzlnweAaNoq63JYfc39vHa+uonVAYTdnRK8go8ADV1G8FatGriuRN1o1ETZbOqpNajcDnO8SiAny6A8cPCz27N2nLlRYNZjqz9PPEt8Q6OLuLnJHFciKU5Xif158WRw5eizsG4y8ttV1k5uTvaOwIO+FTZ+sXmbFgpHblqN1QGF3zYhfQWYC7xzFe7Jq5KtKm8SiZ9UcPrD3kwsvuujw2LFxKqvGyihX/XhtXZ2qOImZ6nOys1RuPEe5+p9gjNwRBCBd8p333hfP/ub3ajo9T+0slIGo61kwkydNeKmtpfEP765Yvs0o6rhOIeo4HcKuiTpEWnWY4lrHuZ6idXwf2iYxISCuIHxJWDyJvBurBvMl9om8/HGVabNvz+4KWDXw4+WJKb32niwrAz7ke6jX4ydOilVr1qh0OVg19OP9SyCLu2yaSnB0cddFfe0n68XvX3hJlfhFUID2GK7Ia1iNLs3MSN9q7+n8IUaXwoLBMXndeLJg+nWYMlofOgF1BbkSeRcdrtinoni5uLVq4Mej4iRGuTY2NU+zWqsGAoObwd59B1Qkj6waDHphFO8fAlncz8YONkfh+HG2BfPniZNl5eK5F18Wr72xXOzZu1/d9K20qVAFwo65THOzM/+ELBjdV8cx+bl4bcEARutDI2Bbo3NOPHDOi8erq9x4vMpGNCA/fsr0mckxYxMePFVVPa+joyMJNwWrIDe3IC/fdt/dd4hLL15Ekfcxw53nPhjQBhYuWGCDZVddXaNEzZs2FErgbwfpaamHc3Oy/2/96o9f0zNggFHU8Qphlz+jR+p9naWAHaa+J/CMTQ3cobHIBuEyivdg1fTz4+WPqCi+u6uzp/pU+Urdqmlta8tGI5Xn4G3dgigeBcl27d0nyitOCVg1iQkJAekPByOB7rkDtIGTZWV21GtHm7HSbkIN/XqRT9GN4/LzNqAc7/o1qz52l9oo17vkApHuJ+y0YPxHwKuSs8jjy3dl1RhE3tIAqNTU1PUTJkyo7+3pHdfZ1TlWvq08xfPFit+xb/9BZdUgmyYhPp4FyXxAMIg70CwabSu8gLBjdHd+bm5RTmb6L7Z++omlLBi5q89Xd7ZgXIk6rnttkwyCoAk58UXrAg+MIq9H8WZZNfK1x5XI6wXJZs2atT8mJjZer1Ujf5fbiAzHsOD3QOAxn2tszBhVddJVESrimWAR93AE14TKgklJKR4/ruA11Fg/eaK0eigDkQB9df8RVFcQvnQsziLvzqqRuEydlMeUVWPMqsEMUF1dXZYGQOG4/PeIEyfLxPpPP1VZNRkZ6cyqGSQU98AFFkzhuIIVKUkJf9EtGFw7sp0PeiCSMVqnqPueoLyC0Aiw6CJvjOKxbSbysvH1+fEQeIlpVo29u/Pd+Qsu6NCtGtwLcLIr5M8rIYIXu2v3XjXKtbu7x8ba8d5DcQ880IGsWzAYXepcjhfnQNiNoi63XUbr9NWHj6C+gqyIvFnqJAQeDdGVyO/bvXMHBkDFxye06QXJ5O/xGI1DkPDv2b5zl6P46DGbbtUwq8YaFPfAAG0dFkxKUnLV+HEFLzU11P3pvbffOoRrA8fldWDMgjFaMBBpDkQKEELiCkID0QUeGEXeUxSvi7x8HTAASq8db4sYld9xpiNTvqU8xb3A462wlJVXiE82bnSUHj9py8/LZa0aC1DcRx69wBcsmJ6ujkc9DUSS68YsGEsDkSjqw0PIXEFoLGYi78Gq6cuqkY1WH+XaL4pvbKivR1bNxAkTDvX09M60mlWD47Bqio+WqE7XlpZWFcUnxCeoY2QgFPeRRV469omF4/ssGOcCXzhHXiNDzoLRVomfCbkryEzgnUXeLKtGEoEGC4HHPrneL6sGqZPGrBr5PmOsCJB8D5VVs33nLrFtx06RkpwkEMlTvAZCcR9+5PUCwcWsZIcnTShc5oUFwyyYACckryA0IiyuRB6NEItVqwYLRF7PqoFVEx8fH9dx5ozXBck++HiVSp3kNH8DobgPH/L6kJ/x2QJfU6dMeulMW8uv31uxfC0CGRyXbdatBePOVzdG6xT1kSOkryBXIm8WxRtE3mwA1IDUyfyC/N2F48eV6lYN7gU42R0Qebxn6fETYvO27UrMaNX8C4r78IHUxvzcnI1pKUm/Qmqj7qsD2RY7ZTvtE3W5DYHuZ8HgPFowgU1YXEFmAu8cxZtZNfLVdACUXI/UrZqMjPQP9Gn+rEbxWDADFGwaLHj/qZMnhb2gUdz9j7wWRFpqyuGJhQW/N5vmDu0bwm4UdblNCyYICZsrCI0NiyeR9zQACvvkOlZUFA+R17NqUDu+s+tMISb9kOBcj6BWDab5O1pSakNefDhbNRR3/yDbvQooUpOTK/Pzct/t6ep4yuI0d15ZMIDReuAQdleQK5E3WjXOIi8beZ8fL1/xmfWL4iHyyKpJTEzcjrLC8v2Sm5tb0qwKFG4G8OGNVk04DoCiuPsepDaOHh1lH19QUAQLxstp7kwtGGCM1vVIHYu2iwQA1sLLEMVqWWGglRZWdWjlRRApG7JpWWGw+MrP5WRk5Vxz+EjJUpQVxj7cGDwh3xM3GjFrxnRxy43XiyWLL0U5Ve1o6BMMJX+DBbSlyMhR9oz09F1ZGWnL1xV93Fe1EUDY8Qphh6hjXf6MLuqmJQOAmQWjrZIAI6zDI0Qa+iIbuLrRIYrXI3k9ijfz4yHWiHLkOl77DYBCWeGTx4/t0a0avSAZjrlDvoda6k6fFhs2bbIfP1lm07NqbDb1+7QzQxNG7r4jLSWlMjcn+72ujtZfeGPB4BwzYXe2YOirBz68gjSMAg90gce6J6tGXiz9BkDpZYWdC5J1SpHHaeoXuED+vFpw3pGjJWqaPxnR2grHjwv5rBqK+9CJjo5unDB+3FspSQkvvvXX1/6KPiFvLBi0b6MFQ189eOEVZAACbxR5NGpnkTdE8dinoni54GKB4OO0AX68llWzGlk18o3TO86ciceJnoDAYZTr/gOHxMo1a9U0f1mZmWJsbKx2RmhBcR8css2K2NgxjrTU1J2FBXkvbPpktaqxrh1GQNDPgtFFXW67zIJxJeq4PrRNEuDwCjIBDVgXeGAUebMoXuLSqsGij3JFVg1GucbGjo2rb2iYII+p97cCUieRVVNy7LiyavJyc7QjoQPF3Xv0WjBTJk18XravP/gqC0ZbVVDUgxNeQS5AY/ZW5OVFY2bV9BsAhaya6lPlKxcsWLCpp9c+DVaNfEt5imehRxR//MRJ8dGqVY6q6hobpvkLpdrxFHfryLapBiKNL8jfgFow+kAkVxaMXPe6wBegBRO88ArygCuRH6xVo/vxEHlYNYWFExpQOx5WDS5YK0KN1MkDBw+LPXv3qfeHVYPp/qz8bCBDcfcM2gjKBsjvXFkwZgOR8CrbheUCX4DReujBK8giaOjOAu8uipcMsGqwT673iTysGn2aP1g1VguSyZ9Xr1XV1WLDp5sFZuIfGxsT9AXJKO7ukW0QqbGqwBcsmHdXLN9mFHW0K4g6ToWwQ9TltsfRpcZonaIeOvAK8gI0eizOIm+M4p1FXl5cRqumnx8vf6SvVo2eVTNqVGRKe0d7Jk7De7pDF0DUjl+5eo29obFRWTWJCQlBKY4Ud9cgC2Zi4Xhkwahp7tzVWEc7k+jRuqXURkALJrTgFTQInEXeGMVjGwKvWzUGkfeYVYNp/gonFG6GVdPY1DxNvqfH3Hgg30O+p1BZNes2bFQWTeG4cUE3WTfFfSCyidkzMzL6ZcF4smDktsdoXVtVMFoPTXgFDQGjwAOjyOtRvKcBUNgn1/tEXrdq8nJz3ktPz8i1WlZYB1k1q9asFfuk0AebVUNx/xeybakCX7Bgdm7Z8N8b1q3db2bByLaEdYjzgCwYWjDhDcV9iODiwOJJ5L21ajDKtfpU+UpYNfJEZdXIt5SneBZ5CGPFqUoZxW9QA6CCxaoJd3GX7Ug91SELxmjBuEtt1H5Ot2D6ZcHgFVDUwxOKu4/AxYLFWeQHa9XoWTVGqwZZNc0tLfEQeCye0AdA6VZNoA+ACmdxl21H1YIpHDeuKC8n6y9GC0Z+10rUcR6EHaIutyHQbi0Y+urhDcXdxziLvFkUP1irBlk1ycnJre0dHap2PM6V5+B8t+D3YB5XZNXExoxRVScD0Y8PR3GHqKsZkVJSivVp7pwHIuEVoo7TIeyeRB3QVycUdz9hFHhgJvKDyarBKFfdquk402HJqtGPYwDU+k8/ddQ3NNoyMtIDbgBUuIk7hD0mJqaxcFzBCmMWjDFaN4q6XDcORGKBL+IWirsfwUVlJvJGq8ZE5C1l1XR3tn8wf8EFHfL9kq0UJAMQTAyA2r1nn3j/w48c3d09tkCa5i+cxD0mJtpRkJdXhNGlqLHunAUjv/s+UZfbEOh+vjotGOIJivsw4CzyuAidRd5bqwZCoFk1R+PjE9q8meYPwgk/fseuXfbio8dsyKqByI8e3Ve+fkQIB3GXTcCekpRcNX5cwUuwYN57+61DRlHH96sJO+YAMLVgcMw5WtdWFYzWCaC4DyNGgQdGkXcRxVu2alA7PmJUZL43WTV4OwyA+mTjRkfp8ZNqmr+RLEgWyuIuv3uVBQMLpqer49GdWzdtcTcQSa73WTDOou4qWqeoEyMU92EGF5+ZyJtF8WYiL19x2sAovqG+PjU1db3KqtGsGisij+OI4o8eKxWbtm4TLS2tKoofCavGIXXpUHGx2LNvf8iIuy7q4/LzVIEvs2nucJ78Xl3WgsFxWjDEWyjuI4SZwOsir0fxBqsGwu/WqtFr1eyTynHhhRcdh1WDrBr5Ph5r1ejgRrJ95y6B+VyHewAUAk6Ur/10y9aQEHeIuhRceaNMP1w4vuBNMwsGr5qoQ+SVqMttZsEQn0BxH0FwUWLxJPLeWDV4D6NVEx8fH9fZdaYQHakSHHaJfhxZNR+uLFIir0/z52+x1X830jU3b90etOIuv0/1dIUsmNkzpz93pq3l1++tWL4WN14cl3/nAAtG/gy+U1MLBq+AFgzxFop7AICLFIuzyButGhOR95hVA5HPL8jfXVAwrl6+n1dZNXjP0uMnxOZt25UXPhxWDX5vybHjYs269UEr7kYLxqzAF9blZ0sLhvgdinsA4SzyuKidRd5g1WCXW6tGrvcNgNKn+UNWjXxPy5N14/ds2rJV7Ny1Rwn+1MmT/Cq8uJG8/e4/gk7c5VfWV+DLQ411SxaMK1FH+9A2CXELxT0AMQo8MIq8iyjepVWDxTjNH6wa1I73xqqB0NbW1YltO3c49h88rKb585dVI/9OsVpG7vi7PP3bAgWU450xbYrfprkDjNaJt1DcAxQIvJnIm0XxBpE3s2oGpE72WTVarRorIg2h1af5Q1YNIuzC8eN9XqsmNiZGfLJhkzhxsiygo3f53ch/X4R9fEGBGojkaXSp3JY/MjgLBu1A2yTEMhT3AAcXtrPAO0fxZlaNfO1xEnkzq+aDvLz8UfLkdG8KkuH3bN2+Q3ywcpUYHTXapwXJIOgdHR3i081b5N/huX9guJHfhxJ11IKZMrHwWavT3MltWjBkWKG4BwG4yLF4EnmjVSMZ4MfL135RvG7VoCAZsmowzZ/VUa5Y8HtQkOxEWZlPs2oS4uPFx6vX2lCbPlCQn7/6m9NSUionTSx8GVkw/rBgKOrEV1Dcgwhc9FicRd5o1TiLvBQXox+PkY94HTAAqnoQteP148dKj4uPi4pU7fjx4wqUtTIUkcfPw/bZsm173+8YSeRnrlIbJ4wfhxrrL/71L6+8ixujPywYbZWQIUNxD0KcRd4YxWMbAmI2AEouzn583wAoCFVDfd1JjHJFVk2EzZbeceZMPE70hHwP5cejdvzKNWv7asfjFce8BTcGpF5iQNXp+npt78iAAl/paWn9prnTDuFvowVDAhaKexBjFHhgFHmzKF7ilVWjZ9VAuPHDVsDv2bBpkx1ZNTnZWYOuVYM6N8lJSWo2KStZPf4AWTBTJk1UWTDvrli+DZ8P9st/Cy0YEvBQ3IMciIOZyA/VqkFWTUdb85o5583Z3NNrn+ZNrRq8Hab5+2jVKsfh4qOqINlg/Hhk46As8YFDB4dN4FECITY2VlkwEY6e//RU4EtuQ6BpwZCAg+IeIjiLvDGKxzaExhurRq73+fH6AChYNW3t7fHazQDnuwWCXFJ6XKVOllecEvIGIRISEkRUZKQlocfvmDFtGiYVsSHHHu9n9Xd7i/zs5L8pwi6fNvosGD21Ecfl7/TaggGM1slIQXEPMSAcWMxE3iyKx49Igepn1WCfXO/z441WzdixcSqrRr6Px4Jk8ufVK37P7j371CxQn6z/1Fbf0IjoHv82j52vqDE/c/p0cd4559haWltFTW2NwxubyBPys1I3tvTUVJUF40sLBp+7tklRJ8OO70MgEjBEalG7zujoaFVYTCcpKUnNznGqokLfHyXFS61LIYqSohaFdSlk0XgFefn5MRcvvuKKqpq6W5qam+a0tXWoG4M3QFDHjo1xFOTl2847d7ZISU4WUyZNFImJiSIrM0M761/IpwV5g2hVWTkfrVqtsmiGCv4N+HenJidXpqQkF8VER61av7Zoj4u5S/smzsC6RO0zWjB4Bc6ROqAFQ0YCinsY4E7kzQQe/4PIQ+Cxbibyi6/8XE58YsrS+vqGxbWnT2djn7ciD38bIHKH2CckJPZrj0kJCaKxuVnbEqK5ucnR2dkln0wc3v0iJ/SbS2JC4s6sjLTl64o+/lgXdWAUdog61jVhp6iToIHiHiY4CzzwJPIQeKx4EvmYsQkPnqqqntfZ2Zmk7R40ERE2JYi6gGN7qGLuTGpK8uH83OxX3Ik6Xg3ROkWdBB0U9zBjqCJvJvBGq6amtva8np5e+SM+1eMhIf/d6qkCqY0Febn/tGLB4NVbYaeok0CC4h6mWLFqgLPIQ+Cx4SqKz8jKuaamtu7isvKKudgXFaVOGxEg6ui0jYuLa8zJytwePzZmmVHUgVHYByvqgMJOAg2Ke5jjaz8eUfyU6TOTdZFvaGyaALsGQovo2d/ogh4dPdoeFTW62SxSB4MRdcBonQQLFHfiN6sGIp+VnTO/qbl1SXNzy4yGpsbMzs6uCHSg+lro9c5ZROnJSYnH4uPiDnoSdbxaFXaKOgk2KO6kD3dRPHAl8hB4bOgiD8yEHtF8R8eZ9PqGhvmtbe2ZUt8T9ewXRNzegJsDOltlhG6TP9qkbJf4uL3C3rsHgo5z/CHqgMJOggGKO+nHYKJ4/M9M5I0Cr9Mn9BmZ+SJi1DktLa2zm1ta8oRDJGiniNb29hhttR9xsbFnxdommqOiotoQnY+NHbPP3ttbXVNTXVZ8cH+DUdCBLuoAwm5V1AGjdRLMUNyJKUO1avDqLpKHCBtf+wRfEjFqVCZe7Q6RGWET1WpdCjhedRHHuvE9sG3Eg6gDy9E6RZ0EIxR34pbBWjVYMRN5YBbRuwLijVfnm4EVQcfrUEQdUNhJsEJxJ5ZwJ/K6wAMzkQeuhB54I/ZGjGIOdEEH3og6YLROQg2KO7GMVasGmHnyakuiCz0wE3tPQMTxc0YxB7qgA03U+wk68CTqgMJOQgGKO/GaQYo8GCD0wCj23mAi5jpeizoFnYQaFHcyaDz58cCN0IM+UXcWfHc4CTnoE3mjoANG6iRcobiTIWEWxQNPQg9MxF7HLJLvE3BnPAk6oKiTcIPiTnyGJ7vGiLPQO+Ms/M4C7oxVQQcUdRIOUNyJT3EVyQNXQm9EF32INdb1V3VQYibiRlwJOqCok3CC4k78ylDF3hPuxBxQ0Em4QnEnw4qz2EN83d0AvIViTshZKO5kxPCFqFPMCSGEEEIIIYQQQgghhBBCCCGEEEIIIYQQQgghhBBCCCGEEEIIIYQQQggxQYj/B3pC1yEaVSDrAAAAAElFTkSuQmCC;fillColor=none;aspect=fixed;" parent="1" vertex="1">
                    <mxGeometry x="1493.62" y="933.97" width="28" height="28" as="geometry"/>
                </mxCell>
                <mxCell id="wynJoZTQOHE1wt2AJN_e-88" value="" style="outlineConnect=0;dashed=0;verticalLabelPosition=bottom;verticalAlign=top;align=center;html=1;shape=mxgraph.aws3.vault;fillColor=#E05243;gradientColor=none;" parent="1" vertex="1">
                    <mxGeometry x="600" y="163.74" width="60" height="60.84" as="geometry"/>
                </mxCell>
                <mxCell id="wynJoZTQOHE1wt2AJN_e-90" value="" style="outlineConnect=0;fontColor=#232F3E;gradientColor=none;fillColor=#C7131F;strokeColor=none;dashed=0;verticalLabelPosition=bottom;verticalAlign=top;align=center;html=1;fontSize=12;fontStyle=0;aspect=fixed;pointerEvents=1;shape=mxgraph.aws4.addon;direction=west;" parent="1" vertex="1">
                    <mxGeometry x="650" y="29.349999999999994" width="58.5" height="30" as="geometry"/>
                </mxCell>
                <mxCell id="wynJoZTQOHE1wt2AJN_e-97" value="" style="pointerEvents=1;shadow=0;dashed=0;html=1;strokeColor=none;fillColor=#505050;labelPosition=center;verticalLabelPosition=bottom;verticalAlign=top;outlineConnect=0;align=center;shape=mxgraph.office.devices.hard_disk;" parent="1" vertex="1">
                    <mxGeometry x="450" y="476" width="26" height="34" as="geometry"/>
                </mxCell>
                <mxCell id="wynJoZTQOHE1wt2AJN_e-99" value="" style="pointerEvents=1;shadow=0;dashed=0;html=1;strokeColor=none;fillColor=#434445;aspect=fixed;labelPosition=center;verticalLabelPosition=bottom;verticalAlign=top;align=center;outlineConnect=0;shape=mxgraph.vvd.cpu;" parent="1" vertex="1">
                    <mxGeometry x="446" y="440" width="34" height="34" as="geometry"/>
                </mxCell>
                <mxCell id="wynJoZTQOHE1wt2AJN_e-195" value="" style="fontColor=#0066CC;verticalAlign=top;verticalLabelPosition=bottom;labelPosition=center;align=center;html=1;outlineConnect=0;fillColor=#CCCCCC;strokeColor=#6881B3;gradientColor=none;gradientDirection=north;strokeWidth=2;shape=mxgraph.networks.desktop_pc;" parent="1" vertex="1">
                    <mxGeometry x="990" y="453.97" width="90" height="138" as="geometry"/>
                </mxCell>
                <mxCell id="wynJoZTQOHE1wt2AJN_e-196" value="" style="fontColor=#0066CC;verticalAlign=top;verticalLabelPosition=bottom;labelPosition=center;align=center;html=1;outlineConnect=0;fillColor=#CCCCCC;strokeColor=#6881B3;gradientColor=none;gradientDirection=north;strokeWidth=2;shape=mxgraph.networks.desktop_pc;" parent="1" vertex="1">
                    <mxGeometry x="1110" y="453.97" width="90" height="138" as="geometry"/>
                </mxCell>
                <mxCell id="wynJoZTQOHE1wt2AJN_e-197" value="" style="fontColor=#0066CC;verticalAlign=top;verticalLabelPosition=bottom;labelPosition=center;align=center;html=1;outlineConnect=0;fillColor=#CCCCCC;strokeColor=#6881B3;gradientColor=none;gradientDirection=north;strokeWidth=2;shape=mxgraph.networks.desktop_pc;" parent="1" vertex="1">
                    <mxGeometry x="990" y="613.77" width="90" height="138" as="geometry"/>
                </mxCell>
                <mxCell id="wynJoZTQOHE1wt2AJN_e-198" value="" style="fontColor=#0066CC;verticalAlign=top;verticalLabelPosition=bottom;labelPosition=center;align=center;html=1;outlineConnect=0;fillColor=#CCCCCC;strokeColor=#6881B3;gradientColor=none;gradientDirection=north;strokeWidth=2;shape=mxgraph.networks.desktop_pc;" parent="1" vertex="1">
                    <mxGeometry x="1110" y="613.77" width="90" height="138" as="geometry"/>
                </mxCell>
                <mxCell id="wynJoZTQOHE1wt2AJN_e-204" value="" style="shadow=0;dashed=0;html=1;strokeColor=none;fillColor=#4495D1;labelPosition=center;verticalLabelPosition=bottom;verticalAlign=top;align=center;outlineConnect=0;shape=mxgraph.veeam.2d.virtual_machine;" parent="1" vertex="1">
                    <mxGeometry x="1020" y="534.87" width="44.8" height="44" as="geometry"/>
                </mxCell>
                <mxCell id="wynJoZTQOHE1wt2AJN_e-207" value="" style="shadow=0;dashed=0;html=1;strokeColor=none;fillColor=#4495D1;labelPosition=center;verticalLabelPosition=bottom;verticalAlign=top;align=center;outlineConnect=0;shape=mxgraph.veeam.2d.virtual_machine;" parent="1" vertex="1">
                    <mxGeometry x="1140" y="537.3199999999999" width="44.8" height="44" as="geometry"/>
                </mxCell>
                <mxCell id="wynJoZTQOHE1wt2AJN_e-221" value="" style="group" parent="1" vertex="1" connectable="0">
                    <mxGeometry x="1376" y="443.72" width="110" height="146.39999999999998" as="geometry"/>
                </mxCell>
                <mxCell id="wynJoZTQOHE1wt2AJN_e-208" value="" style="rounded=1;whiteSpace=wrap;html=1;fillColor=none;" parent="wynJoZTQOHE1wt2AJN_e-221" vertex="1">
                    <mxGeometry width="110" height="146.4" as="geometry"/>
                </mxCell>
                <mxCell id="wynJoZTQOHE1wt2AJN_e-209" value="" style="outlineConnect=0;fontColor=#232F3E;gradientColor=none;fillColor=#D05C17;strokeColor=none;dashed=0;verticalLabelPosition=bottom;verticalAlign=top;align=center;html=1;fontSize=12;fontStyle=0;aspect=fixed;pointerEvents=1;shape=mxgraph.aws4.container_1;flipH=1;" parent="wynJoZTQOHE1wt2AJN_e-221" vertex="1">
                    <mxGeometry x="13" y="8.399999999999977" width="39" height="25" as="geometry"/>
                </mxCell>
                <mxCell id="wynJoZTQOHE1wt2AJN_e-212" value="" style="outlineConnect=0;fontColor=#232F3E;gradientColor=none;fillColor=#D05C17;strokeColor=none;dashed=0;verticalLabelPosition=bottom;verticalAlign=top;align=center;html=1;fontSize=12;fontStyle=0;aspect=fixed;pointerEvents=1;shape=mxgraph.aws4.container_1;flipH=1;" parent="wynJoZTQOHE1wt2AJN_e-221" vertex="1">
                    <mxGeometry x="13.5" y="42.14999999999998" width="39" height="25" as="geometry"/>
                </mxCell>
                <mxCell id="wynJoZTQOHE1wt2AJN_e-214" value="" style="outlineConnect=0;fontColor=#232F3E;gradientColor=none;fillColor=#D05C17;strokeColor=none;dashed=0;verticalLabelPosition=bottom;verticalAlign=top;align=center;html=1;fontSize=12;fontStyle=0;aspect=fixed;pointerEvents=1;shape=mxgraph.aws4.container_1;flipH=1;" parent="wynJoZTQOHE1wt2AJN_e-221" vertex="1">
                    <mxGeometry x="13.5" y="110.75" width="39" height="25" as="geometry"/>
                </mxCell>
                <mxCell id="wynJoZTQOHE1wt2AJN_e-216" value="" style="outlineConnect=0;fontColor=#232F3E;gradientColor=none;fillColor=#D05C17;strokeColor=none;dashed=0;verticalLabelPosition=bottom;verticalAlign=top;align=center;html=1;fontSize=12;fontStyle=0;aspect=fixed;pointerEvents=1;shape=mxgraph.aws4.container_1;flipH=1;" parent="wynJoZTQOHE1wt2AJN_e-221" vertex="1">
                    <mxGeometry x="13" y="76.14999999999998" width="39" height="25" as="geometry"/>
                </mxCell>
                <mxCell id="wynJoZTQOHE1wt2AJN_e-217" value="" style="outlineConnect=0;fontColor=#232F3E;gradientColor=none;fillColor=#D05C17;strokeColor=none;dashed=0;verticalLabelPosition=bottom;verticalAlign=top;align=center;html=1;fontSize=12;fontStyle=0;aspect=fixed;pointerEvents=1;shape=mxgraph.aws4.container_1;flipH=1;" parent="wynJoZTQOHE1wt2AJN_e-221" vertex="1">
                    <mxGeometry x="58" y="8.399999999999977" width="39" height="25" as="geometry"/>
                </mxCell>
                <mxCell id="wynJoZTQOHE1wt2AJN_e-218" value="" style="outlineConnect=0;fontColor=#232F3E;gradientColor=none;fillColor=#D05C17;strokeColor=none;dashed=0;verticalLabelPosition=bottom;verticalAlign=top;align=center;html=1;fontSize=12;fontStyle=0;aspect=fixed;pointerEvents=1;shape=mxgraph.aws4.container_1;flipH=1;" parent="wynJoZTQOHE1wt2AJN_e-221" vertex="1">
                    <mxGeometry x="58.5" y="42.14999999999998" width="39" height="25" as="geometry"/>
                </mxCell>
                <mxCell id="wynJoZTQOHE1wt2AJN_e-219" value="" style="outlineConnect=0;fontColor=#232F3E;gradientColor=none;fillColor=#D05C17;strokeColor=none;dashed=0;verticalLabelPosition=bottom;verticalAlign=top;align=center;html=1;fontSize=12;fontStyle=0;aspect=fixed;pointerEvents=1;shape=mxgraph.aws4.container_1;flipH=1;" parent="wynJoZTQOHE1wt2AJN_e-221" vertex="1">
                    <mxGeometry x="58.5" y="110.75" width="39" height="25" as="geometry"/>
                </mxCell>
                <mxCell id="wynJoZTQOHE1wt2AJN_e-220" value="" style="outlineConnect=0;fontColor=#232F3E;gradientColor=none;fillColor=#D05C17;strokeColor=none;dashed=0;verticalLabelPosition=bottom;verticalAlign=top;align=center;html=1;fontSize=12;fontStyle=0;aspect=fixed;pointerEvents=1;shape=mxgraph.aws4.container_1;flipH=1;" parent="wynJoZTQOHE1wt2AJN_e-221" vertex="1">
                    <mxGeometry x="58" y="76.14999999999998" width="39" height="25" as="geometry"/>
                </mxCell>
                <mxCell id="wynJoZTQOHE1wt2AJN_e-222" value="" style="html=1;dashed=0;whitespace=wrap;fillColor=#2875E2;strokeColor=#ffffff;points=[[0.005,0.63,0],[0.1,0.2,0],[0.9,0.2,0],[0.5,0,0],[0.995,0.63,0],[0.72,0.99,0],[0.5,1,0],[0.28,0.99,0]];shape=mxgraph.kubernetes.icon;prIcon=api" parent="1" vertex="1">
                    <mxGeometry x="1250" y="476.9200000000001" width="80" height="80" as="geometry"/>
                </mxCell>
                <mxCell id="wynJoZTQOHE1wt2AJN_e-223" value="" style="group" parent="1" vertex="1" connectable="0">
                    <mxGeometry x="1376" y="605.3699999999999" width="110" height="146.39999999999998" as="geometry"/>
                </mxCell>
                <mxCell id="wynJoZTQOHE1wt2AJN_e-224" value="" style="rounded=1;whiteSpace=wrap;html=1;fillColor=none;" parent="wynJoZTQOHE1wt2AJN_e-223" vertex="1">
                    <mxGeometry width="110" height="146.4" as="geometry"/>
                </mxCell>
                <mxCell id="wynJoZTQOHE1wt2AJN_e-225" value="" style="outlineConnect=0;fontColor=#232F3E;gradientColor=none;fillColor=#D05C17;strokeColor=none;dashed=0;verticalLabelPosition=bottom;verticalAlign=top;align=center;html=1;fontSize=12;fontStyle=0;aspect=fixed;pointerEvents=1;shape=mxgraph.aws4.container_1;flipH=1;" parent="wynJoZTQOHE1wt2AJN_e-223" vertex="1">
                    <mxGeometry x="13" y="8.399999999999977" width="39" height="25" as="geometry"/>
                </mxCell>
                <mxCell id="wynJoZTQOHE1wt2AJN_e-226" value="" style="outlineConnect=0;fontColor=#232F3E;gradientColor=none;fillColor=#D05C17;strokeColor=none;dashed=0;verticalLabelPosition=bottom;verticalAlign=top;align=center;html=1;fontSize=12;fontStyle=0;aspect=fixed;pointerEvents=1;shape=mxgraph.aws4.container_1;flipH=1;" parent="wynJoZTQOHE1wt2AJN_e-223" vertex="1">
                    <mxGeometry x="13.5" y="42.14999999999998" width="39" height="25" as="geometry"/>
                </mxCell>
                <mxCell id="wynJoZTQOHE1wt2AJN_e-227" value="" style="outlineConnect=0;fontColor=#232F3E;gradientColor=none;fillColor=#D05C17;strokeColor=none;dashed=0;verticalLabelPosition=bottom;verticalAlign=top;align=center;html=1;fontSize=12;fontStyle=0;aspect=fixed;pointerEvents=1;shape=mxgraph.aws4.container_1;flipH=1;" parent="wynJoZTQOHE1wt2AJN_e-223" vertex="1">
                    <mxGeometry x="13.5" y="110.75" width="39" height="25" as="geometry"/>
                </mxCell>
                <mxCell id="wynJoZTQOHE1wt2AJN_e-228" value="" style="outlineConnect=0;fontColor=#232F3E;gradientColor=none;fillColor=#D05C17;strokeColor=none;dashed=0;verticalLabelPosition=bottom;verticalAlign=top;align=center;html=1;fontSize=12;fontStyle=0;aspect=fixed;pointerEvents=1;shape=mxgraph.aws4.container_1;flipH=1;" parent="wynJoZTQOHE1wt2AJN_e-223" vertex="1">
                    <mxGeometry x="13" y="76.14999999999998" width="39" height="25" as="geometry"/>
                </mxCell>
                <mxCell id="wynJoZTQOHE1wt2AJN_e-229" value="" style="outlineConnect=0;fontColor=#232F3E;gradientColor=none;fillColor=#D05C17;strokeColor=none;dashed=0;verticalLabelPosition=bottom;verticalAlign=top;align=center;html=1;fontSize=12;fontStyle=0;aspect=fixed;pointerEvents=1;shape=mxgraph.aws4.container_1;flipH=1;" parent="wynJoZTQOHE1wt2AJN_e-223" vertex="1">
                    <mxGeometry x="58" y="8.399999999999977" width="39" height="25" as="geometry"/>
                </mxCell>
                <mxCell id="wynJoZTQOHE1wt2AJN_e-230" value="" style="outlineConnect=0;fontColor=#232F3E;gradientColor=none;fillColor=#D05C17;strokeColor=none;dashed=0;verticalLabelPosition=bottom;verticalAlign=top;align=center;html=1;fontSize=12;fontStyle=0;aspect=fixed;pointerEvents=1;shape=mxgraph.aws4.container_1;flipH=1;" parent="wynJoZTQOHE1wt2AJN_e-223" vertex="1">
                    <mxGeometry x="58.5" y="42.14999999999998" width="39" height="25" as="geometry"/>
                </mxCell>
                <mxCell id="wynJoZTQOHE1wt2AJN_e-231" value="" style="outlineConnect=0;fontColor=#232F3E;gradientColor=none;fillColor=#D05C17;strokeColor=none;dashed=0;verticalLabelPosition=bottom;verticalAlign=top;align=center;html=1;fontSize=12;fontStyle=0;aspect=fixed;pointerEvents=1;shape=mxgraph.aws4.container_1;flipH=1;" parent="wynJoZTQOHE1wt2AJN_e-223" vertex="1">
                    <mxGeometry x="58.5" y="110.75" width="39" height="25" as="geometry"/>
                </mxCell>
                <mxCell id="wynJoZTQOHE1wt2AJN_e-232" value="" style="outlineConnect=0;fontColor=#232F3E;gradientColor=none;fillColor=#D05C17;strokeColor=none;dashed=0;verticalLabelPosition=bottom;verticalAlign=top;align=center;html=1;fontSize=12;fontStyle=0;aspect=fixed;pointerEvents=1;shape=mxgraph.aws4.container_1;flipH=1;" parent="wynJoZTQOHE1wt2AJN_e-223" vertex="1">
                    <mxGeometry x="58" y="76.14999999999998" width="39" height="25" as="geometry"/>
                </mxCell>
                <mxCell id="wynJoZTQOHE1wt2AJN_e-234" value="" style="aspect=fixed;html=1;points=[];align=center;image;fontSize=12;image=img/lib/mscae/Docker.svg;fillColor=#010E14;" parent="1" vertex="1">
                    <mxGeometry x="1255" y="656.6700000000001" width="75" height="61.5" as="geometry"/>
                </mxCell>
                <mxCell id="wynJoZTQOHE1wt2AJN_e-241" value="" style="rounded=1;whiteSpace=wrap;html=1;fillColor=none;" parent="1" vertex="1">
                    <mxGeometry x="930" y="400" width="610" height="380" as="geometry"/>
                </mxCell>
                <mxCell id="wynJoZTQOHE1wt2AJN_e-411" value="" style="group;aspect=fixed;" parent="1" vertex="1" connectable="0">
                    <mxGeometry x="-50" y="670" width="160" height="75.79" as="geometry"/>
                </mxCell>
                <mxCell id="wynJoZTQOHE1wt2AJN_e-68" value="" style="rounded=1;whiteSpace=wrap;html=1;fillColor=none;" parent="wynJoZTQOHE1wt2AJN_e-411" vertex="1">
                    <mxGeometry width="160" height="75.79" as="geometry"/>
                </mxCell>
                <mxCell id="wynJoZTQOHE1wt2AJN_e-61" value="" style="outlineConnect=0;fontColor=#232F3E;gradientColor=none;fillColor=#D05C17;strokeColor=none;dashed=0;verticalLabelPosition=bottom;verticalAlign=top;align=center;html=1;fontSize=12;fontStyle=0;aspect=fixed;pointerEvents=1;shape=mxgraph.aws4.container_1;" parent="wynJoZTQOHE1wt2AJN_e-411" vertex="1">
                    <mxGeometry x="21.473684210526315" y="12.631666666666668" width="32.84210526315789" height="21.052631578947366" as="geometry"/>
                </mxCell>
                <mxCell id="wynJoZTQOHE1wt2AJN_e-62" value="" style="outlineConnect=0;fontColor=#232F3E;gradientColor=none;fillColor=#D05C17;strokeColor=none;dashed=0;verticalLabelPosition=bottom;verticalAlign=top;align=center;html=1;fontSize=12;fontStyle=0;aspect=fixed;pointerEvents=1;shape=mxgraph.aws4.container_1;" parent="wynJoZTQOHE1wt2AJN_e-411" vertex="1">
                    <mxGeometry x="21.473684210526315" y="42.105555555555554" width="32.84210526315789" height="21.052631578947366" as="geometry"/>
                </mxCell>
                <mxCell id="wynJoZTQOHE1wt2AJN_e-63" value="" style="outlineConnect=0;fontColor=#232F3E;gradientColor=none;fillColor=#D05C17;strokeColor=none;dashed=0;verticalLabelPosition=bottom;verticalAlign=top;align=center;html=1;fontSize=12;fontStyle=0;aspect=fixed;pointerEvents=1;shape=mxgraph.aws4.container_1;" parent="wynJoZTQOHE1wt2AJN_e-411" vertex="1">
                    <mxGeometry x="63.57894736842105" y="42.105555555555554" width="32.84210526315789" height="21.052631578947366" as="geometry"/>
                </mxCell>
                <mxCell id="wynJoZTQOHE1wt2AJN_e-64" value="" style="outlineConnect=0;fontColor=#232F3E;gradientColor=none;fillColor=#D05C17;strokeColor=none;dashed=0;verticalLabelPosition=bottom;verticalAlign=top;align=center;html=1;fontSize=12;fontStyle=0;aspect=fixed;pointerEvents=1;shape=mxgraph.aws4.container_1;" parent="wynJoZTQOHE1wt2AJN_e-411" vertex="1">
                    <mxGeometry x="63.57894736842105" y="12.631666666666668" width="32.84210526315789" height="21.052631578947366" as="geometry"/>
                </mxCell>
                <mxCell id="wynJoZTQOHE1wt2AJN_e-65" value="" style="outlineConnect=0;fontColor=#232F3E;gradientColor=none;fillColor=#D05C17;strokeColor=none;dashed=0;verticalLabelPosition=bottom;verticalAlign=top;align=center;html=1;fontSize=12;fontStyle=0;aspect=fixed;pointerEvents=1;shape=mxgraph.aws4.container_1;" parent="wynJoZTQOHE1wt2AJN_e-411" vertex="1">
                    <mxGeometry x="105.68421052631578" y="12.631666666666668" width="32.84210526315789" height="21.052631578947366" as="geometry"/>
                </mxCell>
                <mxCell id="wynJoZTQOHE1wt2AJN_e-66" value="" style="outlineConnect=0;fontColor=#232F3E;gradientColor=none;fillColor=#D05C17;strokeColor=none;dashed=0;verticalLabelPosition=bottom;verticalAlign=top;align=center;html=1;fontSize=12;fontStyle=0;aspect=fixed;pointerEvents=1;shape=mxgraph.aws4.container_1;" parent="wynJoZTQOHE1wt2AJN_e-411" vertex="1">
                    <mxGeometry x="105.68421052631578" y="42.105555555555554" width="32.84210526315789" height="21.052631578947366" as="geometry"/>
                </mxCell>
                <mxCell id="wynJoZTQOHE1wt2AJN_e-430" value="" style="outlineConnect=0;fontColor=#232F3E;gradientColor=none;fillColor=#5A30B5;strokeColor=none;dashed=0;verticalLabelPosition=bottom;verticalAlign=top;align=center;html=1;fontSize=12;fontStyle=0;aspect=fixed;pointerEvents=1;shape=mxgraph.aws4.mesh;rounded=1;shadow=0;" parent="1" vertex="1">
                    <mxGeometry x="-540" y="830.21" width="15.5" height="15.29" as="geometry"/>
                </mxCell>
                <mxCell id="wynJoZTQOHE1wt2AJN_e-431" value="" style="group" parent="1" vertex="1" connectable="0">
                    <mxGeometry x="-510" y="815.5" width="153" height="51" as="geometry"/>
                </mxCell>
                <mxCell id="wynJoZTQOHE1wt2AJN_e-354" value="&lt;font style=&quot;font-size: 12px&quot;&gt;Volumes&lt;/font&gt;" style="outlineConnect=0;gradientColor=none;dashed=0;verticalLabelPosition=bottom;verticalAlign=top;align=center;html=1;fontSize=19;fontStyle=0;aspect=fixed;shape=mxgraph.aws4.resourceIcon;resIcon=mxgraph.aws4.volume;rounded=1;shadow=0;sketch=0;fillColor=none;strokeColor=#010E14;fontColor=#010E14;spacingBottom=-12;spacingTop=-17;" parent="wynJoZTQOHE1wt2AJN_e-431" vertex="1">
                    <mxGeometry x="61.242527811511934" y="1.671654938956123" width="33.974268061944606" height="34.0001565059847" as="geometry"/>
                </mxCell>
                <mxCell id="wynJoZTQOHE1wt2AJN_e-355" value="&lt;font style=&quot;font-size: 12px&quot;&gt;Buckets&lt;/font&gt;" style="outlineConnect=0;gradientColor=none;dashed=0;verticalLabelPosition=bottom;verticalAlign=top;align=center;html=1;fontSize=19;fontStyle=0;aspect=fixed;shape=mxgraph.aws4.resourceIcon;resIcon=mxgraph.aws4.bucket;rounded=1;shadow=0;sketch=0;fillColor=none;strokeColor=#010E14;fontColor=#010E14;spacingBottom=-10;spacingTop=-17;" parent="wynJoZTQOHE1wt2AJN_e-431" vertex="1">
                    <mxGeometry y="1.6735924274855634" width="33.974268061944606" height="34.0001565059847" as="geometry"/>
                </mxCell>
                <mxCell id="wynJoZTQOHE1wt2AJN_e-356" value="&lt;font style=&quot;font-size: 12px&quot;&gt;Vaults&lt;/font&gt;" style="outlineConnect=0;gradientColor=none;dashed=0;verticalLabelPosition=bottom;verticalAlign=top;align=center;html=1;fontSize=19;fontStyle=0;aspect=fixed;shape=mxgraph.aws4.resourceIcon;resIcon=mxgraph.aws4.vault;rounded=1;shadow=0;sketch=0;fillColor=none;strokeColor=#010E14;fontColor=#010E14;spacingBottom=9;spacingTop=-16;" parent="wynJoZTQOHE1wt2AJN_e-431" vertex="1">
                    <mxGeometry x="119.02573193805543" width="33.974268061944606" height="34.0001565059847" as="geometry"/>
                </mxCell>
                <mxCell id="wynJoZTQOHE1wt2AJN_e-434" value="" style="group" parent="1" vertex="1" connectable="0">
                    <mxGeometry x="-507" y="725.5" width="106.07" height="60" as="geometry"/>
                </mxCell>
                <mxCell id="wynJoZTQOHE1wt2AJN_e-386" value="`" style="group;shadow=0;sketch=0;fontColor=#010E14;" parent="wynJoZTQOHE1wt2AJN_e-434" vertex="1" connectable="0">
                    <mxGeometry width="44" height="60" as="geometry"/>
                </mxCell>
                <mxCell id="wynJoZTQOHE1wt2AJN_e-343" value="" style="rounded=1;whiteSpace=wrap;html=1;fillColor=none;fontSize=5;shadow=0;sketch=0;fontColor=#010E14;" parent="wynJoZTQOHE1wt2AJN_e-386" vertex="1">
                    <mxGeometry width="44" height="52.15123859191656" as="geometry"/>
                </mxCell>
                <mxCell id="wynJoZTQOHE1wt2AJN_e-344" value="vCore" style="pointerEvents=1;shadow=0;dashed=0;html=1;strokeColor=none;fillColor=#434445;aspect=fixed;labelPosition=center;verticalLabelPosition=bottom;verticalAlign=top;align=center;outlineConnect=0;shape=mxgraph.vvd.cpu;fontSize=5;spacingTop=-5;sketch=0;fontColor=#010E14;" parent="wynJoZTQOHE1wt2AJN_e-386" vertex="1">
                    <mxGeometry x="3.4729435357228633" y="3.415699806015466" width="11.778745293069665" height="11.778745293069665" as="geometry"/>
                </mxCell>
                <mxCell id="wynJoZTQOHE1wt2AJN_e-346" value="Mem" style="pointerEvents=1;shadow=0;dashed=0;html=1;strokeColor=none;fillColor=#4495D1;labelPosition=center;verticalLabelPosition=bottom;verticalAlign=top;align=center;outlineConnect=0;shape=mxgraph.veeam.ram;direction=south;fontSize=5;spacingTop=-6;sketch=0;fontColor=#010E14;" parent="wynJoZTQOHE1wt2AJN_e-386" vertex="1">
                    <mxGeometry x="27.15261857418304" y="24.429197895928315" width="11.713887585692804" height="15.770501983468865" as="geometry"/>
                </mxCell>
                <mxCell id="wynJoZTQOHE1wt2AJN_e-347" value="vDisk" style="verticalLabelPosition=bottom;html=1;verticalAlign=top;align=center;strokeColor=none;shape=mxgraph.azure.vhd_data_disk;pointerEvents=1;rounded=1;fillColor=#010E14;fontSize=5;spacingTop=-6;shadow=0;sketch=0;fontColor=#010E14;" parent="wynJoZTQOHE1wt2AJN_e-386" vertex="1">
                    <mxGeometry x="4.675132533186767" y="24.429197895928315" width="15.15630629993827" height="15.770501983468865" as="geometry"/>
                </mxCell>
                <mxCell id="wynJoZTQOHE1wt2AJN_e-357" value="vCore" style="pointerEvents=1;shadow=0;dashed=0;html=1;strokeColor=none;fillColor=#434445;aspect=fixed;labelPosition=center;verticalLabelPosition=bottom;verticalAlign=top;align=center;outlineConnect=0;shape=mxgraph.vvd.cpu;fontSize=5;spacingTop=-5;sketch=0;fontColor=#010E14;" parent="wynJoZTQOHE1wt2AJN_e-386" vertex="1">
                    <mxGeometry x="24.229952337570506" y="3.415699806015466" width="11.778745293069665" height="11.778745293069665" as="geometry"/>
                </mxCell>
                <mxCell id="wynJoZTQOHE1wt2AJN_e-387" value="`" style="group;shadow=0;sketch=0;fontColor=#010E14;" parent="wynJoZTQOHE1wt2AJN_e-434" vertex="1" connectable="0">
                    <mxGeometry x="63.20999999999998" width="42.86" height="60" as="geometry"/>
                </mxCell>
                <mxCell id="wynJoZTQOHE1wt2AJN_e-388" value="" style="rounded=1;whiteSpace=wrap;html=1;fillColor=none;fontSize=5;shadow=0;sketch=0;fontColor=#010E14;" parent="wynJoZTQOHE1wt2AJN_e-387" vertex="1">
                    <mxGeometry width="42.86" height="52.15123859191656" as="geometry"/>
                </mxCell>
                <mxCell id="wynJoZTQOHE1wt2AJN_e-389" value="vCore" style="pointerEvents=1;shadow=0;dashed=0;html=1;strokeColor=none;fillColor=#434445;aspect=fixed;labelPosition=center;verticalLabelPosition=bottom;verticalAlign=top;align=center;outlineConnect=0;shape=mxgraph.vvd.cpu;fontSize=5;spacingTop=-5;sketch=0;fontColor=#010E14;" parent="wynJoZTQOHE1wt2AJN_e-387" vertex="1">
                    <mxGeometry x="3.3829627259336794" y="3.415699806015466" width="14.455732859676408" height="14.455732859676408" as="geometry"/>
                </mxCell>
                <mxCell id="wynJoZTQOHE1wt2AJN_e-390" value="Mem" style="pointerEvents=1;shadow=0;dashed=0;html=1;strokeColor=none;fillColor=#4495D1;labelPosition=center;verticalLabelPosition=bottom;verticalAlign=top;align=center;outlineConnect=0;shape=mxgraph.veeam.ram;direction=south;fontSize=5;spacingTop=-6;sketch=0;fontColor=#010E14;" parent="wynJoZTQOHE1wt2AJN_e-387" vertex="1">
                    <mxGeometry x="26.44911891112466" y="24.429197895928315" width="11.410391407336217" height="15.770501983468865" as="geometry"/>
                </mxCell>
                <mxCell id="wynJoZTQOHE1wt2AJN_e-391" value="vDisk" style="verticalLabelPosition=bottom;html=1;verticalAlign=top;align=center;strokeColor=none;shape=mxgraph.azure.vhd_data_disk;pointerEvents=1;rounded=1;fillColor=#010E14;fontSize=5;spacingTop=-6;shadow=0;sketch=0;fontColor=#010E14;" parent="wynJoZTQOHE1wt2AJN_e-387" vertex="1">
                    <mxGeometry x="4.554004099372382" y="24.429197895928315" width="14.763620182167141" height="15.770501983468865" as="geometry"/>
                </mxCell>
                <mxCell id="wynJoZTQOHE1wt2AJN_e-392" value="vCore" style="pointerEvents=1;shadow=0;dashed=0;html=1;strokeColor=none;fillColor=#434445;aspect=fixed;labelPosition=center;verticalLabelPosition=bottom;verticalAlign=top;align=center;outlineConnect=0;shape=mxgraph.vvd.cpu;fontSize=5;spacingTop=-5;sketch=0;fontColor=#010E14;" parent="wynJoZTQOHE1wt2AJN_e-387" vertex="1">
                    <mxGeometry x="23.60217629973345" y="3.415699806015466" width="14.455732859676408" height="14.455732859676408" as="geometry"/>
                </mxCell>
                <mxCell id="wynJoZTQOHE1wt2AJN_e-436" value="" style="group" parent="1" vertex="1" connectable="0">
                    <mxGeometry x="-380" y="725.5" width="106.07" height="60" as="geometry"/>
                </mxCell>
                <mxCell id="wynJoZTQOHE1wt2AJN_e-437" value="`" style="group;shadow=0;sketch=0;fontColor=#010E14;" parent="wynJoZTQOHE1wt2AJN_e-436" vertex="1" connectable="0">
                    <mxGeometry width="44" height="60" as="geometry"/>
                </mxCell>
                <mxCell id="wynJoZTQOHE1wt2AJN_e-438" value="" style="rounded=1;whiteSpace=wrap;html=1;fillColor=none;fontSize=5;shadow=0;sketch=0;fontColor=#010E14;" parent="wynJoZTQOHE1wt2AJN_e-437" vertex="1">
                    <mxGeometry width="44" height="52.15123859191656" as="geometry"/>
                </mxCell>
                <mxCell id="wynJoZTQOHE1wt2AJN_e-439" value="vCore" style="pointerEvents=1;shadow=0;dashed=0;html=1;strokeColor=none;fillColor=#434445;aspect=fixed;labelPosition=center;verticalLabelPosition=bottom;verticalAlign=top;align=center;outlineConnect=0;shape=mxgraph.vvd.cpu;fontSize=5;spacingTop=-5;sketch=0;fontColor=#010E14;" parent="wynJoZTQOHE1wt2AJN_e-437" vertex="1">
                    <mxGeometry x="3.4729435357228633" y="3.415699806015466" width="11.778745293069665" height="11.778745293069665" as="geometry"/>
                </mxCell>
                <mxCell id="wynJoZTQOHE1wt2AJN_e-440" value="Mem" style="pointerEvents=1;shadow=0;dashed=0;html=1;strokeColor=none;fillColor=#4495D1;labelPosition=center;verticalLabelPosition=bottom;verticalAlign=top;align=center;outlineConnect=0;shape=mxgraph.veeam.ram;direction=south;fontSize=5;spacingTop=-6;sketch=0;fontColor=#010E14;" parent="wynJoZTQOHE1wt2AJN_e-437" vertex="1">
                    <mxGeometry x="27.15261857418304" y="24.429197895928315" width="11.713887585692804" height="15.770501983468865" as="geometry"/>
                </mxCell>
                <mxCell id="wynJoZTQOHE1wt2AJN_e-441" value="vDisk" style="verticalLabelPosition=bottom;html=1;verticalAlign=top;align=center;strokeColor=none;shape=mxgraph.azure.vhd_data_disk;pointerEvents=1;rounded=1;fillColor=#010E14;fontSize=5;spacingTop=-6;shadow=0;sketch=0;fontColor=#010E14;" parent="wynJoZTQOHE1wt2AJN_e-437" vertex="1">
                    <mxGeometry x="4.675132533186767" y="24.429197895928315" width="15.15630629993827" height="15.770501983468865" as="geometry"/>
                </mxCell>
                <mxCell id="wynJoZTQOHE1wt2AJN_e-442" value="vCore" style="pointerEvents=1;shadow=0;dashed=0;html=1;strokeColor=none;fillColor=#434445;aspect=fixed;labelPosition=center;verticalLabelPosition=bottom;verticalAlign=top;align=center;outlineConnect=0;shape=mxgraph.vvd.cpu;fontSize=5;spacingTop=-5;sketch=0;fontColor=#010E14;" parent="wynJoZTQOHE1wt2AJN_e-437" vertex="1">
                    <mxGeometry x="24.229952337570506" y="3.415699806015466" width="11.778745293069665" height="11.778745293069665" as="geometry"/>
                </mxCell>
                <mxCell id="wynJoZTQOHE1wt2AJN_e-443" value="`" style="group;shadow=0;sketch=0;fontColor=#010E14;" parent="wynJoZTQOHE1wt2AJN_e-436" vertex="1" connectable="0">
                    <mxGeometry x="63.20999999999998" width="42.86" height="60" as="geometry"/>
                </mxCell>
                <mxCell id="wynJoZTQOHE1wt2AJN_e-444" value="" style="rounded=1;whiteSpace=wrap;html=1;fillColor=none;fontSize=5;shadow=0;sketch=0;fontColor=#010E14;" parent="wynJoZTQOHE1wt2AJN_e-443" vertex="1">
                    <mxGeometry width="42.86" height="52.15123859191656" as="geometry"/>
                </mxCell>
                <mxCell id="wynJoZTQOHE1wt2AJN_e-445" value="vCore" style="pointerEvents=1;shadow=0;dashed=0;html=1;strokeColor=none;fillColor=#434445;aspect=fixed;labelPosition=center;verticalLabelPosition=bottom;verticalAlign=top;align=center;outlineConnect=0;shape=mxgraph.vvd.cpu;fontSize=5;spacingTop=-5;sketch=0;fontColor=#010E14;" parent="wynJoZTQOHE1wt2AJN_e-443" vertex="1">
                    <mxGeometry x="3.3829627259336794" y="3.415699806015466" width="14.455732859676408" height="14.455732859676408" as="geometry"/>
                </mxCell>
                <mxCell id="wynJoZTQOHE1wt2AJN_e-446" value="Mem" style="pointerEvents=1;shadow=0;dashed=0;html=1;strokeColor=none;fillColor=#4495D1;labelPosition=center;verticalLabelPosition=bottom;verticalAlign=top;align=center;outlineConnect=0;shape=mxgraph.veeam.ram;direction=south;fontSize=5;spacingTop=-6;sketch=0;fontColor=#010E14;" parent="wynJoZTQOHE1wt2AJN_e-443" vertex="1">
                    <mxGeometry x="26.44911891112466" y="24.429197895928315" width="11.410391407336217" height="15.770501983468865" as="geometry"/>
                </mxCell>
                <mxCell id="wynJoZTQOHE1wt2AJN_e-447" value="vDisk" style="verticalLabelPosition=bottom;html=1;verticalAlign=top;align=center;strokeColor=none;shape=mxgraph.azure.vhd_data_disk;pointerEvents=1;rounded=1;fillColor=#010E14;fontSize=5;spacingTop=-6;shadow=0;sketch=0;fontColor=#010E14;" parent="wynJoZTQOHE1wt2AJN_e-443" vertex="1">
                    <mxGeometry x="4.554004099372382" y="24.429197895928315" width="14.763620182167141" height="15.770501983468865" as="geometry"/>
                </mxCell>
                <mxCell id="wynJoZTQOHE1wt2AJN_e-448" value="vCore" style="pointerEvents=1;shadow=0;dashed=0;html=1;strokeColor=none;fillColor=#434445;aspect=fixed;labelPosition=center;verticalLabelPosition=bottom;verticalAlign=top;align=center;outlineConnect=0;shape=mxgraph.vvd.cpu;fontSize=5;spacingTop=-5;sketch=0;fontColor=#010E14;" parent="wynJoZTQOHE1wt2AJN_e-443" vertex="1">
                    <mxGeometry x="23.60217629973345" y="3.415699806015466" width="14.455732859676408" height="14.455732859676408" as="geometry"/>
                </mxCell>
                <mxCell id="wynJoZTQOHE1wt2AJN_e-201" value="" style="points=[[0.015,0.015,0],[0.985,0.015,0],[0.985,0.985,0],[0.015,0.985,0],[0.25,0,0],[0.5,0,0],[0.75,0,0],[1,0.25,0],[1,0.5,0],[1,0.75,0],[0.75,1,0],[0.5,1,0],[0.25,1,0],[0,0.75,0],[0,0.5,0],[0,0.25,0]];verticalLabelPosition=bottom;html=1;verticalAlign=top;aspect=fixed;align=center;pointerEvents=1;shape=mxgraph.cisco19.rect;prIcon=hypervisor;fillColor=#FAFAFA;fontSize=11;shadow=0;sketch=0;fontColor=#010E14;strokeColor=#606160;" parent="1" vertex="1">
                    <mxGeometry x="-540.0004376979382" y="740.4525295416831" width="16.744182941454557" height="21.76797976529587" as="geometry"/>
                </mxCell>
                <mxCell id="wynJoZTQOHE1wt2AJN_e-15" value="" style="verticalAlign=top;verticalLabelPosition=bottom;labelPosition=center;align=center;html=1;outlineConnect=0;gradientColor=none;gradientDirection=north;strokeWidth=2;shape=mxgraph.networks.desktop_pc;fontSize=11;shadow=0;sketch=0;fontColor=#010E14;fillColor=#E6E8E6;strokeColor=#635E5E;" parent="1" vertex="1">
                    <mxGeometry x="-757.9278091067736" y="717.2064378066688" width="31.778835307329366" height="64.17875076107588" as="geometry"/>
                </mxCell>
                <mxCell id="wynJoZTQOHE1wt2AJN_e-174" value="" style="group;fontSize=11;shadow=0;sketch=0;fontColor=#010E14;" parent="1" vertex="1" connectable="0">
                    <mxGeometry x="-714.4679218911582" y="719.2495815574896" width="65.22846183428129" height="60.092463259434346" as="geometry"/>
                </mxCell>
                <mxCell id="wynJoZTQOHE1wt2AJN_e-156" value="" style="rounded=1;whiteSpace=wrap;html=1;fillColor=none;fontSize=11;shadow=0;sketch=0;fontColor=#010E14;" parent="wynJoZTQOHE1wt2AJN_e-174" vertex="1">
                    <mxGeometry width="65.22846183428129" height="60.09246325943435" as="geometry"/>
                </mxCell>
                <mxCell id="wynJoZTQOHE1wt2AJN_e-96" value="" style="pointerEvents=1;shadow=0;dashed=0;html=1;strokeColor=none;fillColor=#505050;labelPosition=center;verticalLabelPosition=bottom;verticalAlign=top;outlineConnect=0;align=center;shape=mxgraph.office.devices.hard_disk;fontSize=11;sketch=0;fontColor=#010E14;" parent="wynJoZTQOHE1wt2AJN_e-174" vertex="1">
                    <mxGeometry x="11.491131002568483" y="32.09686464895603" width="18.179998302571033" height="23.35938482785133" as="geometry"/>
                </mxCell>
                <mxCell id="wynJoZTQOHE1wt2AJN_e-98" value="" style="pointerEvents=1;shadow=0;dashed=0;html=1;strokeColor=none;aspect=fixed;labelPosition=center;verticalLabelPosition=bottom;verticalAlign=top;align=center;outlineConnect=0;shape=mxgraph.vvd.cpu;fontSize=11;sketch=0;fontColor=#010E14;fillColor=#606160;" parent="wynJoZTQOHE1wt2AJN_e-174" vertex="1">
                    <mxGeometry x="10.290565076927003" y="5.527793356209095" width="8.72593300140084" height="8.72593300140084" as="geometry"/>
                </mxCell>
                <mxCell id="wynJoZTQOHE1wt2AJN_e-100" value="" style="pointerEvents=1;shadow=0;dashed=0;html=1;strokeColor=none;aspect=fixed;labelPosition=center;verticalLabelPosition=bottom;verticalAlign=top;align=center;outlineConnect=0;shape=mxgraph.vvd.cpu;fontSize=11;sketch=0;fontColor=#010E14;fillColor=#606160;" parent="wynJoZTQOHE1wt2AJN_e-174" vertex="1">
                    <mxGeometry x="21.781696079495482" y="5.527793356209095" width="8.72593300140084" height="8.72593300140084" as="geometry"/>
                </mxCell>
                <mxCell id="wynJoZTQOHE1wt2AJN_e-101" value="" style="pointerEvents=1;shadow=0;dashed=0;html=1;strokeColor=none;aspect=fixed;labelPosition=center;verticalLabelPosition=bottom;verticalAlign=top;align=center;outlineConnect=0;shape=mxgraph.vvd.cpu;fontSize=11;sketch=0;fontColor=#010E14;fillColor=#606160;" parent="wynJoZTQOHE1wt2AJN_e-174" vertex="1">
                    <mxGeometry x="33.44433650001276" y="5.527793356209095" width="8.72593300140084" height="8.72593300140084" as="geometry"/>
                </mxCell>
                <mxCell id="wynJoZTQOHE1wt2AJN_e-102" value="" style="pointerEvents=1;shadow=0;dashed=0;html=1;strokeColor=none;aspect=fixed;labelPosition=center;verticalLabelPosition=bottom;verticalAlign=top;align=center;outlineConnect=0;shape=mxgraph.vvd.cpu;fontSize=11;sketch=0;fontColor=#010E14;fillColor=#606160;" parent="wynJoZTQOHE1wt2AJN_e-174" vertex="1">
                    <mxGeometry x="45.106976920530016" y="5.527793356209095" width="8.72593300140084" height="8.72593300140084" as="geometry"/>
                </mxCell>
                <mxCell id="wynJoZTQOHE1wt2AJN_e-103" value="" style="pointerEvents=1;shadow=0;dashed=0;html=1;strokeColor=none;aspect=fixed;labelPosition=center;verticalLabelPosition=bottom;verticalAlign=top;align=center;outlineConnect=0;shape=mxgraph.vvd.cpu;fontSize=11;sketch=0;fontColor=#010E14;fillColor=#606160;" parent="wynJoZTQOHE1wt2AJN_e-174" vertex="1">
                    <mxGeometry x="10.290565076927003" y="17.296643727492974" width="8.72593300140084" height="8.72593300140084" as="geometry"/>
                </mxCell>
                <mxCell id="wynJoZTQOHE1wt2AJN_e-104" value="" style="pointerEvents=1;shadow=0;dashed=0;html=1;strokeColor=none;aspect=fixed;labelPosition=center;verticalLabelPosition=bottom;verticalAlign=top;align=center;outlineConnect=0;shape=mxgraph.vvd.cpu;fontSize=11;sketch=0;fontColor=#010E14;fillColor=#606160;" parent="wynJoZTQOHE1wt2AJN_e-174" vertex="1">
                    <mxGeometry x="21.781696079495482" y="17.296643727492974" width="8.72593300140084" height="8.72593300140084" as="geometry"/>
                </mxCell>
                <mxCell id="wynJoZTQOHE1wt2AJN_e-105" value="" style="pointerEvents=1;shadow=0;dashed=0;html=1;strokeColor=none;aspect=fixed;labelPosition=center;verticalLabelPosition=bottom;verticalAlign=top;align=center;outlineConnect=0;shape=mxgraph.vvd.cpu;fontSize=11;sketch=0;fontColor=#010E14;fillColor=#606160;" parent="wynJoZTQOHE1wt2AJN_e-174" vertex="1">
                    <mxGeometry x="33.44433650001276" y="17.296643727492974" width="8.72593300140084" height="8.72593300140084" as="geometry"/>
                </mxCell>
                <mxCell id="wynJoZTQOHE1wt2AJN_e-106" value="" style="pointerEvents=1;shadow=0;dashed=0;html=1;strokeColor=none;aspect=fixed;labelPosition=center;verticalLabelPosition=bottom;verticalAlign=top;align=center;outlineConnect=0;shape=mxgraph.vvd.cpu;fontSize=11;sketch=0;fontColor=#010E14;fillColor=#606160;" parent="wynJoZTQOHE1wt2AJN_e-174" vertex="1">
                    <mxGeometry x="45.106976920530016" y="17.296643727492974" width="8.72593300140084" height="8.72593300140084" as="geometry"/>
                </mxCell>
                <mxCell id="wynJoZTQOHE1wt2AJN_e-107" value="" style="pointerEvents=1;shadow=0;dashed=0;html=1;strokeColor=none;labelPosition=center;verticalLabelPosition=bottom;verticalAlign=top;align=center;outlineConnect=0;shape=mxgraph.veeam.ram;fontSize=11;sketch=0;fontColor=#010E14;fillColor=#BEC9CF;" parent="wynJoZTQOHE1wt2AJN_e-174" vertex="1">
                    <mxGeometry x="31.729242320524918" y="33.612549924045624" width="22.639243169239396" height="9.094111650537544" as="geometry"/>
                </mxCell>
                <mxCell id="wynJoZTQOHE1wt2AJN_e-108" value="" style="pointerEvents=1;shadow=0;dashed=0;html=1;strokeColor=none;labelPosition=center;verticalLabelPosition=bottom;verticalAlign=top;align=center;outlineConnect=0;shape=mxgraph.veeam.ram;fontSize=11;sketch=0;fontColor=#010E14;fillColor=#BEC9CF;" parent="wynJoZTQOHE1wt2AJN_e-174" vertex="1">
                    <mxGeometry x="31.729242320524918" y="46.362137826269816" width="22.639243169239396" height="9.094111650537544" as="geometry"/>
                </mxCell>
                <mxCell id="wynJoZTQOHE1wt2AJN_e-279" value="" style="verticalAlign=top;verticalLabelPosition=bottom;labelPosition=center;align=center;html=1;outlineConnect=0;gradientColor=none;gradientDirection=north;strokeWidth=2;shape=mxgraph.networks.desktop_pc;fontSize=11;shadow=0;sketch=0;fontColor=#010E14;fillColor=#E6E8E6;strokeColor=#635E5E;" parent="1" vertex="1">
                    <mxGeometry x="-757.9278091067736" y="792.081647027924" width="31.778835307329366" height="64.17875076107588" as="geometry"/>
                </mxCell>
                <mxCell id="wynJoZTQOHE1wt2AJN_e-286" value="" style="group;fontSize=11;shadow=0;sketch=0;fontColor=#010E14;" parent="1" vertex="1" connectable="0">
                    <mxGeometry x="-714.4679218911582" y="794.1247907787448" width="65.22846183428129" height="60.092463259434346" as="geometry"/>
                </mxCell>
                <mxCell id="wynJoZTQOHE1wt2AJN_e-287" value="" style="rounded=1;whiteSpace=wrap;html=1;fillColor=none;fontSize=11;shadow=0;sketch=0;fontColor=#010E14;" parent="wynJoZTQOHE1wt2AJN_e-286" vertex="1">
                    <mxGeometry width="65.22846183428129" height="60.09246325943435" as="geometry"/>
                </mxCell>
                <mxCell id="wynJoZTQOHE1wt2AJN_e-288" value="" style="pointerEvents=1;shadow=0;dashed=0;html=1;strokeColor=none;fillColor=#505050;labelPosition=center;verticalLabelPosition=bottom;verticalAlign=top;outlineConnect=0;align=center;shape=mxgraph.office.devices.hard_disk;fontSize=11;sketch=0;fontColor=#010E14;" parent="wynJoZTQOHE1wt2AJN_e-286" vertex="1">
                    <mxGeometry x="11.26489787579108" y="32.09686464895603" width="18.179998302571033" height="23.35938482785133" as="geometry"/>
                </mxCell>
                <mxCell id="wynJoZTQOHE1wt2AJN_e-291" value="" style="pointerEvents=1;shadow=0;dashed=0;html=1;strokeColor=none;fillColor=#434445;aspect=fixed;labelPosition=center;verticalLabelPosition=bottom;verticalAlign=top;align=center;outlineConnect=0;shape=mxgraph.vvd.cpu;fontSize=11;sketch=0;fontColor=#010E14;" parent="wynJoZTQOHE1wt2AJN_e-286" vertex="1">
                    <mxGeometry x="36.21611152909755" y="7.527793356209095" width="8.72593300140084" height="8.72593300140084" as="geometry"/>
                </mxCell>
                <mxCell id="wynJoZTQOHE1wt2AJN_e-292" value="" style="pointerEvents=1;shadow=0;dashed=0;html=1;strokeColor=none;fillColor=#434445;aspect=fixed;labelPosition=center;verticalLabelPosition=bottom;verticalAlign=top;align=center;outlineConnect=0;shape=mxgraph.vvd.cpu;fontSize=11;sketch=0;fontColor=#010E14;" parent="wynJoZTQOHE1wt2AJN_e-286" vertex="1">
                    <mxGeometry x="46.282808313530275" y="7.527793356209095" width="8.72593300140084" height="8.72593300140084" as="geometry"/>
                </mxCell>
                <mxCell id="wynJoZTQOHE1wt2AJN_e-298" value="" style="pointerEvents=1;shadow=0;dashed=0;html=1;strokeColor=none;labelPosition=center;verticalLabelPosition=bottom;verticalAlign=top;align=center;outlineConnect=0;shape=mxgraph.veeam.ram;fontSize=11;sketch=0;fontColor=#010E14;fillColor=#BEC9CF;" parent="wynJoZTQOHE1wt2AJN_e-286" vertex="1">
                    <mxGeometry x="35.90185052837383" y="19.79445739765767" width="20.044665759113236" height="9.093191540417603" as="geometry"/>
                </mxCell>
                <mxCell id="wynJoZTQOHE1wt2AJN_e-318" value="" style="pointerEvents=1;shadow=0;dashed=0;html=1;strokeColor=none;fillColor=#505050;labelPosition=center;verticalLabelPosition=bottom;verticalAlign=top;outlineConnect=0;align=center;shape=mxgraph.office.devices.hard_disk;fontSize=11;sketch=0;fontColor=#010E14;" parent="wynJoZTQOHE1wt2AJN_e-286" vertex="1">
                    <mxGeometry x="11.26489787579108" y="5.528784792694921" width="18.179998302571033" height="23.35938482785133" as="geometry"/>
                </mxCell>
                <mxCell id="wynJoZTQOHE1wt2AJN_e-319" value="" style="pointerEvents=1;shadow=0;dashed=0;html=1;strokeColor=none;fillColor=#505050;labelPosition=center;verticalLabelPosition=bottom;verticalAlign=top;outlineConnect=0;align=center;shape=mxgraph.office.devices.hard_disk;fontSize=11;sketch=0;fontColor=#010E14;" parent="wynJoZTQOHE1wt2AJN_e-286" vertex="1">
                    <mxGeometry x="35.90267023876937" y="32.09686464895603" width="18.179998302571033" height="23.35938482785133" as="geometry"/>
                </mxCell>
                <mxCell id="wynJoZTQOHE1wt2AJN_e-449" value="Metal" style="text;html=1;strokeColor=none;fillColor=none;align=center;verticalAlign=middle;whiteSpace=wrap;rounded=0;shadow=0;fontSize=11;fontColor=#010E14;" parent="1" vertex="1">
                    <mxGeometry x="-730" y="677.42" width="40" height="20" as="geometry"/>
                </mxCell>
                <mxCell id="wynJoZTQOHE1wt2AJN_e-450" value="AMT&lt;br&gt;PXE&lt;br&gt;Grub&lt;br&gt;pre-seed&lt;br&gt;cloud-init&lt;br&gt;clonezilla" style="text;html=1;strokeColor=none;fillColor=none;align=center;verticalAlign=middle;whiteSpace=wrap;rounded=0;shadow=0;fontSize=11;fontColor=#010E14;" parent="1" vertex="1">
                    <mxGeometry x="-827" y="523.74" width="60" height="68.23" as="geometry"/>
                </mxCell>
                <mxCell id="wynJoZTQOHE1wt2AJN_e-452" value="" style="outlineConnect=0;fontColor=#232F3E;gradientColor=none;fillColor=#5A30B5;strokeColor=none;dashed=0;verticalLabelPosition=bottom;verticalAlign=top;align=center;html=1;fontSize=12;fontStyle=0;aspect=fixed;pointerEvents=1;shape=mxgraph.aws4.download_distribution;rounded=1;shadow=0;direction=north;" parent="1" vertex="1">
                    <mxGeometry x="-816.77" y="770" width="39.55" height="39.55" as="geometry"/>
                </mxCell>
                <mxCell id="wynJoZTQOHE1wt2AJN_e-453" value="VxRail&lt;br&gt;&amp;nbsp;vSphere&lt;br&gt;MaaS&lt;br&gt;Bare&lt;br&gt;" style="text;html=1;strokeColor=none;fillColor=none;align=center;verticalAlign=middle;whiteSpace=wrap;rounded=0;shadow=0;fontSize=11;fontColor=#010E14;" parent="1" vertex="1">
                    <mxGeometry x="-740" y="525.2" width="60" height="68.23" as="geometry"/>
                </mxCell>
                <mxCell id="wynJoZTQOHE1wt2AJN_e-454" value="VxRail&lt;br&gt;&amp;nbsp;vSphere&lt;br&gt;MaaS&lt;br&gt;Bare&lt;br&gt;" style="text;html=1;strokeColor=none;fillColor=none;align=center;verticalAlign=middle;whiteSpace=wrap;rounded=0;shadow=0;fontSize=11;fontColor=#010E14;" parent="1" vertex="1">
                    <mxGeometry x="-640" y="525.2" width="60" height="68.23" as="geometry"/>
                </mxCell>
            </root>
        </mxGraphModel>
    </diagram>
</mxfile>